<svg width="64" height="64" viewBox="0 0 64 64" fill="none" xmlns="http://www.w3.org/2000/svg">
<path d="M32 0C49.6731 0 64 14.3269 64 32C64 49.6731 49.6731 64 32 64C14.3269 64 0 49.6731 0 32C0 14.3269 14.3269 0 32 0Z" fill="#DCFCE7" style="fill:#DCFCE7;fill:color(display-p3 0.8627 0.9882 0.9059);fill-opacity:1;"/>
<path d="M32 0C49.6731 0 64 14.3269 64 32C64 49.6731 49.6731 64 32 64C14.3269 64 0 49.6731 0 32C0 14.3269 14.3269 0 32 0Z" stroke="#E5E7EB" style="stroke:#E5E7EB;stroke:color(display-p3 0.8980 0.9059 0.9216);stroke-opacity:1;"/>
<path d="M42.4447 24.498C43.0584 25.1619 43.0584 26.2402 42.4447 26.9042L29.8746 40.502C29.2609 41.166 28.2641 41.166 27.6503 40.502L21.3653 33.7031C20.7516 33.0391 20.7516 31.9609 21.3653 31.2969C21.9791 30.6329 22.9759 30.6329 23.5896 31.2969L28.7649 36.8901L40.2253 24.498C40.839 23.834 41.8358 23.834 42.4496 24.498H42.4447Z" fill="#166534" style="fill:#166534;fill:color(display-p3 0.0863 0.3961 0.2039);fill-opacity:1;"/>
</svg>
