<svg width="6" height="9" viewBox="0 0 6 9" fill="none" xmlns="http://www.w3.org/2000/svg">
    <path
        d="M5.86334 2.4876L4.48718 1.11143L3.6469 0.266873C3.29107 -0.0889576 2.71231 -0.0889576 2.35648 0.266873L0.135753 2.4876C-0.155771 2.77912 0.0542977 3.27643 0.461574 3.27643H2.86665H5.53752C5.94908 3.27643 6.15486 2.77912 5.86334 2.4876Z"
        fill="#ADAEBC"
        style="fill:#ADAEBC;fill:color(display-p3 0.6784 0.6824 0.7373);fill-opacity:1;" />
    <path
        d="M0.13666 6.06709L1.51282 7.44325L2.3531 8.28781C2.70893 8.64364 3.28769 8.64364 3.64352 8.28781L5.86425 6.06709C6.15577 5.77557 5.9457 5.27826 5.53843 5.27826L3.13335 5.27826L0.462481 5.27826C0.0509179 5.27826 -0.154864 5.77556 0.13666 6.06709Z"
        fill="#ADAEBC"
        style="fill:#ADAEBC;fill:color(display-p3 0.6784 0.6824 0.7373);fill-opacity:1;" />
</svg>