<svg width="13" height="12" viewBox="0 0 13 12" fill="none" xmlns="http://www.w3.org/2000/svg">
<g clip-path="url(#clip0_878_4376)">
<path d="M4.32266 1.51875L4.07891 2.25H2.32812C1.50078 2.25 0.828125 2.92266 0.828125 3.75V9.75C0.828125 10.5773 1.50078 11.25 2.32812 11.25H11.3281C12.1555 11.25 12.8281 10.5773 12.8281 9.75V3.75C12.8281 2.92266 12.1555 2.25 11.3281 2.25H9.57734L9.33359 1.51875C9.18125 1.05938 8.75234 0.75 8.26719 0.75H5.38906C4.90391 0.75 4.475 1.05938 4.32266 1.51875ZM6.82812 4.5C7.42486 4.5 7.99716 4.73705 8.41912 5.15901C8.84107 5.58097 9.07812 6.15326 9.07812 6.75C9.07812 7.34674 8.84107 7.91903 8.41912 8.34099C7.99716 8.76295 7.42486 9 6.82812 9C6.23139 9 5.65909 8.76295 5.23713 8.34099C4.81518 7.91903 4.57812 7.34674 4.57812 6.75C4.57812 6.15326 4.81518 5.58097 5.23713 5.15901C5.65909 4.73705 6.23139 4.5 6.82812 4.5Z" fill="white" style="fill:white;fill-opacity:1;"/>
</g>
<defs>
<clipPath id="clip0_878_4376">
<path d="M0.828125 0H12.8281V12H0.828125V0Z" fill="white" style="fill:white;fill-opacity:1;"/>
</clipPath>
</defs>
</svg>
