<svg width="64" height="64" viewBox="0 0 64 64" fill="none" xmlns="http://www.w3.org/2000/svg">
<path d="M32 0C49.6731 0 64 14.3269 64 32C64 49.6731 49.6731 64 32 64C14.3269 64 0 49.6731 0 32C0 14.3269 14.3269 0 32 0Z" fill="#367BE0" fill-opacity="0.2" style="fill:#367BE0;fill:color(display-p3 0.2118 0.4824 0.8784);fill-opacity:0.2;"/>
<path d="M32 0C49.6731 0 64 14.3269 64 32C64 49.6731 49.6731 64 32 64C14.3269 64 0 49.6731 0 32C0 14.3269 14.3269 0 32 0Z" stroke="#E5E7EB" style="stroke:#E5E7EB;stroke:color(display-p3 0.8980 0.9059 0.9216);stroke-opacity:1;"/>
<path d="M39.9395 20.8438C40.7984 19.985 42.1938 19.985 43.0527 20.8438C43.858 21.6491 43.9078 22.9259 43.2031 23.79L43.0527 23.957L35.1592 31.8584L35.0176 32L35.1592 32.1416L43.0605 40.0352C43.9192 40.8941 43.9193 42.2895 43.0605 43.1484C42.2552 43.9537 40.9784 44.0035 40.1143 43.2988L39.9473 43.1484L32.0459 35.2549L31.9043 35.1133L31.7627 35.2549L23.8691 43.1562C23.0102 44.015 21.6148 44.015 20.7559 43.1562C19.897 42.2974 19.8971 40.9019 20.7559 40.043L28.6494 32.1416L28.791 32L28.6494 31.8584L20.748 23.9648C19.8893 23.1059 19.8893 21.7105 20.748 20.8516C21.6069 19.9927 23.0024 19.9928 23.8613 20.8516L31.7627 28.7451L31.9043 28.8867L32.0459 28.7451L39.9395 20.8438Z" fill="#367BE0" stroke="#367BE0" style="fill:#367BE0;fill:color(display-p3 0.2118 0.4824 0.8784);fill-opacity:1;stroke:#367BE0;stroke:color(display-p3 0.2118 0.4824 0.8784);stroke-opacity:1;" stroke-width="0.4"/>
</svg>
