<svg width="33" height="33" viewBox="0 0 33 33" fill="none" xmlns="http://www.w3.org/2000/svg">
<rect width="33" height="33" rx="4" fill="#367BE0" style="fill:#367BE0;fill:color(display-p3 0.2118 0.4824 0.8784);fill-opacity:1;"/>
<path d="M21.7461 10.5518C22.2146 10.0832 22.9758 10.0832 23.4443 10.5518C23.9125 11.0202 23.9125 11.7806 23.4443 12.249V12.25L18.8398 16.8584L18.6982 17L18.8398 17.1416L23.4482 21.7461C23.9168 22.2146 23.9168 22.9758 23.4482 23.4443C22.9798 23.9125 22.2194 23.9125 21.751 23.4443H21.75L17.1416 18.8398L17 18.6982L16.8584 18.8398L12.2539 23.4482C11.7854 23.9168 11.0242 23.9168 10.5557 23.4482C10.0875 22.9798 10.0875 22.2194 10.5557 21.751V21.75L15.1602 17.1416L15.3018 17L15.1602 16.8584L10.5518 12.2539C10.0832 11.7854 10.0832 11.0242 10.5518 10.5557C11.0202 10.0875 11.7806 10.0875 12.249 10.5557H12.25L16.8584 15.1602L17 15.3018L17.1416 15.1602L21.7461 10.5518Z" fill="white" stroke="#367BE0" style="fill:white;fill-opacity:1;stroke:#367BE0;stroke:color(display-p3 0.2118 0.4824 0.8784);stroke-opacity:1;" stroke-width="0.4"/>
</svg>
