<svg width="16" height="16" viewBox="0 0 16 16" fill="none" xmlns="http://www.w3.org/2000/svg">
<g clip-path="url(#clip0_1640_514)">
<path d="M8 0C10.1217 0 12.1569 0.842483 13.6572 2.34277C15.1575 3.84306 16 5.87827 16 8C16 10.1217 15.1575 12.1569 13.6572 13.6572C12.1569 15.1575 10.1217 16 8 16C5.87827 16 3.84306 15.1575 2.34277 13.6572C0.842483 12.1569 0 10.1217 0 8C0 5.87827 0.842482 3.84306 2.34277 2.34277C3.84306 0.842482 5.87827 0 8 0ZM11.5283 5.46875C11.2377 5.175 10.7625 5.175 10.4688 5.46875L8.46777 7.47168C7.65705 8.28272 6.34218 8.28261 5.53125 7.47168C5.24062 7.17803 4.7654 7.18109 4.47168 7.47168C4.17796 7.76227 4.17803 8.23749 4.47168 8.53125L6.47168 10.5312C6.7623 10.825 7.2375 10.825 7.53125 10.5312L11.5293 6.5332V6.52637C11.8214 6.23564 11.8183 5.76198 11.5283 5.46875Z" fill="#9CA3AF" style="fill:#9CA3AF;fill:color(display-p3 0.6118 0.6392 0.6863);fill-opacity:1;"/>
<path d="M8 0C10.1217 0 12.1569 0.842483 13.6572 2.34277C15.1575 3.84306 16 5.87827 16 8C16 10.1217 15.1575 12.1569 13.6572 13.6572C12.1569 15.1575 10.1217 16 8 16C5.87827 16 3.84306 15.1575 2.34277 13.6572C0.842483 12.1569 0 10.1217 0 8C0 5.87827 0.842482 3.84306 2.34277 2.34277C3.84306 0.842482 5.87827 0 8 0ZM11.5283 5.46875C11.2377 5.175 10.7625 5.175 10.4688 5.46875L8.46777 7.47168C7.65705 8.28272 6.34218 8.28261 5.53125 7.47168C5.24062 7.17803 4.7654 7.18109 4.47168 7.47168C4.17796 7.76227 4.17803 8.23749 4.47168 8.53125L6.47168 10.5312C6.7623 10.825 7.2375 10.825 7.53125 10.5312L11.5293 6.5332V6.52637C11.8214 6.23564 11.8183 5.76198 11.5283 5.46875Z" stroke="#E5E7EB" style="stroke:#E5E7EB;stroke:color(display-p3 0.8980 0.9059 0.9216);stroke-opacity:1;"/>
</g>
<defs>
<clipPath id="clip0_1640_514">
<path d="M0 0H16V16H0V0Z" fill="white" style="fill:white;fill-opacity:1;"/>
</clipPath>
</defs>
</svg>
