<svg width="18" height="17" viewBox="0 0 18 17" fill="none" xmlns="http://www.w3.org/2000/svg">
<g clip-path="url(#clip0_1640_496)">
<path d="M9 16C11.1217 16 13.1566 15.1571 14.6569 13.6569C16.1571 12.1566 17 10.1217 17 8C17 5.87827 16.1571 3.84344 14.6569 2.34315C13.1566 0.842855 11.1217 0 9 0C6.87827 0 4.84344 0.842855 3.34315 2.34315C1.84285 3.84344 1 5.87827 1 8C1 10.1217 1.84285 12.1566 3.34315 13.6569C4.84344 15.1571 6.87827 16 9 16ZM12.5312 6.53125L8.53125 10.5312C8.2375 10.825 7.7625 10.825 7.47188 10.5312L5.47188 8.53125C5.17813 8.2375 5.17813 7.7625 5.47188 7.47188C5.76562 7.18125 6.24062 7.17813 6.53125 7.47188L8 8.94063L11.4688 5.46875C11.7625 5.175 12.2375 5.175 12.5281 5.46875C12.8187 5.7625 12.8219 6.2375 12.5281 6.52812L12.5312 6.53125Z" fill="#10B981" style="fill:#10B981;fill:color(display-p3 0.0627 0.7255 0.5059);fill-opacity:1;"/>
</g>
<defs>
<clipPath id="clip0_1640_496">
<path d="M0 0.121094H18V16.1211H0V0.121094Z" fill="white" style="fill:white;fill-opacity:1;"/>
</clipPath>
</defs>
</svg>
