<svg width="40" height="40" viewBox="0 0 40 40" fill="none" xmlns="http://www.w3.org/2000/svg">
<path d="M20 0C31.0457 0 40 8.95431 40 20C40 31.0457 31.0457 40 20 40C8.95431 40 0 31.0457 0 20C0 8.95431 8.95431 0 20 0Z" fill="#DBEAFE" style="fill:#DBEAFE;fill:color(display-p3 0.8588 0.9176 0.9961);fill-opacity:1;"/>
<path d="M20 0C31.0457 0 40 8.95431 40 20C40 31.0457 31.0457 40 20 40C8.95431 40 0 31.0457 0 20C0 8.95431 8.95431 0 20 0Z" stroke="#E5E7EB" style="stroke:#E5E7EB;stroke:color(display-p3 0.8980 0.9059 0.9216);stroke-opacity:1;"/>
<path d="M30 32H10V8H30V32Z" stroke="#E5E7EB" style="stroke:#E5E7EB;stroke:color(display-p3 0.8980 0.9059 0.9216);stroke-opacity:1;"/>
<g clip-path="url(#clip0_2252_1799)">
<path d="M13 15C13 13.9391 13.4214 12.9217 14.1716 12.1716C14.9217 11.4214 15.9391 11 17 11C18.0609 11 19.0783 11.4214 19.8284 12.1716C20.5786 12.9217 21 13.9391 21 15C21 16.0609 20.5786 17.0783 19.8284 17.8284C19.0783 18.5786 18.0609 19 17 19C15.9391 19 14.9217 18.5786 14.1716 17.8284C13.4214 17.0783 13 16.0609 13 15ZM10 26.0719C10 22.9937 12.4938 20.5 15.5719 20.5H18.4281C21.5063 20.5 24 22.9937 24 26.0719C24 26.5844 23.5844 27 23.0719 27H10.9281C10.4156 27 10 26.5844 10 26.0719ZM29.0406 27H24.7312C24.9 26.7063 25 26.3656 25 26V25.75C25 23.8531 24.1531 22.15 22.8188 21.0063C22.8938 21.0031 22.9656 21 23.0406 21H24.9594C27.7437 21 30 23.2562 30 26.0406C30 26.5719 29.5688 27 29.0406 27ZM23.5 19C22.5312 19 21.6562 18.6063 21.0219 17.9719C21.6375 17.1406 22 16.1125 22 15C22 14.1625 21.7938 13.3719 21.4281 12.6781C22.0094 12.2531 22.725 12 23.5 12C25.4344 12 27 13.5656 27 15.5C27 17.4344 25.4344 19 23.5 19Z" fill="#367BE0" style="fill:#367BE0;fill:color(display-p3 0.2118 0.4824 0.8784);fill-opacity:1;"/>
</g>
<defs>
<clipPath id="clip0_2252_1799">
<path d="M10 11H30V27H10V11Z" fill="white" style="fill:white;fill-opacity:1;"/>
</clipPath>
</defs>
</svg>
