<svg width="40" height="40" viewBox="0 0 40 40" fill="none" xmlns="http://www.w3.org/2000/svg">
<path d="M20 0C31.0457 0 40 8.95431 40 20C40 31.0457 31.0457 40 20 40C8.95431 40 0 31.0457 0 20C0 8.95431 8.95431 0 20 0Z" fill="#DCFCE7" style="fill:#DCFCE7;fill:color(display-p3 0.8627 0.9882 0.9059);fill-opacity:1;"/>
<path d="M20 0C31.0457 0 40 8.95431 40 20C40 31.0457 31.0457 40 20 40C8.95431 40 0 31.0457 0 20C0 8.95431 8.95431 0 20 0Z" stroke="#E5E7EB" style="stroke:#E5E7EB;stroke:color(display-p3 0.8980 0.9059 0.9216);stroke-opacity:1;"/>
<path d="M30 32H10V8H30V32Z" stroke="#E5E7EB" style="stroke:#E5E7EB;stroke:color(display-p3 0.8980 0.9059 0.9216);stroke-opacity:1;"/>
<g clip-path="url(#clip0_2252_1809)">
<path d="M13 15C13 13.9391 13.4214 12.9217 14.1716 12.1716C14.9217 11.4214 15.9391 11 17 11C18.0609 11 19.0783 11.4214 19.8284 12.1716C20.5786 12.9217 21 13.9391 21 15C21 16.0609 20.5786 17.0783 19.8284 17.8284C19.0783 18.5786 18.0609 19 17 19C15.9391 19 14.9217 18.5786 14.1716 17.8284C13.4214 17.0783 13 16.0609 13 15ZM10 26.0719C10 22.9937 12.4938 20.5 15.5719 20.5H18.4281C21.5063 20.5 24 22.9937 24 26.0719C24 26.5844 23.5844 27 23.0719 27H10.9281C10.4156 27 10 26.5844 10 26.0719ZM29.5312 16.5312L25.5312 20.5312C25.2375 20.825 24.7625 20.825 24.4719 20.5312L22.4719 18.5312C22.1781 18.2375 22.1781 17.7625 22.4719 17.4719C22.7656 17.1813 23.2406 17.1781 23.5312 17.4719L25 18.9406L28.4688 15.4688C28.7625 15.175 29.2375 15.175 29.5281 15.4688C29.8188 15.7625 29.8219 16.2375 29.5281 16.5281L29.5312 16.5312Z" fill="#16A34A" style="fill:#16A34A;fill:color(display-p3 0.0863 0.6392 0.2902);fill-opacity:1;"/>
</g>
<defs>
<clipPath id="clip0_2252_1809">
<path d="M10 11H30V27H10V11Z" fill="white" style="fill:white;fill-opacity:1;"/>
</clipPath>
</defs>
</svg>
