<svg width="40" height="40" viewBox="0 0 40 40" fill="none" xmlns="http://www.w3.org/2000/svg">
<path d="M20 0C31.0457 0 40 8.95431 40 20C40 31.0457 31.0457 40 20 40C8.95431 40 0 31.0457 0 20C0 8.95431 8.95431 0 20 0Z" fill="#F3E8FF" style="fill:#F3E8FF;fill:color(display-p3 0.9529 0.9098 1.0000);fill-opacity:1;"/>
<path d="M20 0C31.0457 0 40 8.95431 40 20C40 31.0457 31.0457 40 20 40C8.95431 40 0 31.0457 0 20C0 8.95431 8.95431 0 20 0Z" stroke="#E5E7EB" style="stroke:#E5E7EB;stroke:color(display-p3 0.8980 0.9059 0.9216);stroke-opacity:1;"/>
<path d="M28 32H12V8H28V32Z" stroke="#E5E7EB" style="stroke:#E5E7EB;stroke:color(display-p3 0.8980 0.9059 0.9216);stroke-opacity:1;"/>
<g clip-path="url(#clip0_2252_1819)">
<path d="M14 11C12.8969 11 12 11.8969 12 13V22C12 23.1031 12.8969 24 14 24H17V26.5C17 26.6906 17.1063 26.8625 17.275 26.9469C17.4437 27.0312 17.6469 27.0125 17.8 26.9L21.6656 24H26C27.1031 24 28 23.1031 28 22V13C28 11.8969 27.1031 11 26 11H14Z" fill="#9333EA" style="fill:#9333EA;fill:color(display-p3 0.5765 0.2000 0.9176);fill-opacity:1;"/>
</g>
<defs>
<clipPath id="clip0_2252_1819">
<path d="M12 11H28V27H12V11Z" fill="white" style="fill:white;fill-opacity:1;"/>
</clipPath>
</defs>
</svg>
