<svg width="27" height="22" viewBox="0 0 27 22" fill="none" xmlns="http://www.w3.org/2000/svg">
<g clip-path="url(#clip0_726_35)">
<g clip-path="url(#clip1_726_35)">
<mask id="path-2-outside-1_726_35" maskUnits="userSpaceOnUse" x="-0.499268" y="-0.5" width="28" height="23" fill="black">
<rect fill="white" x="-0.499268" y="-0.5" width="28" height="23"/>
<path d="M9.30141 14.5625C13.6103 14.5625 17.1017 11.6383 17.1017 8.03125C17.1017 4.42422 13.6103 1.5 9.30141 1.5C4.99251 1.5 1.50114 4.42422 1.50114 8.03125C1.50114 9.46367 2.05241 10.7885 2.98619 11.8684C2.85494 12.2172 2.65993 12.5252 2.45368 12.785C2.27367 13.015 2.08991 13.1932 1.95491 13.3156C1.88741 13.375 1.83115 13.4232 1.79365 13.4529C1.7749 13.4678 1.7599 13.4789 1.7524 13.4826L1.7449 13.49C1.53864 13.6422 1.44864 13.9094 1.53114 14.1506C1.61365 14.3918 1.8424 14.5625 2.10116 14.5625C2.91869 14.5625 3.74372 14.3547 4.42999 14.0986C4.775 13.9688 5.09751 13.824 5.37877 13.6756C6.53006 14.2396 7.86886 14.5625 9.30141 14.5625ZM18.3017 8.03125C18.3017 12.1986 14.5853 15.3381 10.1827 15.7129C11.094 18.4738 14.1166 20.5 17.7017 20.5C19.1342 20.5 20.473 20.1771 21.6281 19.6131C21.9093 19.7615 22.2281 19.9062 22.5731 20.0361C23.2594 20.2922 24.0844 20.5 24.9019 20.5C25.1607 20.5 25.3932 20.333 25.472 20.0881C25.5507 19.8432 25.4645 19.576 25.2544 19.4238L25.2469 19.4164C25.2394 19.409 25.2244 19.4016 25.2057 19.3867C25.1682 19.357 25.1119 19.3125 25.0444 19.2494C24.9094 19.127 24.7257 18.9488 24.5457 18.7188C24.3394 18.459 24.1444 18.1473 24.0132 17.8021C24.9469 16.726 25.4982 15.4012 25.4982 13.965C25.4982 10.5213 22.3143 7.69727 18.2755 7.45234C18.2905 7.6416 18.298 7.83457 18.298 8.02754L18.3017 8.03125Z"/>
</mask>
<path d="M9.30141 14.5625C13.6103 14.5625 17.1017 11.6383 17.1017 8.03125C17.1017 4.42422 13.6103 1.5 9.30141 1.5C4.99251 1.5 1.50114 4.42422 1.50114 8.03125C1.50114 9.46367 2.05241 10.7885 2.98619 11.8684C2.85494 12.2172 2.65993 12.5252 2.45368 12.785C2.27367 13.015 2.08991 13.1932 1.95491 13.3156C1.88741 13.375 1.83115 13.4232 1.79365 13.4529C1.7749 13.4678 1.7599 13.4789 1.7524 13.4826L1.7449 13.49C1.53864 13.6422 1.44864 13.9094 1.53114 14.1506C1.61365 14.3918 1.8424 14.5625 2.10116 14.5625C2.91869 14.5625 3.74372 14.3547 4.42999 14.0986C4.775 13.9688 5.09751 13.824 5.37877 13.6756C6.53006 14.2396 7.86886 14.5625 9.30141 14.5625ZM18.3017 8.03125C18.3017 12.1986 14.5853 15.3381 10.1827 15.7129C11.094 18.4738 14.1166 20.5 17.7017 20.5C19.1342 20.5 20.473 20.1771 21.6281 19.6131C21.9093 19.7615 22.2281 19.9062 22.5731 20.0361C23.2594 20.2922 24.0844 20.5 24.9019 20.5C25.1607 20.5 25.3932 20.333 25.472 20.0881C25.5507 19.8432 25.4645 19.576 25.2544 19.4238L25.2469 19.4164C25.2394 19.409 25.2244 19.4016 25.2057 19.3867C25.1682 19.357 25.1119 19.3125 25.0444 19.2494C24.9094 19.127 24.7257 18.9488 24.5457 18.7188C24.3394 18.459 24.1444 18.1473 24.0132 17.8021C24.9469 16.726 25.4982 15.4012 25.4982 13.965C25.4982 10.5213 22.3143 7.69727 18.2755 7.45234C18.2905 7.6416 18.298 7.83457 18.298 8.02754L18.3017 8.03125Z" stroke="white" style="stroke:white;stroke-opacity:1;" stroke-width="3" mask="url(#path-2-outside-1_726_35)"/>
</g>
</g>
<defs>
<clipPath id="clip0_726_35">
<rect width="1440" height="1161" fill="white" style="fill:white;fill-opacity:1;" transform="translate(-34.4993 -850)"/>
</clipPath>
<clipPath id="clip1_726_35">
<rect width="256" height="1161" fill="white" style="fill:white;fill-opacity:1;" transform="translate(-34.4993 -850)"/>
</clipPath>
</defs>
</svg>
