<svg width="20" height="20" viewBox="0 0 20 20" fill="none" xmlns="http://www.w3.org/2000/svg">
<path d="M4 0.5H16C17.933 0.5 19.5 2.067 19.5 4V16C19.5 17.933 17.933 19.5 16 19.5H4C2.067 19.5 0.5 17.933 0.5 16V4C0.5 2.067 2.067 0.5 4 0.5Z" fill="#367BE0" fill-opacity="0.1" style="fill:#367BE0;fill:color(display-p3 0.2118 0.4824 0.8784);fill-opacity:0.1;"/>
<path d="M4 0.5H16C17.933 0.5 19.5 2.067 19.5 4V16C19.5 17.933 17.933 19.5 16 19.5H4C2.067 19.5 0.5 17.933 0.5 16V4C0.5 2.067 2.067 0.5 4 0.5Z" stroke="#E5E7EB" style="stroke:#E5E7EB;stroke:color(display-p3 0.8980 0.9059 0.9216);stroke-opacity:1;"/>
<g clip-path="url(#clip0_829_194)">
<path d="M15.0297 5.9707C15.3227 6.26367 15.3227 6.73945 15.0297 7.03242L9.02974 13.0324C8.73677 13.3254 8.26099 13.3254 7.96802 13.0324L4.96802 10.0324C4.67505 9.73945 4.67505 9.26367 4.96802 8.9707C5.26099 8.67773 5.73677 8.67773 6.02974 8.9707L8.50005 11.4387L13.9704 5.9707C14.2633 5.67773 14.7391 5.67773 15.0321 5.9707H15.0297Z" fill="#367BE0" style="fill:#367BE0;fill:color(display-p3 0.2118 0.4824 0.8784);fill-opacity:1;"/>
</g>
<defs>
<clipPath id="clip0_829_194">
<path d="M4.75 3.5H15.25V15.5H4.75V3.5Z" fill="white" style="fill:white;fill-opacity:1;"/>
</clipPath>
</defs>
</svg>
