<svg width="56" height="57" viewBox="0 0 56 57" fill="none" xmlns="http://www.w3.org/2000/svg">
<path d="M28 0.0390625C43.464 0.0390625 56 12.5751 56 28.0391C56 43.503 43.464 56.0391 28 56.0391C12.536 56.0391 0 43.503 0 28.0391C0 12.5751 12.536 0.0390625 28 0.0390625Z" fill="url(#paint0_linear_843_2955)" style=""/>
<path d="M28 0.0390625C43.464 0.0390625 56 12.5751 56 28.0391C56 43.503 43.464 56.0391 28 56.0391C12.536 56.0391 0 43.503 0 28.0391C0 12.5751 12.536 0.0390625 28 0.0390625Z" stroke="#E5E7EB" style="stroke:#E5E7EB;stroke:color(display-p3 0.8980 0.9059 0.9216);stroke-opacity:1;"/>
<g clip-path="url(#clip0_843_2955)">
<path d="M21.125 18.0391C21.9538 18.0391 22.7487 18.3683 23.3347 18.9544C23.9208 19.5404 24.25 20.3353 24.25 21.1641C24.25 21.9929 23.9208 22.7877 23.3347 23.3738C22.7487 23.9598 21.9538 24.2891 21.125 24.2891C20.2962 24.2891 19.5013 23.9598 18.9153 23.3738C18.3292 22.7877 18 21.9929 18 21.1641C18 20.3353 18.3292 19.5404 18.9153 18.9544C19.5013 18.3683 20.2962 18.0391 21.125 18.0391ZM35.5 18.0391C36.3288 18.0391 37.1237 18.3683 37.7097 18.9544C38.2958 19.5404 38.625 20.3353 38.625 21.1641C38.625 21.9929 38.2958 22.7877 37.7097 23.3738C37.1237 23.9598 36.3288 24.2891 35.5 24.2891C34.6712 24.2891 33.8763 23.9598 33.2903 23.3738C32.7042 22.7877 32.375 21.9929 32.375 21.1641C32.375 20.3353 32.7042 19.5404 33.2903 18.9544C33.8763 18.3683 34.6712 18.0391 35.5 18.0391ZM15.5 29.707C15.5 27.4062 17.3672 25.5391 19.668 25.5391H21.3359C21.957 25.5391 22.5469 25.6758 23.0781 25.918C23.0273 26.1992 23.0039 26.4922 23.0039 26.7891C23.0039 28.2812 23.6602 29.6211 24.6953 30.5391C24.6875 30.5391 24.6797 30.5391 24.668 30.5391H16.332C15.875 30.5391 15.5 30.1641 15.5 29.707ZM31.332 30.5391C31.3242 30.5391 31.3164 30.5391 31.3047 30.5391C32.3438 29.6211 32.9961 28.2812 32.9961 26.7891C32.9961 26.4922 32.9688 26.2031 32.9219 25.918C33.4531 25.6719 34.043 25.5391 34.6641 25.5391H36.332C38.6328 25.5391 40.5 27.4062 40.5 29.707C40.5 30.168 40.125 30.5391 39.668 30.5391H31.332ZM24.25 26.7891C24.25 25.7945 24.6451 24.8407 25.3483 24.1374C26.0516 23.4342 27.0054 23.0391 28 23.0391C28.9946 23.0391 29.9484 23.4342 30.6517 24.1374C31.3549 24.8407 31.75 25.7945 31.75 26.7891C31.75 27.7836 31.3549 28.7375 30.6517 29.4407C29.9484 30.144 28.9946 30.5391 28 30.5391C27.0054 30.5391 26.0516 30.144 25.3483 29.4407C24.6451 28.7375 24.25 27.7836 24.25 26.7891ZM20.5 36.9961C20.5 34.1211 22.832 31.7891 25.707 31.7891H30.293C33.168 31.7891 35.5 34.1211 35.5 36.9961C35.5 37.5703 35.0352 38.0391 34.457 38.0391H21.543C20.9688 38.0391 20.5 37.5742 20.5 36.9961Z" fill="#2563EB" style="fill:#2563EB;fill:color(display-p3 0.1451 0.3882 0.9216);fill-opacity:1;"/>
</g>
<defs>
<linearGradient id="paint0_linear_843_2955" x1="0" y1="28.0391" x2="56" y2="28.0391" gradientUnits="userSpaceOnUse">
<stop stop-color="#EFF6FF" style="stop-color:#EFF6FF;stop-color:color(display-p3 0.9373 0.9647 1.0000);stop-opacity:1;"/>
<stop offset="1" stop-color="#DBEAFE" style="stop-color:#DBEAFE;stop-color:color(display-p3 0.8588 0.9176 0.9961);stop-opacity:1;"/>
</linearGradient>
<clipPath id="clip0_843_2955">
<path d="M15.5 18.0391H40.5V38.0391H15.5V18.0391Z" fill="white" style="fill:white;fill-opacity:1;"/>
</clipPath>
</defs>
</svg>
