<svg width="56" height="57" viewBox="0 0 56 57" fill="none" xmlns="http://www.w3.org/2000/svg">
<path d="M28 0.0390625C43.464 0.0390625 56 12.5751 56 28.0391C56 43.503 43.464 56.0391 28 56.0391C12.536 56.0391 0 43.503 0 28.0391C0 12.5751 12.536 0.0390625 28 0.0390625Z" fill="url(#paint0_linear_843_2964)" style=""/>
<path d="M28 0.0390625C43.464 0.0390625 56 12.5751 56 28.0391C56 43.503 43.464 56.0391 28 56.0391C12.536 56.0391 0 43.503 0 28.0391C0 12.5751 12.536 0.0390625 28 0.0390625Z" stroke="#E5E7EB" style="stroke:#E5E7EB;stroke:color(display-p3 0.8980 0.9059 0.9216);stroke-opacity:1;"/>
<g clip-path="url(#clip0_843_2964)">
<path d="M24.6562 17.999C25.9823 17.999 27.2541 18.5258 28.1918 19.4635C29.1295 20.4012 29.6562 21.6729 29.6562 22.999C29.6562 24.3251 29.1295 25.5969 28.1918 26.5346C27.2541 27.4722 25.9823 27.999 24.6562 27.999C23.3302 27.999 22.0584 27.4722 21.1207 26.5346C20.183 25.5969 19.6562 24.3251 19.6562 22.999C19.6562 21.6729 20.183 20.4012 21.1207 19.4635C22.0584 18.5258 23.3302 17.999 24.6562 17.999ZM22.8711 29.874H26.4414C27.2461 29.874 28.0195 30.0107 28.7383 30.2607C28.5234 30.9287 28.4062 31.6357 28.4062 32.374C28.4062 34.6982 29.5586 36.7529 31.3281 37.999H17.0664C16.4258 37.999 15.9062 37.4795 15.9062 36.8389C15.9062 32.9912 19.0234 29.874 22.8711 29.874ZM29.6562 32.374C29.6562 30.8822 30.2489 29.4514 31.3038 28.3965C32.3587 27.3417 33.7894 26.749 35.2812 26.749C36.7731 26.749 38.2038 27.3417 39.2587 28.3965C40.3136 29.4514 40.9062 30.8822 40.9062 32.374C40.9062 33.8659 40.3136 35.2966 39.2587 36.3515C38.2038 37.4064 36.7731 37.999 35.2812 37.999C33.7894 37.999 32.3587 37.4064 31.3038 36.3515C30.2489 35.2966 29.6562 33.8659 29.6562 32.374ZM35.2812 29.249C34.9375 29.249 34.6562 29.5303 34.6562 29.874V32.374C34.6562 32.7178 34.9375 32.999 35.2812 32.999H37.1562C37.5 32.999 37.7812 32.7178 37.7812 32.374C37.7812 32.0303 37.5 31.749 37.1562 31.749H35.9062V29.874C35.9062 29.5303 35.625 29.249 35.2812 29.249Z" fill="#16A34A" style="fill:#16A34A;fill:color(display-p3 0.0863 0.6392 0.2902);fill-opacity:1;"/>
</g>
<defs>
<linearGradient id="paint0_linear_843_2964" x1="0" y1="28.0391" x2="56" y2="28.0391" gradientUnits="userSpaceOnUse">
<stop stop-color="#F0FDF4" style="stop-color:#F0FDF4;stop-color:color(display-p3 0.9412 0.9922 0.9569);stop-opacity:1;"/>
<stop offset="1" stop-color="#DCFCE7" style="stop-color:#DCFCE7;stop-color:color(display-p3 0.8627 0.9882 0.9059);stop-opacity:1;"/>
</linearGradient>
<clipPath id="clip0_843_2964">
<path d="M15.4062 18.0391H40.4062V38.0391H15.4062V18.0391Z" fill="white" style="fill:white;fill-opacity:1;"/>
</clipPath>
</defs>
</svg>
