<svg width="64" height="64" viewBox="0 0 64 64" fill="none" xmlns="http://www.w3.org/2000/svg">
<path d="M32 0C49.6731 0 64 14.3269 64 32C64 49.6731 49.6731 64 32 64C14.3269 64 0 49.6731 0 32C0 14.3269 14.3269 0 32 0Z" fill="#E0F2FE" style="fill:#E0F2FE;fill:color(display-p3 0.8784 0.9490 0.9961);fill-opacity:1;"/>
<path d="M32 0C49.6731 0 64 14.3269 64 32C64 49.6731 49.6731 64 32 64C14.3269 64 0 49.6731 0 32C0 14.3269 14.3269 0 32 0Z" stroke="#E5E7EB" style="stroke:#E5E7EB;stroke:color(display-p3 0.8980 0.9059 0.9216);stroke-opacity:1;"/>
<path d="M44 48H20V16H44V48Z" stroke="#E5E7EB" style="stroke:#E5E7EB;stroke:color(display-p3 0.8980 0.9059 0.9216);stroke-opacity:1;"/>
<g clip-path="url(#clip0_2535_806)">
<path d="M43.3489 19.2627C43.8224 19.5908 44.0708 20.158 43.9817 20.7252L40.9817 40.2252C40.9114 40.6799 40.6349 41.0783 40.2317 41.3033C39.8286 41.5283 39.3458 41.5564 38.9192 41.3783L33.313 39.0486L30.1021 42.5221C29.6849 42.9767 29.0286 43.1267 28.4521 42.9017C27.8755 42.6767 27.5005 42.1189 27.5005 41.5002V37.5814C27.5005 37.3939 27.5708 37.2158 27.6974 37.0799L35.5536 28.5064C35.8255 28.2111 35.8161 27.7564 35.5349 27.4752C35.2536 27.1939 34.7989 27.1752 34.5036 27.4424L24.9692 35.9127L20.8302 33.8408C20.3333 33.5924 20.0146 33.0955 20.0005 32.5424C19.9864 31.9892 20.2771 31.4736 20.7552 31.1971L41.7552 19.1971C42.2567 18.9111 42.8755 18.9392 43.3489 19.2627Z" fill="#0284C7" style="fill:#0284C7;fill:color(display-p3 0.0078 0.5176 0.7804);fill-opacity:1;"/>
</g>
<defs>
<clipPath id="clip0_2535_806">
<path d="M20 19H44V43H20V19Z" fill="white" style="fill:white;fill-opacity:1;"/>
</clipPath>
</defs>
</svg>
