<svg width="33" height="33" viewBox="0 0 33 33" fill="none" xmlns="http://www.w3.org/2000/svg">
<rect width="33" height="33" rx="4" fill="#367BE0" style="fill:#367BE0;fill:color(display-p3 0.2118 0.4824 0.8784);fill-opacity:1;"/>
<path d="M21 12.967C20.95 12.9587 20.8917 12.9587 20.8417 12.967C19.6917 12.9253 18.775 11.9837 18.775 10.817C18.775 9.62533 19.7334 8.66699 20.925 8.66699C22.1167 8.66699 23.075 9.63366 23.075 10.817C23.0667 11.9837 22.15 12.9253 21 12.967Z" stroke="white" style="stroke:white;stroke-opacity:1;" stroke-linecap="round" stroke-linejoin="round"/>
<path d="M20.1417 19.0338C21.2834 19.2255 22.5417 19.0255 23.425 18.4338C24.6 17.6505 24.6 16.3671 23.425 15.5838C22.5334 14.9921 21.2584 14.7921 20.1167 14.9921" stroke="white" style="stroke:white;stroke-opacity:1;" stroke-linecap="round" stroke-linejoin="round"/>
<path d="M10.975 12.967C11.025 12.9587 11.0834 12.9587 11.1334 12.967C12.2834 12.9253 13.2 11.9837 13.2 10.817C13.2 9.62533 12.2417 8.66699 11.05 8.66699C9.85836 8.66699 8.90002 9.63366 8.90002 10.817C8.90836 11.9837 9.82503 12.9253 10.975 12.967Z" stroke="white" style="stroke:white;stroke-opacity:1;" stroke-linecap="round" stroke-linejoin="round"/>
<path d="M11.8333 19.0338C10.6917 19.2255 9.43335 19.0255 8.55001 18.4338C7.37501 17.6505 7.37501 16.3671 8.55001 15.5838C9.44168 14.9921 10.7167 14.7921 11.8583 14.9921" stroke="white" style="stroke:white;stroke-opacity:1;" stroke-linecap="round" stroke-linejoin="round"/>
<path d="M16 19.1916C15.95 19.1833 15.8916 19.1833 15.8416 19.1916C14.6916 19.1499 13.775 18.2083 13.775 17.0416C13.775 15.8499 14.7333 14.8916 15.925 14.8916C17.1166 14.8916 18.075 15.8583 18.075 17.0416C18.0666 18.2083 17.15 19.1583 16 19.1916Z" stroke="white" style="stroke:white;stroke-opacity:1;" stroke-linecap="round" stroke-linejoin="round"/>
<path d="M13.575 21.8168C12.4 22.6001 12.4 23.8835 13.575 24.6668C14.9083 25.5585 17.0916 25.5585 18.425 24.6668C19.6 23.8835 19.6 22.6001 18.425 21.8168C17.1 20.9335 14.9083 20.9335 13.575 21.8168Z" stroke="white" style="stroke:white;stroke-opacity:1;" stroke-linecap="round" stroke-linejoin="round"/>
</svg>
