<svg width="28" height="25" viewBox="0 0 28 25" fill="none" xmlns="http://www.w3.org/2000/svg">
<path d="M13.999 1.25C14.931 1.25 15.7916 1.7427 16.2637 2.54883L26.3877 19.7979H26.3887C26.8688 20.6135 26.8675 21.6183 26.4023 22.4307C25.9356 23.2456 25.0636 23.7499 24.125 23.75H3.87305C2.93446 23.7499 2.06237 23.2456 1.5957 22.4307C1.12903 21.6157 1.13553 20.6066 1.6084 19.7988H1.60938L11.7344 2.54883C12.2064 1.74268 13.067 1.25004 13.999 1.25ZM13.999 17.75C13.8001 17.75 13.6094 17.8291 13.4688 17.9697C13.3281 18.1104 13.249 18.3011 13.249 18.5C13.249 18.6989 13.3281 18.8896 13.4688 19.0303C13.6094 19.1709 13.8001 19.25 13.999 19.25C14.1979 19.25 14.3886 19.1709 14.5293 19.0303C14.67 18.8896 14.749 18.6989 14.749 18.5C14.749 18.3011 14.67 18.1104 14.5293 17.9697C14.3886 17.8291 14.1979 17.75 13.999 17.75ZM13.999 8.75C13.7898 8.75006 13.624 8.91586 13.624 9.125V14.375C13.624 14.5841 13.7898 14.7499 13.999 14.75C14.2083 14.75 14.374 14.5842 14.374 14.375V9.125C14.374 8.91583 14.2083 8.75 13.999 8.75Z" stroke="white" style="stroke:white;stroke-opacity:1;" stroke-width="1.5"/>
</svg>
