<svg width="18" height="17" viewBox="0 0 18 17" fill="none" xmlns="http://www.w3.org/2000/svg">
<path fill-rule="evenodd" clip-rule="evenodd" d="M8.99935 0.230469C8.23796 0.230469 7.49113 0.439093 6.83997 0.833681L2.67331 3.35868C2.06059 3.72998 1.55395 4.253 1.20234 4.87721C0.850723 5.50143 0.666004 6.20577 0.666016 6.92221V12.1655C0.666016 13.2706 1.105 14.3304 1.8864 15.1118C2.6678 15.8932 3.72761 16.3322 4.83268 16.3322H13.166C14.2711 16.3322 15.3309 15.8932 16.1123 15.1118C16.8937 14.3304 17.3327 13.2706 17.3327 12.1655V6.92137C17.3325 6.20511 17.1477 5.50079 16.7961 4.87676C16.4445 4.25274 15.938 3.72989 15.3254 3.35869L11.1587 0.833688C10.5076 0.439099 9.76073 0.230469 8.99935 0.230469ZM7.70373 2.25906C8.09443 2.02231 8.54252 1.89714 8.99935 1.89714C9.45617 1.89714 9.90427 2.02231 10.295 2.25906L14.4616 4.78406C14.8292 5.00678 15.1331 5.3205 15.3441 5.69491C15.555 6.06927 15.6659 6.49168 15.666 6.92137V12.1655C15.666 12.8286 15.4026 13.4645 14.9338 13.9333C14.4649 14.4021 13.8291 14.6655 13.166 14.6655H12.3327V12.1655C12.3327 11.2815 11.9815 10.4336 11.3564 9.80852C10.7312 9.1834 9.8834 8.83221 8.99935 8.83221C8.11529 8.83221 7.26745 9.1834 6.64233 9.80852C6.0172 10.4336 5.66601 11.2815 5.66601 12.1655V14.6655H4.83268C4.16964 14.6655 3.53376 14.4021 3.06491 13.9333C2.59607 13.4645 2.33268 12.8286 2.33268 12.1655V6.92221C2.33267 6.49234 2.4435 6.06972 2.65447 5.69518C2.86544 5.32065 3.16942 5.00684 3.53706 4.78406L7.70373 2.25906ZM10.1779 10.987C10.4904 11.2996 10.666 11.7235 10.666 12.1655V14.6655H7.33268V12.1655C7.33268 11.7235 7.50828 11.2996 7.82084 10.987C8.1334 10.6745 8.55732 10.4989 8.99935 10.4989C9.44138 10.4989 9.8653 10.6745 10.1779 10.987Z" fill="white" style="fill:white;fill-opacity:1;"/>
</svg>
