<svg width="49" height="44" viewBox="0 0 49 44" fill="none" xmlns="http://www.w3.org/2000/svg">
<path d="M41 0C45.4183 0 49 3.58172 49 8V36C49 40.4183 45.4183 44 41 44H8C3.58172 44 0 40.4183 0 36V8C0 3.58172 3.58172 0 8 0H41Z" fill="#33B647" style="fill:#33B647;fill:color(display-p3 0.2000 0.7137 0.2784);fill-opacity:1;"/>
<path d="M41 0C45.4183 0 49 3.58172 49 8V36C49 40.4183 45.4183 44 41 44H8C3.58172 44 0 40.4183 0 36V8C0 3.58172 3.58172 0 8 0H41Z" stroke="#E5E7EB" style="stroke:#E5E7EB;stroke:color(display-p3 0.8980 0.9059 0.9216);stroke-opacity:1;"/>
<g clip-path="url(#clip0_840_136)">
<path d="M20.75 12C22.0761 12 23.3479 12.5268 24.2855 13.4645C25.2232 14.4021 25.75 15.6739 25.75 17C25.75 18.3261 25.2232 19.5979 24.2855 20.5355C23.3479 21.4732 22.0761 22 20.75 22C19.4239 22 18.1521 21.4732 17.2145 20.5355C16.2768 19.5979 15.75 18.3261 15.75 17C15.75 15.6739 16.2768 14.4021 17.2145 13.4645C18.1521 12.5268 19.4239 12 20.75 12ZM18.9648 23.875H22.5352C23.3398 23.875 24.1133 24.0117 24.832 24.2617C24.6172 24.9297 24.5 25.6367 24.5 26.375C24.5 28.6992 25.6523 30.7539 27.4219 32H13.1602C12.5195 32 12 31.4805 12 30.8398C12 26.9922 15.1172 23.875 18.9648 23.875ZM25.75 26.375C25.75 24.8832 26.3426 23.4524 27.3975 22.3975C28.4524 21.3426 29.8832 20.75 31.375 20.75C32.8668 20.75 34.2976 21.3426 35.3525 22.3975C36.4074 23.4524 37 24.8832 37 26.375C37 27.8668 36.4074 29.2976 35.3525 30.3525C34.2976 31.4074 32.8668 32 31.375 32C29.8832 32 28.4524 31.4074 27.3975 30.3525C26.3426 29.2976 25.75 27.8668 25.75 26.375ZM31.375 23.25C31.0312 23.25 30.75 23.5312 30.75 23.875V26.375C30.75 26.7188 31.0312 27 31.375 27H33.25C33.5938 27 33.875 26.7188 33.875 26.375C33.875 26.0312 33.5938 25.75 33.25 25.75H32V23.875C32 23.5312 31.7188 23.25 31.375 23.25Z" fill="white" style="fill:white;fill-opacity:1;"/>
</g>
<defs>
<clipPath id="clip0_840_136">
<path d="M12 12H37V32H12V12Z" fill="white" style="fill:white;fill-opacity:1;"/>
</clipPath>
</defs>
</svg>
