<svg width="15" height="15" viewBox="0 0 15 15" fill="none" xmlns="http://www.w3.org/2000/svg">
<g clip-path="url(#clip0_1283_3862)">
<g clip-path="url(#clip1_1283_3862)">
<path d="M8.23438 1.625C8.23438 1.14102 7.84336 0.75 7.35938 0.75C6.87539 0.75 6.48438 1.14102 6.48438 1.625V8.26133L4.47734 6.2543C4.13555 5.9125 3.58047 5.9125 3.23867 6.2543C2.89688 6.59609 2.89688 7.15117 3.23867 7.49297L6.73867 10.993C7.08047 11.3348 7.63555 11.3348 7.97734 10.993L11.4773 7.49297C11.8191 7.15117 11.8191 6.59609 11.4773 6.2543C11.1355 5.9125 10.5805 5.9125 10.2387 6.2543L8.23438 8.26133V1.625ZM2.10938 10.375C1.14414 10.375 0.359375 11.1598 0.359375 12.125V13C0.359375 13.9652 1.14414 14.75 2.10938 14.75H12.6094C13.5746 14.75 14.3594 13.9652 14.3594 13V12.125C14.3594 11.1598 13.5746 10.375 12.6094 10.375H9.83398L8.59531 11.6137C7.91172 12.2973 6.8043 12.2973 6.1207 11.6137L4.88477 10.375H2.10938ZM12.1719 11.9062C12.3459 11.9062 12.5128 11.9754 12.6359 12.0985C12.759 12.2215 12.8281 12.3885 12.8281 12.5625C12.8281 12.7365 12.759 12.9035 12.6359 13.0265C12.5128 13.1496 12.3459 13.2188 12.1719 13.2188C11.9978 13.2188 11.8309 13.1496 11.7078 13.0265C11.5848 12.9035 11.5156 12.7365 11.5156 12.5625C11.5156 12.3885 11.5848 12.2215 11.7078 12.0985C11.8309 11.9754 11.9978 11.9062 12.1719 11.9062Z" fill="#367BE0" style="fill:#367BE0;fill:color(display-p3 0.2118 0.4824 0.8784);fill-opacity:1;"/>
</g>
</g>
<defs>
<clipPath id="clip0_1283_3862">
<rect width="14" height="14" fill="white" style="fill:white;fill-opacity:1;" transform="translate(0.359375 0.75)"/>
</clipPath>
<clipPath id="clip1_1283_3862">
<path d="M0.359375 0.75H14.3594V14.75H0.359375V0.75Z" fill="white" style="fill:white;fill-opacity:1;"/>
</clipPath>
</defs>
</svg>
