<svg width="33" height="33" viewBox="0 0 33 33" fill="none" xmlns="http://www.w3.org/2000/svg">
<rect width="33" height="33" rx="4" fill="#9CA3AF" style="fill:#9CA3AF;fill:color(display-p3 0.6118 0.6392 0.6863);fill-opacity:1;"/>
<path d="M15.944 23.128C15.0907 23.128 14.2747 23 13.496 22.744C12.7173 22.4773 12.104 22.136 11.656 21.72L12.248 20.472C12.6747 20.8453 13.2187 21.1547 13.88 21.4C14.5413 21.6453 15.2293 21.768 15.944 21.768C16.5947 21.768 17.1227 21.6933 17.528 21.544C17.9333 21.3947 18.232 21.192 18.424 20.936C18.616 20.6693 18.712 20.3707 18.712 20.04C18.712 19.656 18.584 19.3467 18.328 19.112C18.0827 18.8773 17.7573 18.6907 17.352 18.552C16.9573 18.4027 16.52 18.2747 16.04 18.168C15.56 18.0613 15.0747 17.9387 14.584 17.8C14.104 17.6507 13.6613 17.464 13.256 17.24C12.8613 17.016 12.5413 16.7173 12.296 16.344C12.0507 15.96 11.928 15.4693 11.928 14.872C11.928 14.296 12.0773 13.768 12.376 13.288C12.6853 12.7973 13.1547 12.408 13.784 12.12C14.424 11.8213 15.2347 11.672 16.216 11.672C16.8667 11.672 17.512 11.7573 18.152 11.928C18.792 12.0987 19.3467 12.344 19.816 12.664L19.288 13.944C18.808 13.624 18.3013 13.3947 17.768 13.256C17.2347 13.1067 16.7173 13.032 16.216 13.032C15.5867 13.032 15.0693 13.112 14.664 13.272C14.2587 13.432 13.96 13.6453 13.768 13.912C13.5867 14.1787 13.496 14.4773 13.496 14.808C13.496 15.2027 13.6187 15.5173 13.864 15.752C14.12 15.9867 14.4453 16.1733 14.84 16.312C15.2453 16.4507 15.688 16.5787 16.168 16.696C16.648 16.8027 17.128 16.9253 17.608 17.064C18.0987 17.2027 18.5413 17.384 18.936 17.608C19.3413 17.832 19.6667 18.1307 19.912 18.504C20.1573 18.8773 20.28 19.3573 20.28 19.944C20.28 20.5093 20.1253 21.0373 19.816 21.528C19.5067 22.008 19.0267 22.3973 18.376 22.696C17.736 22.984 16.9253 23.128 15.944 23.128ZM15.544 24.92V9.88H16.568V24.92H15.544Z" fill="white" style="fill:white;fill-opacity:1;"/>
</svg>
