<svg width="24" height="24" viewBox="0 0 24 24" fill="none" xmlns="http://www.w3.org/2000/svg">
<g clip-path="url(#clip0_7001_9261)">
<path d="M0.0351739 16.8461C0.0351739 16.0274 0.0101287 15.2086 0.040183 14.3917C0.086934 13.1545 0.571142 12.5468 1.68816 12.3994C2.12561 12.3412 2.30928 12.1593 2.41948 11.719C2.77178 10.318 3.17751 8.93161 3.52648 7.52884C3.9272 5.91501 4.80712 4.86339 6.35158 4.57956C6.9009 4.47949 7.05952 4.15745 7.0829 3.58251C7.13132 2.34349 7.23317 2.26161 8.37857 2.25979C10.4356 2.25615 12.4943 2.25433 14.5514 2.25979C15.5799 2.26343 15.7485 2.40898 15.7452 3.497C15.7435 4.16109 15.9289 4.47949 16.5617 4.57774C18.0043 4.80153 18.8976 5.75126 19.3083 7.25593C19.689 8.6496 20.0797 10.0396 20.427 11.4424C20.5672 12.0064 20.8093 12.303 21.3654 12.4067C22.3505 12.5923 22.8163 13.1017 22.853 14.1679C22.9148 15.9528 22.8898 17.7413 22.8631 19.5279C22.853 20.2703 22.5492 20.887 21.8846 21.1891C21.5457 21.3419 21.4789 21.6093 21.4154 21.9605C21.185 23.2523 20.4504 23.9782 19.4118 23.9946C18.3232 24.0128 17.6386 23.3451 17.3381 21.9714C17.2078 21.3728 16.2695 21.1181 15.792 21.6457C15.3829 22.0988 14.9438 22.1515 14.4362 22.1515C12.4058 22.1479 10.3755 22.1479 8.34685 22.1515C7.86765 22.1515 7.46192 22.0842 7.07288 21.6603C6.51855 21.0581 5.75717 21.391 5.57518 22.2316C5.33808 23.3232 4.54164 24.0092 3.53149 23.9946C2.52801 23.9801 1.69651 23.2687 1.55124 22.1588C1.47945 21.6112 1.29411 21.3182 0.851648 21.0744C0.247223 20.7415 0.0585495 20.0847 0.0418526 19.3878C0.0201468 18.54 0.0368436 17.6903 0.0368436 16.8425L0.0351739 16.8461ZM11.5677 12.3339C13.9854 12.3339 16.4047 12.3176 18.8224 12.3467C19.3784 12.3539 19.5871 12.2684 19.3868 11.5971C18.9911 10.2743 18.6755 8.92252 18.2998 7.59252C17.9375 6.31347 17.2028 5.67485 15.9706 5.66211C12.9685 5.633 9.96644 5.63118 6.96435 5.66211C5.69706 5.67485 4.97576 6.33894 4.60676 7.67803C4.27116 8.89523 3.9823 10.1306 3.60829 11.3333C3.35784 12.1393 3.59327 12.3485 4.31457 12.3412C6.73227 12.3139 9.15163 12.3303 11.5693 12.3339H11.5677ZM1.39262 19.8318C1.49281 20.2157 1.66979 20.2375 1.83008 20.2375C3.38789 20.2466 4.94571 20.2411 6.50185 20.2502C6.95099 20.2521 7.06119 19.9519 7.08958 19.5498C7.13466 18.9057 7.49197 18.6728 8.0463 18.6746C10.2987 18.6801 12.5511 18.6783 14.8052 18.6783C15.3528 18.6783 15.7419 18.9002 15.7469 19.557C15.7519 20.1302 16.0274 20.2648 16.4932 20.2593C17.9676 20.243 19.4419 20.2557 20.9145 20.2484C21.1466 20.2484 21.4088 20.2812 21.5807 19.8318C21.2151 19.8318 20.9195 19.8318 20.6257 19.8318C19.4018 19.83 18.1779 19.8318 16.9541 19.8227C16.5967 19.819 16.2444 19.7153 16.2478 19.2441C16.2511 18.7783 16.6084 18.6855 16.9607 18.6637C17.1828 18.6491 17.4049 18.6528 17.6286 18.6528C18.7406 18.6528 19.8543 18.6328 20.9663 18.6582C21.534 18.671 21.7794 18.4308 21.7661 17.8068C21.746 16.8679 21.7661 15.9273 21.7611 14.9885C21.7561 13.6621 21.6876 13.5821 20.4971 13.5784C18.0494 13.5748 15.6016 13.5784 13.1539 13.5784C9.51062 13.5784 5.86737 13.5748 2.22413 13.5821C1.23567 13.5839 1.10878 13.7258 1.10043 14.7792C1.09208 15.749 1.13549 16.7206 1.08707 17.6885C1.047 18.4636 1.33252 18.6874 2.00707 18.6655C3.28604 18.6237 4.56502 18.651 5.844 18.6582C6.24472 18.6601 6.70388 18.7001 6.68718 19.2768C6.67383 19.7863 6.24973 19.8281 5.87071 19.83C5.09264 19.8336 4.3129 19.8318 3.53483 19.8336C2.83189 19.8336 2.13062 19.8336 1.38929 19.8336L1.39262 19.8318ZM11.3506 20.9871C12.2656 20.9871 13.1822 20.9835 14.0972 20.9889C14.4562 20.9907 14.6783 20.8688 14.6799 20.4231C14.6799 19.9882 14.4846 19.8372 14.1123 19.839C12.3641 19.8445 10.6159 19.8427 8.86779 19.839C8.48042 19.839 8.21327 19.9591 8.22997 20.4522C8.245 20.8998 8.50881 20.9907 8.85109 20.9907C9.68426 20.9871 10.5158 20.9907 11.3489 20.9907L11.3506 20.9871ZM11.3539 4.48677V4.48313C12.2706 4.48313 13.1873 4.48677 14.1039 4.48131C14.4061 4.48131 14.6566 4.39397 14.6699 3.98279C14.6816 3.58251 14.4729 3.45151 14.1473 3.45151C12.3424 3.45151 10.5375 3.45151 8.73254 3.45515C8.39193 3.45515 8.23164 3.65711 8.21494 4.01917C8.19491 4.47221 8.48376 4.48495 8.77262 4.48495C9.63417 4.48858 10.4941 4.48495 11.3556 4.48495L11.3539 4.48677Z" fill="white" style="fill:white;fill-opacity:1;"/>
<path d="M20.6057 0.0253935C21.9798 0.198239 23.7881 2.13774 23.9818 3.69153C24.0252 4.04632 24.0118 4.38655 23.6345 4.49571C23.3089 4.5885 23.1019 4.36108 23.0134 4.04632C22.5859 2.50527 21.6609 1.53006 20.2517 1.07156C19.9545 0.975132 19.7842 0.724052 19.8861 0.372903C19.9879 0.0217547 20.2501 -0.0455639 20.604 0.0272129L20.6057 0.0253935Z" fill="white" style="fill:white;fill-opacity:1;"/>
<path d="M22.6975 4.44116C22.7041 4.9597 22.6073 5.19804 22.3168 5.26536C21.9845 5.34178 21.7958 5.13073 21.694 4.81779C21.3417 3.74251 20.754 2.91649 19.7137 2.55806C19.6102 2.52167 19.5017 2.47983 19.4115 2.41615C19.2128 2.27605 19.0843 2.08137 19.1594 1.81028C19.2412 1.51371 19.4416 1.38999 19.7254 1.39363C20.8775 1.40819 22.6991 3.40409 22.6991 4.44298L22.6975 4.44116Z" fill="white" style="fill:white;fill-opacity:1;"/>
<path d="M1.83674 8.87149C2.16733 8.90788 2.63651 8.90242 2.63818 9.48099C2.63985 10.0214 2.20073 10.005 1.83507 10.025C1.52451 10.0414 1.19057 10.0523 1.12879 10.4853C1.0787 10.8292 1.32414 10.9384 1.5746 11.0348C1.88349 11.1549 2.15732 11.3568 2.01706 11.7644C1.85677 12.2301 1.47775 12.2265 1.10542 12.1192C0.394131 11.9154 -0.0934155 11.0985 0.0151138 10.3125C0.133661 9.44824 0.853294 8.86057 1.83674 8.87149Z" fill="white" style="fill:white;fill-opacity:1;"/>
<path d="M21.2635 8.8734C22.1501 8.90979 22.8229 9.49746 22.9298 10.3271C23.0233 11.064 22.5658 11.8372 21.8862 12.0847C21.5189 12.2175 21.1332 12.2539 20.9462 11.8154C20.7626 11.3806 21.0464 11.1477 21.4004 11.024C21.6575 10.933 21.8846 10.8038 21.8145 10.4618C21.751 10.1561 21.5122 10.0524 21.2451 10.0287C21.2167 10.0269 21.19 10.0251 21.1616 10.0233C20.7792 9.99598 20.3301 10.0578 20.2884 9.45379C20.2616 9.07172 20.664 8.84793 21.2635 8.87158V8.8734Z" fill="white" style="fill:white;fill-opacity:1;"/>
<path d="M21.4485 5.27999C21.4652 5.58019 21.3817 5.82763 21.1012 5.92406C20.8107 6.02413 20.5919 5.8622 20.5068 5.58201C20.2196 4.64865 19.6469 4.06643 18.7987 3.75349C18.5349 3.65706 18.4364 3.38051 18.5282 3.07849C18.6234 2.771 18.8555 2.70368 19.1276 2.7237C20.081 2.79284 21.4234 4.26839 21.4468 5.27817L21.4485 5.27999Z" fill="white" style="fill:white;fill-opacity:1;"/>
<path d="M11.5344 15.1049C10.0367 15.1049 8.53898 15.1085 7.04128 15.1031C6.67896 15.1031 6.24484 15.1158 6.2248 14.5755C6.20477 14.046 6.63054 13.9678 6.99453 13.966C10.045 13.955 13.0972 13.955 16.1477 13.966C16.5217 13.966 16.9241 14.0915 16.884 14.6155C16.8473 15.0831 16.4566 15.1031 16.1127 15.1031C14.5866 15.1049 13.0621 15.1031 11.5361 15.1031L11.5344 15.1049Z" fill="white" style="fill:white;fill-opacity:1;"/>
<path d="M11.4756 16.7551C10.0063 16.7551 8.53694 16.7588 7.06762 16.7515C6.71031 16.7515 6.25949 16.786 6.2261 16.253C6.18937 15.658 6.6719 15.618 7.05259 15.6162C10.0463 15.6016 13.0417 15.6016 16.0355 15.6125C16.4279 15.6125 16.897 15.6689 16.8787 16.242C16.862 16.7715 16.4128 16.7515 16.0505 16.7533C14.5261 16.7569 13 16.7533 11.4756 16.7533V16.7551Z" fill="white" style="fill:white;fill-opacity:1;"/>
<path d="M19.4502 16.7551C19.2565 16.7551 19.0628 16.7551 18.8692 16.7551C17.4933 16.7551 17.3614 16.5823 17.4182 15.0922C17.4466 14.3189 17.7221 13.9114 18.4718 13.9423C19.163 13.9696 19.8559 13.9205 20.5455 13.9605C21.3386 14.006 21.4572 14.2825 21.4488 15.6107C21.4438 16.3094 21.3002 16.8061 20.5288 16.757C20.1698 16.7333 19.8092 16.7533 19.4502 16.7533V16.7551Z" fill="white" style="fill:white;fill-opacity:1;"/>
<path d="M3.63504 16.7552C3.41298 16.7552 3.19091 16.7552 2.97051 16.7552C1.71157 16.7497 1.65981 16.6933 1.66482 15.3269C1.66983 14.1188 1.8034 13.9642 2.89871 13.9496C3.50815 13.9405 4.11758 13.9496 4.72702 13.9569C5.33645 13.9642 5.65202 14.2789 5.61028 14.9721C5.59525 15.2123 5.59358 15.4561 5.61028 15.6963C5.66538 16.4732 5.34814 16.817 4.63351 16.7606C4.30292 16.7352 3.96898 16.757 3.63671 16.757L3.63504 16.7552Z" fill="white" style="fill:white;fill-opacity:1;"/>
</g>
<defs>
<clipPath id="clip0_7001_9261">
<rect width="24" height="24" fill="white" style="fill:white;fill-opacity:1;"/>
</clipPath>
</defs>
</svg>
