<svg width="16" height="12" viewBox="0 0 16 12" fill="none" xmlns="http://www.w3.org/2000/svg">
<path d="M2 1.5C1.725 1.5 1.5 1.725 1.5 2V2.69062L6.89062 7.11562C7.5375 7.64687 8.46562 7.64687 9.1125 7.11562L14.5 2.69062V2C14.5 1.725 14.275 1.5 14 1.5H2ZM1.5 4.63125V10C1.5 10.275 1.725 10.5 2 10.5H14C14.275 10.5 14.5 10.275 14.5 10V4.63125L10.0625 8.275C8.8625 9.25937 7.13438 9.25937 5.9375 8.275L1.5 4.63125ZM0 2C0 0.896875 0.896875 0 2 0H14C15.1031 0 16 0.896875 16 2V10C16 11.1031 15.1031 12 14 12H2C0.896875 12 0 11.1031 0 10V2Z" fill="#367BE0" style="fill:#367BE0;fill:color(display-p3 0.2118 0.4824 0.8784);fill-opacity:1;"/>
</svg>
