<svg width="19" height="16" viewBox="0 0 19 16" fill="none" xmlns="http://www.w3.org/2000/svg">
<path d="M10.8945 1.95211C10.5801 2.09157 10.375 2.40602 10.375 2.75055V4.50055H7.3125C4.65469 4.50055 2.5 6.65524 2.5 9.31305C2.5 12.4111 4.72852 13.7947 5.23984 14.0736C5.3082 14.1119 5.38477 14.1256 5.46133 14.1256C5.75938 14.1256 6 13.8822 6 13.5869C6 13.3818 5.88242 13.1931 5.73203 13.0537C5.475 12.8103 5.125 12.3318 5.125 11.5006C5.125 10.0513 6.30078 8.87555 7.75 8.87555H10.375V10.6256C10.375 10.9701 10.5773 11.2845 10.8945 11.424C11.2117 11.5634 11.5781 11.506 11.8352 11.2763L16.2102 7.33883C16.3934 7.17204 16.5 6.93688 16.5 6.68805C16.5 6.43922 16.3961 6.20407 16.2102 6.03727L11.8352 2.09977C11.5781 1.86735 11.209 1.80993 10.8945 1.95211Z" fill="white" style="fill:white;fill-opacity:1;"/>
</svg>
