<svg width="22" height="21" viewBox="0 0 22 21" fill="none" xmlns="http://www.w3.org/2000/svg">
<path d="M12.6154 1.61538C12.6154 0.721875 11.8935 0 11 0C10.1065 0 9.38461 0.721875 9.38461 1.61538V8.88461H2.11538C1.22187 8.88461 0.5 9.60649 0.5 10.5C0.5 11.3935 1.22187 12.1154 2.11538 12.1154H9.38461V19.3846C9.38461 20.2781 10.1065 21 11 21C11.8935 21 12.6154 20.2781 12.6154 19.3846V12.1154H19.8846C20.7781 12.1154 21.5 11.3935 21.5 10.5C21.5 9.60649 20.7781 8.88461 19.8846 8.88461H12.6154V1.61538Z" fill="#9CA3AF" style="fill:#9CA3AF;fill:color(display-p3 0.6118 0.6392 0.6863);fill-opacity:1;"/>
</svg>
