<svg width="48" height="48" viewBox="0 0 48 48" fill="none" xmlns="http://www.w3.org/2000/svg">
<path d="M40 0C44.4183 0 48 3.58172 48 8V40C48 44.4183 44.4183 48 40 48H8C3.58172 48 0 44.4183 0 40V8C5.15405e-07 3.58172 3.58172 0 8 0H40Z" fill="#8B5CF6" fill-opacity="0.1" style="fill:#8B5CF6;fill:color(display-p3 0.5451 0.3608 0.9647);fill-opacity:0.1;"/>
<path d="M16.5 16C16.5 15.3086 15.9414 14.75 15.25 14.75C14.5586 14.75 14 15.3086 14 16V29.125C14 30.8516 15.3984 32.25 17.125 32.25H32.75C33.4414 32.25 34 31.6914 34 31C34 30.3086 33.4414 29.75 32.75 29.75H17.125C16.7812 29.75 16.5 29.4688 16.5 29.125V16ZM32.3828 19.3828C32.8711 18.8945 32.8711 18.1016 32.3828 17.6133C31.8945 17.125 31.1016 17.125 30.6133 17.6133L26.5 21.7305L24.2578 19.4883C23.7695 19 22.9766 19 22.4883 19.4883L18.1133 23.8633C17.625 24.3516 17.625 25.1445 18.1133 25.6328C18.6016 26.1211 19.3945 26.1211 19.8828 25.6328L23.375 22.1445L25.6172 24.3867C26.1055 24.875 26.8984 24.875 27.3867 24.3867L32.3867 19.3867L32.3828 19.3828Z" fill="#8B5CF6" style="fill:#8B5CF6;fill:color(display-p3 0.5451 0.3608 0.9647);fill-opacity:1;"/>
</svg>
