<svg width="48" height="48" viewBox="0 0 48 48" fill="none" xmlns="http://www.w3.org/2000/svg">
<path d="M40 0C44.4183 0 48 3.58172 48 8V40C48 44.4183 44.4183 48 40 48H8C3.58172 48 0 44.4183 0 40V8C5.15405e-07 3.58172 3.58172 0 8 0H40Z" fill="#06B6D4" fill-opacity="0.1" style="fill:#06B6D4;fill:color(display-p3 0.0235 0.7137 0.8314);fill-opacity:0.1;"/>

<path d="M18.1055 21.4141C18.4062 20.5625 18.8945 19.7617 19.582 19.0781C22.0234 16.6367 25.9805 16.6367 28.4219 19.0781L29.0898 19.75H27.125C26.4336 19.75 25.875 20.3086 25.875 21C25.875 21.6914 26.4336 22.25 27.125 22.25H32.1055H32.1211C32.8125 22.25 33.3711 21.6914 33.3711 21V16C33.3711 15.3086 32.8125 14.75 32.1211 14.75C31.4297 14.75 30.8711 15.3086 30.8711 16V18L30.1875 17.3125C26.7695 13.8945 21.2305 13.8945 17.8125 17.3125C16.8594 18.2656 16.1719 19.3867 15.75 20.5859C15.5195 21.2383 15.8633 21.9492 16.5117 22.1797C17.1602 22.4102 17.875 22.0664 18.1055 21.418V21.4141ZM15.5234 24.8008C15.3281 24.8594 15.1406 24.9648 14.9883 25.1211C14.832 25.2773 14.7266 25.4648 14.6719 25.668C14.6602 25.7148 14.6484 25.7656 14.6406 25.8164C14.6289 25.8828 14.625 25.9492 14.625 26.0156V31C14.625 31.6914 15.1836 32.25 15.875 32.25C16.5664 32.25 17.125 31.6914 17.125 31V29.0039L17.8125 29.6875C21.2305 33.1016 26.7695 33.1016 30.1836 29.6875C31.1367 28.7344 31.8281 27.6133 32.25 26.418C32.4805 25.7656 32.1367 25.0547 31.4883 24.8242C30.8398 24.5937 30.125 24.9375 29.8945 25.5859C29.5938 26.4375 29.1055 27.2383 28.418 27.9219C25.9766 30.3633 22.0195 30.3633 19.5781 27.9219L19.5742 27.918L18.9062 27.25H20.875C21.5664 27.25 22.125 26.6914 22.125 26C22.125 25.3086 21.5664 24.75 20.875 24.75H15.8906C15.8281 24.75 15.7656 24.7539 15.7031 24.7617C15.6406 24.7695 15.582 24.7812 15.5234 24.8008Z" fill="#06B6D4" style="fill:#06B6D4;fill:color(display-p3 0.0235 0.7137 0.8314);fill-opacity:1;"/>
</svg>
