<svg width="48" height="48" viewBox="0 0 48 48" fill="none" xmlns="http://www.w3.org/2000/svg">
<path d="M40 0C44.4183 0 48 3.58172 48 8V40C48 44.4183 44.4183 48 40 48H8C3.58172 48 0 44.4183 0 40V8C5.15405e-07 3.58172 3.58172 0 8 0H40Z" fill="#F97316" fill-opacity="0.1" style="fill:#F97316;fill:color(display-p3 0.9765 0.4510 0.0863);fill-opacity:0.1;"/>
<g clip-path="url(#clip0_555_2984)">
<path d="M20.25 13.5C20.9414 13.5 21.5 14.0586 21.5 14.75V16H26.5V14.75C26.5 14.0586 27.0586 13.5 27.75 13.5C28.4414 13.5 29 14.0586 29 14.75V16H30.875C31.9102 16 32.75 16.8398 32.75 17.875V19.75H15.25V17.875C15.25 16.8398 16.0898 16 17.125 16H19V14.75C19 14.0586 19.5586 13.5 20.25 13.5ZM15.25 21H32.75V31.625C32.75 32.6602 31.9102 33.5 30.875 33.5H17.125C16.0898 33.5 15.25 32.6602 15.25 31.625V21ZM27.1641 25.4141C27.5312 25.0469 27.5312 24.4531 27.1641 24.0898C26.7969 23.7266 26.2031 23.7227 25.8398 24.0898L24.0039 25.9258L22.168 24.0898C21.8008 23.7227 21.207 23.7227 20.8438 24.0898C20.4805 24.457 20.4766 25.0508 20.8438 25.4141L22.6797 27.25L20.8438 29.0859C20.4766 29.4531 20.4766 30.0469 20.8438 30.4102C21.2109 30.7734 21.8047 30.7773 22.168 30.4102L24.0039 28.5742L25.8398 30.4102C26.207 30.7773 26.8008 30.7773 27.1641 30.4102C27.5273 30.043 27.5312 29.4492 27.1641 29.0859L25.3281 27.25L27.1641 25.4141Z" fill="#F97316" style="fill:#F97316;fill:color(display-p3 0.9765 0.4510 0.0863);fill-opacity:1;"/>
</g>
<defs>
<clipPath id="clip0_555_2984">
<path d="M14 13.5H34V33.5H14V13.5Z" fill="white" style="fill:white;fill-opacity:1;"/>
</clipPath>
</defs>
</svg>
