<svg width="48" height="48" viewBox="0 0 48 48" fill="none" xmlns="http://www.w3.org/2000/svg">
<path d="M40 0C44.4183 0 48 3.58172 48 8V40C48 44.4183 44.4183 48 40 48H8C3.58172 48 0 44.4183 0 40V8C5.15405e-07 3.58172 3.58172 0 8 0H40Z" fill="#3B82F6" fill-opacity="0.1" style="fill:#3B82F6;fill:color(display-p3 0.2314 0.5098 0.9647);fill-opacity:0.1;"/>
<path d="M16.5 14.75C15.1211 14.75 14 15.8711 14 17.25V29.75C14 31.1289 15.1211 32.25 16.5 32.25H31.5C32.8789 32.25 34 31.1289 34 29.75V21C34 19.6211 32.8789 18.5 31.5 18.5H17.125C16.7812 18.5 16.5 18.2188 16.5 17.875C16.5 17.5312 16.7812 17.25 17.125 17.25H31.5C32.1914 17.25 32.75 16.6914 32.75 16C32.75 15.3086 32.1914 14.75 31.5 14.75H16.5ZM30.25 24.125C30.5815 24.125 30.8995 24.2567 31.1339 24.4911C31.3683 24.7255 31.5 25.0435 31.5 25.375C31.5 25.7065 31.3683 26.0245 31.1339 26.2589C30.8995 26.4933 30.5815 26.625 30.25 26.625C29.9185 26.625 29.6005 26.4933 29.3661 26.2589C29.1317 26.0245 29 25.7065 29 25.375C29 25.0435 29.1317 24.7255 29.3661 24.4911C29.6005 24.2567 29.9185 24.125 30.25 24.125Z" fill="#3B82F6" style="fill:#3B82F6;fill:color(display-p3 0.2314 0.5098 0.9647);fill-opacity:1;"/>
</svg>
