<svg width="48" height="48" viewBox="0 0 48 48" fill="none" xmlns="http://www.w3.org/2000/svg">
<rect width="48" height="48" fill="#676981" style="fill:#676981;fill:color(display-p3 0.4029 0.4099 0.5067);fill-opacity:1;"/>
<rect width="1834" height="2070" transform="translate(-693 -894)" fill="#333333" style="fill:#333333;fill:color(display-p3 0.2000 0.2000 0.2000);fill-opacity:1;"/>
<g clip-path="url(#clip0_45_150)">
<rect width="1440" height="1745" transform="translate(-570 -731)" fill="white" style="fill:white;fill-opacity:1;"/>
<g filter="url(#filter0_d_45_150)">
<path d="M-291 -12C-291 -18.6274 -285.627 -24 -279 -24H60C66.6274 -24 72 -18.6274 72 -12V110C72 116.627 66.6274 122 60 122H-279C-285.627 122 -291 116.627 -291 110V-12Z" fill="#FEF2F2" style="fill:#FEF2F2;fill:color(display-p3 0.9961 0.9490 0.9490);fill-opacity:1;"/>
<path d="M40 0C44.4183 0 48 3.58172 48 8V40C48 44.4183 44.4183 48 40 48H8C3.58172 48 0 44.4183 0 40V8C5.15405e-07 3.58172 3.58172 0 8 0H40Z" fill="#EF4444" fill-opacity="0.1" style="fill:#EF4444;fill:color(display-p3 0.9373 0.2667 0.2667);fill-opacity:0.1;"/>
<g clip-path="url(#clip1_45_150)">
<path d="M28.3438 29.6133L17.8867 19.1562C17.0117 20.3789 16.5 21.8789 16.5 23.5C16.5 27.6406 19.8594 31 24 31C25.6211 31 27.1211 30.4883 28.3438 29.6133ZM30.1133 27.8438C30.9883 26.6211 31.5 25.1211 31.5 23.5C31.5 19.3594 28.1406 16 24 16C22.3789 16 20.8789 16.5117 19.6562 17.3867L30.1133 27.8438ZM14 23.5C14 20.8478 15.0536 18.3043 16.9289 16.4289C18.8043 14.5536 21.3478 13.5 24 13.5C26.6522 13.5 29.1957 14.5536 31.0711 16.4289C32.9464 18.3043 34 20.8478 34 23.5C34 26.1522 32.9464 28.6957 31.0711 30.5711C29.1957 32.4464 26.6522 33.5 24 33.5C21.3478 33.5 18.8043 32.4464 16.9289 30.5711C15.0536 28.6957 14 26.1522 14 23.5Z" fill="#EF4444" style="fill:#EF4444;fill:color(display-p3 0.9373 0.2667 0.2667);fill-opacity:1;"/>
</g>
</g>
</g>
<defs>
<filter id="filter0_d_45_150" x="-293" y="-25" width="367" height="150" filterUnits="userSpaceOnUse" color-interpolation-filters="sRGB">
<feFlood flood-opacity="0" result="BackgroundImageFix"/>
<feColorMatrix in="SourceAlpha" type="matrix" values="0 0 0 0 0 0 0 0 0 0 0 0 0 0 0 0 0 0 127 0" result="hardAlpha"/>
<feOffset dy="1"/>
<feGaussianBlur stdDeviation="1"/>
<feColorMatrix type="matrix" values="0 0 0 0 0 0 0 0 0 0 0 0 0 0 0 0 0 0 0.05 0"/>
<feBlend mode="normal" in2="BackgroundImageFix" result="effect1_dropShadow_45_150"/>
<feBlend mode="normal" in="SourceGraphic" in2="effect1_dropShadow_45_150" result="shape"/>
</filter>
<clipPath id="clip0_45_150">
<rect width="1440" height="1745" fill="white" style="fill:white;fill-opacity:1;" transform="translate(-570 -731)"/>
</clipPath>
<clipPath id="clip1_45_150">
<path d="M14 13.5H34V33.5H14V13.5Z" fill="white" style="fill:white;fill-opacity:1;"/>
</clipPath>
</defs>
</svg>
