<svg width="48" height="48" viewBox="0 0 48 48" fill="none" xmlns="http://www.w3.org/2000/svg">
<path d="M40 0C44.4183 0 48 3.58172 48 8V40C48 44.4183 44.4183 48 40 48H8C3.58172 48 0 44.4183 0 40V8C5.15405e-07 3.58172 3.58172 0 8 0H40Z" fill="#10B981" fill-opacity="0.1" style="fill:#10B981;fill:color(display-p3 0.0627 0.7255 0.5059);fill-opacity:0.1;"/>
<g clip-path="url(#clip0_555_2954)">
<path d="M24 33.5C26.6522 33.5 29.1957 32.4464 31.0711 30.5711C32.9464 28.6957 34 26.1522 34 23.5C34 20.8478 32.9464 18.3043 31.0711 16.4289C29.1957 14.5536 26.6522 13.5 24 13.5C21.3478 13.5 18.8043 14.5536 16.9289 16.4289C15.0536 18.3043 14 20.8478 14 23.5C14 26.1522 15.0536 28.6957 16.9289 30.5711C18.8043 32.4464 21.3478 33.5 24 33.5ZM28.4141 21.6641L23.4141 26.6641C23.0469 27.0312 22.4531 27.0312 22.0898 26.6641L19.5898 24.1641C19.2227 23.7969 19.2227 23.2031 19.5898 22.8398C19.957 22.4766 20.5508 22.4727 20.9141 22.8398L22.75 24.6758L27.0859 20.3359C27.4531 19.9688 28.0469 19.9688 28.4102 20.3359C28.7734 20.7031 28.7773 21.2969 28.4102 21.6602L28.4141 21.6641Z" fill="#10B981" style="fill:#10B981;fill:color(display-p3 0.0627 0.7255 0.5059);fill-opacity:1;"/>
</g>
<defs>
<clipPath id="clip0_555_2954">
<path d="M14 13.5H34V33.5H14V13.5Z" fill="white" style="fill:white;fill-opacity:1;"/>
</clipPath>
</defs>
</svg>
