<svg width="64" height="64" viewBox="0 0 64 64" fill="none" xmlns="http://www.w3.org/2000/svg">
<path d="M32 0C49.6731 0 64 14.3269 64 32C64 49.6731 49.6731 64 32 64C14.3269 64 0 49.6731 0 32C0 14.3269 14.3269 0 32 0Z" fill="#EB5757" fill-opacity="0.2" style="fill:#EB5757;fill:color(display-p3 0.9216 0.3412 0.3412);fill-opacity:0.2;"/>
<path d="M32 0C49.6731 0 64 14.3269 64 32C64 49.6731 49.6731 64 32 64C14.3269 64 0 49.6731 0 32C0 14.3269 14.3269 0 32 0Z" stroke="#E5E7EB" style="stroke:#E5E7EB;stroke:color(display-p3 0.8980 0.9059 0.9216);stroke-opacity:1;"/>
<path d="M31.9029 19C32.7349 19 33.5025 19.4395 33.9244 20.1602L46.5806 41.7227C47.0083 42.4492 47.0083 43.3457 46.5923 44.0723C46.1763 44.7988 45.397 45.25 44.5591 45.25H19.2466C18.4087 45.25 17.6294 44.7988 17.2134 44.0723C16.7974 43.3457 16.8033 42.4434 17.2251 41.7227L29.8814 20.1602C30.3033 19.4395 31.0708 19 31.9029 19ZM31.9029 26.5C31.1236 26.5 30.4966 27.127 30.4966 27.9062V34.4688C30.4966 35.248 31.1236 35.875 31.9029 35.875C32.6822 35.875 33.3091 35.248 33.3091 34.4688V27.9062C33.3091 27.127 32.6822 26.5 31.9029 26.5ZM33.7779 39.625C33.7779 39.1277 33.5803 38.6508 33.2287 38.2992C32.8771 37.9475 32.4001 37.75 31.9029 37.75C31.4056 37.75 30.9287 37.9475 30.577 38.2992C30.2254 38.6508 30.0279 39.1277 30.0279 39.625C30.0279 40.1223 30.2254 40.5992 30.577 40.9508C30.9287 41.3025 31.4056 41.5 31.9029 41.5C32.4001 41.5 32.8771 41.3025 33.2287 40.9508C33.5803 40.5992 33.7779 40.1223 33.7779 39.625Z" fill="#E5565A" style="fill:#E5565A;fill:color(display-p3 0.8980 0.3373 0.3529);fill-opacity:1;"/>
</svg>
