<svg width="17" height="24" viewBox="0 0 17 24" fill="none" xmlns="http://www.w3.org/2000/svg">
<g clip-path="url(#clip0_2252_10687)">
<mask id="path-1-inside-1_2252_10687" fill="white">
<path d="M0 23.9982C0 23.8962 0 23.8081 0 23.7178C0 22.0306 0 20.3435 0 18.6563C0.00235522 15.8638 1.95955 13.6691 4.77168 13.3052C5.02605 13.2728 5.28748 13.2728 5.5442 13.2844C5.6384 13.289 5.74203 13.3562 5.8174 13.4234C6.61347 14.1326 7.40482 14.8464 8.19618 15.5579C8.44347 15.7803 8.55653 15.7757 8.81089 15.5463C9.60931 14.8278 10.4054 14.1071 11.2085 13.3956C11.2815 13.3331 11.3969 13.2867 11.4935 13.2844C14.52 13.2172 16.9835 15.5741 16.9953 18.5497C17.0024 20.2856 16.9953 22.0237 16.9953 23.7595C16.9953 23.8313 16.9882 23.9055 16.9835 23.9982H0ZM8.0478 21.2149C8.0478 21.289 8.04073 21.3632 8.0478 21.435C8.07606 21.6668 8.28332 21.8383 8.51413 21.829C8.73788 21.8197 8.94043 21.6529 8.94514 21.4258C8.95691 20.7073 9.27251 20.1511 9.79066 19.6598C10.37 19.1106 10.4548 18.2346 10.0521 17.5532C9.64228 16.8649 8.81796 16.5289 8.03367 16.7328C7.26586 16.9321 6.68648 17.6575 6.69825 18.4084C6.70297 18.6865 6.87254 18.8788 7.12691 18.8904C7.38598 18.9043 7.57204 18.7398 7.60973 18.464C7.61915 18.3991 7.62386 18.3342 7.63799 18.2693C7.711 17.9101 7.98421 17.6529 8.36575 17.5857C8.69548 17.5277 9.05819 17.6923 9.2419 17.9843C9.47977 18.3597 9.41854 18.7792 9.05819 19.1152C8.44347 19.6876 8.09961 20.3806 8.0478 21.2125V21.2149ZM8.48822 22.2392C8.48822 22.2392 8.48822 22.2392 8.48822 22.2369C8.41286 22.2369 8.33749 22.2322 8.26448 22.2369C8.00776 22.2554 7.82405 22.4431 7.82405 22.6818C7.82405 22.9205 8.00305 23.1129 8.25977 23.1268C8.42463 23.1361 8.59185 23.1384 8.75672 23.1268C8.98753 23.1083 9.15004 22.9252 9.15711 22.7004C9.16417 22.464 9.00166 22.2716 8.76379 22.2415C8.67429 22.2299 8.58243 22.2415 8.49058 22.2415L8.48822 22.2392Z"/>
</mask>
<path d="M0 23.9982C0 23.8962 0 23.8081 0 23.7178C0 22.0306 0 20.3435 0 18.6563C0.00235522 15.8638 1.95955 13.6691 4.77168 13.3052C5.02605 13.2728 5.28748 13.2728 5.5442 13.2844C5.6384 13.289 5.74203 13.3562 5.8174 13.4234C6.61347 14.1326 7.40482 14.8464 8.19618 15.5579C8.44347 15.7803 8.55653 15.7757 8.81089 15.5463C9.60931 14.8278 10.4054 14.1071 11.2085 13.3956C11.2815 13.3331 11.3969 13.2867 11.4935 13.2844C14.52 13.2172 16.9835 15.5741 16.9953 18.5497C17.0024 20.2856 16.9953 22.0237 16.9953 23.7595C16.9953 23.8313 16.9882 23.9055 16.9835 23.9982H0ZM8.0478 21.2149C8.0478 21.289 8.04073 21.3632 8.0478 21.435C8.07606 21.6668 8.28332 21.8383 8.51413 21.829C8.73788 21.8197 8.94043 21.6529 8.94514 21.4258C8.95691 20.7073 9.27251 20.1511 9.79066 19.6598C10.37 19.1106 10.4548 18.2346 10.0521 17.5532C9.64228 16.8649 8.81796 16.5289 8.03367 16.7328C7.26586 16.9321 6.68648 17.6575 6.69825 18.4084C6.70297 18.6865 6.87254 18.8788 7.12691 18.8904C7.38598 18.9043 7.57204 18.7398 7.60973 18.464C7.61915 18.3991 7.62386 18.3342 7.63799 18.2693C7.711 17.9101 7.98421 17.6529 8.36575 17.5857C8.69548 17.5277 9.05819 17.6923 9.2419 17.9843C9.47977 18.3597 9.41854 18.7792 9.05819 19.1152C8.44347 19.6876 8.09961 20.3806 8.0478 21.2125V21.2149ZM8.48822 22.2392C8.48822 22.2392 8.48822 22.2392 8.48822 22.2369C8.41286 22.2369 8.33749 22.2322 8.26448 22.2369C8.00776 22.2554 7.82405 22.4431 7.82405 22.6818C7.82405 22.9205 8.00305 23.1129 8.25977 23.1268C8.42463 23.1361 8.59185 23.1384 8.75672 23.1268C8.98753 23.1083 9.15004 22.9252 9.15711 22.7004C9.16417 22.464 9.00166 22.2716 8.76379 22.2415C8.67429 22.2299 8.58243 22.2415 8.49058 22.2415L8.48822 22.2392Z" stroke="white" style="stroke:white;stroke-opacity:1;" stroke-width="2" mask="url(#path-1-inside-1_2252_10687)"/>
<mask id="path-2-inside-2_2252_10687" fill="white">
<path d="M3.4646 5.22961C3.4646 4.19832 3.86499 3.31767 4.49854 2.52277C5.57959 1.16704 6.9362 0.246989 8.70497 0.0407316C9.93911 -0.102953 11.0979 0.107939 11.9552 1.08592C12.2496 1.42428 12.4239 1.86692 12.6358 2.27248C12.7536 2.49728 12.8007 2.75916 12.9326 2.97237C13.5096 3.88778 13.5662 4.8704 13.3424 5.88778C13.0598 7.18558 12.5722 8.39531 11.6749 9.41037C10.8977 10.2887 9.95088 10.8843 8.74501 10.9654C7.53443 11.0465 6.50519 10.5853 5.65967 9.76495C4.55036 8.685 3.84379 7.37561 3.52819 5.86924C3.4858 5.66298 3.4858 5.44514 3.4646 5.23424V5.22961ZM8.52833 10.0639C9.42331 10.0477 10.1534 9.65371 10.7658 9.03494C11.7314 8.06159 12.219 6.85881 12.4521 5.54015C12.5416 5.03262 12.2873 4.62938 11.9599 4.29102C11.6843 4.00365 11.291 4.00829 10.8812 4.26089C9.97679 4.81941 9.03706 4.8704 8.062 4.49496C7.71342 4.36055 7.37191 4.20759 7.03747 4.04537C6.69832 3.88082 6.34975 3.80898 5.97291 3.84838C5.52778 3.89473 5.26399 4.12416 5.17214 4.50191C5.03082 5.09056 4.87302 5.67225 4.727 6.25858C4.70345 6.34896 4.69167 6.45788 4.71993 6.54363C5.03318 7.50076 5.50893 8.3675 6.24847 9.07202C6.87967 9.67225 7.61215 10.0616 8.52597 10.0616L8.52833 10.0639Z"/>
</mask>
<path d="M3.4646 5.22961C3.4646 4.19832 3.86499 3.31767 4.49854 2.52277C5.57959 1.16704 6.9362 0.246989 8.70497 0.0407316C9.93911 -0.102953 11.0979 0.107939 11.9552 1.08592C12.2496 1.42428 12.4239 1.86692 12.6358 2.27248C12.7536 2.49728 12.8007 2.75916 12.9326 2.97237C13.5096 3.88778 13.5662 4.8704 13.3424 5.88778C13.0598 7.18558 12.5722 8.39531 11.6749 9.41037C10.8977 10.2887 9.95088 10.8843 8.74501 10.9654C7.53443 11.0465 6.50519 10.5853 5.65967 9.76495C4.55036 8.685 3.84379 7.37561 3.52819 5.86924C3.4858 5.66298 3.4858 5.44514 3.4646 5.23424V5.22961ZM8.52833 10.0639C9.42331 10.0477 10.1534 9.65371 10.7658 9.03494C11.7314 8.06159 12.219 6.85881 12.4521 5.54015C12.5416 5.03262 12.2873 4.62938 11.9599 4.29102C11.6843 4.00365 11.291 4.00829 10.8812 4.26089C9.97679 4.81941 9.03706 4.8704 8.062 4.49496C7.71342 4.36055 7.37191 4.20759 7.03747 4.04537C6.69832 3.88082 6.34975 3.80898 5.97291 3.84838C5.52778 3.89473 5.26399 4.12416 5.17214 4.50191C5.03082 5.09056 4.87302 5.67225 4.727 6.25858C4.70345 6.34896 4.69167 6.45788 4.71993 6.54363C5.03318 7.50076 5.50893 8.3675 6.24847 9.07202C6.87967 9.67225 7.61215 10.0616 8.52597 10.0616L8.52833 10.0639Z" stroke="white" style="stroke:white;stroke-opacity:1;" stroke-width="2" mask="url(#path-2-inside-2_2252_10687)"/>
<mask id="path-3-inside-3_2252_10687" fill="white">
<path d="M8.50006 15.0188C7.73461 14.3306 6.98094 13.6515 6.21313 12.9609C6.58762 12.4557 6.80901 11.9018 6.81843 11.2344C7.94893 11.677 9.05353 11.677 10.177 11.2413C10.2052 11.8879 10.4007 12.4441 10.794 12.9563C10.031 13.6423 9.27257 14.3259 8.50241 15.0188H8.50006Z"/>
</mask>
<path d="M8.50006 15.0188C7.73461 14.3306 6.98094 13.6515 6.21313 12.9609C6.58762 12.4557 6.80901 11.9018 6.81843 11.2344C7.94893 11.677 9.05353 11.677 10.177 11.2413C10.2052 11.8879 10.4007 12.4441 10.794 12.9563C10.031 13.6423 9.27257 14.3259 8.50241 15.0188H8.50006Z" stroke="white" style="stroke:white;stroke-opacity:1;" stroke-width="2" mask="url(#path-3-inside-3_2252_10687)"/>
</g>
<defs>
<clipPath id="clip0_2252_10687">
<rect width="17" height="24" fill="white" style="fill:white;fill-opacity:1;"/>
</clipPath>
</defs>
</svg>
