<svg width="20" height="22" viewBox="0 0 20 22" fill="none" xmlns="http://www.w3.org/2000/svg">
<path d="M11.9999 19C11.9999 20.6569 10.8806 22 9.49993 22C8.11931 22 7 20.6568 7 19H12H11.9999Z" fill="#0E0E0E" style="fill:#0E0E0E;fill:color(display-p3 0.0549 0.0549 0.0549);fill-opacity:1;"/>
<path d="M9.5 0.75C10.0351 0.750038 10.4531 1.17579 10.4531 1.68164C10.4531 1.71852 10.4505 1.75439 10.4463 1.78906L10.3652 2.4541L10.8418 2.56738C10.7163 3.01877 10.6485 3.49362 10.6484 3.9834C10.6484 6.89833 13.0089 9.25156 15.9238 9.31055V13.9619C15.9239 15.2368 16.6081 16.4034 17.7012 17.04L17.9248 17.1602C18.0263 17.2102 18.1081 17.2849 18.1641 17.374C18.2199 17.4631 18.25 17.5664 18.25 17.6738L18.2383 17.7871C18.1847 18.0456 17.9515 18.25 17.6572 18.25H1.34277C1.00655 18.25 0.75 17.9833 0.75 17.6738C0.75001 17.5662 0.78046 17.4636 0.835938 17.375L0.836914 17.374C0.878593 17.3075 0.934491 17.2486 1.00293 17.2021L1.0752 17.1602C1.68628 16.8593 2.18697 16.3997 2.53418 15.8457C2.88195 15.291 3.07615 14.641 3.07617 13.9619V8.7666C3.07617 5.79011 5.16143 3.28273 7.9834 2.60938L8.63574 2.45312L8.55371 1.78711C8.54982 1.75567 8.54688 1.72064 8.54688 1.68164C8.5469 1.17577 8.96488 0.75 9.5 0.75Z" stroke="#0E0E0E" style="stroke:#0E0E0E;stroke:color(display-p3 0.0549 0.0549 0.0549);stroke-opacity:1;" stroke-width="1.5"/>
<path d="M15.8987 8.0677C18.1274 8.0677 19.9341 6.26169 19.9341 4.03385C19.9341 1.80602 18.1274 0 15.8987 0C13.67 0 11.8633 1.80602 11.8633 4.03385C11.8633 6.26169 13.67 8.0677 15.8987 8.0677Z" fill="#367BE0" style="fill:#367BE0;fill:color(display-p3 0.2118 0.4824 0.8784);fill-opacity:1;"/>
<path d="M15.4854 6.03287V2.96296L14.9935 3.2188L14.6738 2.55763L15.6554 2.0332H16.3118V6.03287H15.4854Z" fill="white" style="fill:white;fill-opacity:1;"/>
</svg>
