<svg width="16" height="17" viewBox="0 0 16 17" fill="none" xmlns="http://www.w3.org/2000/svg">
<path d="M11.7676 0.500977C12.6061 0.501417 13.2521 1.18392 13.2529 2.00977C13.2549 3.9496 13.2532 5.88994 13.2529 7.8291C13.2529 7.86903 13.251 7.90423 13.249 7.92676C13.2481 7.93747 13.2466 7.94941 13.2461 7.95508C13.2458 7.95853 13.2453 7.96096 13.2451 7.96289V7.96582L13.2432 7.96484C13.2425 7.97451 13.2444 7.98442 13.2432 7.99414C13.2115 8.24387 12.9988 8.43148 12.7471 8.43164H12.7461C12.7037 8.43163 12.6624 8.42443 12.6221 8.41406V8.41602C11.6374 8.16232 10.7715 8.16652 10.0293 8.42285C9.29239 8.6774 8.63071 9.19624 8.07617 10.0566C7.56414 10.851 7.3614 11.6323 7.40234 12.3984C7.44363 13.1698 7.73403 13.9629 8.26953 14.7705C8.37123 14.9239 8.38079 15.121 8.29395 15.2832C8.20691 15.4453 8.03752 15.5467 7.85352 15.5469H2.05957C1.63005 15.5469 1.23238 15.405 0.94043 15.1104C0.649666 14.8167 0.508275 14.4164 0.501953 13.9854C0.498225 13.7257 0.500977 13.4604 0.500977 13.2129C0.500977 9.51642 0.501411 5.82027 0.5 2.12402C0.500006 1.83757 0.550013 1.54296 0.693359 1.27539C0.840836 1.00024 1.07047 0.78578 1.37402 0.643555C1.56242 0.555306 1.78094 0.504409 1.99219 0.503906H1.99316C5.25134 0.498988 8.5097 0.498951 11.7676 0.500977ZM3.27148 10.5508C3.21752 10.551 3.18075 10.5701 3.15723 10.5938C3.13345 10.6176 3.11332 10.6554 3.11328 10.71C3.11324 10.7672 3.13347 10.8042 3.15527 10.8262C3.17691 10.848 3.21421 10.8687 3.27344 10.8691C3.6931 10.872 4.11077 10.8694 4.53613 10.8691C4.96247 10.8691 5.37934 10.8716 5.79883 10.8682C5.87049 10.8675 5.92527 10.828 5.94727 10.7715L5.95801 10.7109C5.95684 10.6218 5.89076 10.5509 5.79004 10.5508C4.95063 10.5496 4.11089 10.5496 3.27148 10.5508ZM3.2998 7.34863L3.30078 7.34961C3.22891 7.34988 3.18267 7.37414 3.15723 7.39844C3.13241 7.42218 3.11402 7.45778 3.11328 7.50879C3.11253 7.57357 3.13468 7.6144 3.15723 7.6377C3.17888 7.66005 3.21727 7.68327 3.28418 7.68359C4.65287 7.68879 6.02227 7.68717 7.39258 7.68457C7.43531 7.68451 7.46132 7.67636 7.47559 7.66992C7.48808 7.66427 7.5027 7.65531 7.51953 7.63379V7.63281C7.55793 7.5836 7.56624 7.55169 7.56836 7.53613C7.57023 7.52223 7.57102 7.49496 7.54883 7.44629C7.52497 7.39399 7.50307 7.37729 7.49316 7.37109C7.48161 7.36392 7.45308 7.35104 7.3916 7.35059C6.71325 7.34598 6.03739 7.34892 5.35352 7.34863C4.66669 7.34863 3.98382 7.34632 3.2998 7.34863ZM6.83301 4.16406C5.64981 4.16406 4.46819 4.1633 3.28613 4.16504C3.21071 4.16515 3.17184 4.18997 3.15332 4.20898C3.13472 4.22809 3.11234 4.26611 3.11426 4.33691C3.11557 4.38394 3.13264 4.41557 3.15625 4.4375C3.18084 4.4603 3.22613 4.48535 3.29883 4.48535H10.3252C10.3749 4.48535 10.3785 4.48501 10.3877 4.48438C10.4164 4.48234 10.4541 4.46651 10.4844 4.4248C10.5146 4.38315 10.5223 4.3364 10.5137 4.29785C10.497 4.2236 10.4715 4.20021 10.4629 4.19336C10.454 4.18632 10.4225 4.16413 10.3389 4.16406C9.17068 4.16262 8.00239 4.16406 6.83301 4.16406Z" stroke="#0E0E0E" style="stroke:#0E0E0E;stroke:color(display-p3 0.0549 0.0549 0.0549);stroke-opacity:1;" stroke-miterlimit="10" stroke-linejoin="round"/>
<path d="M11.3379 8.26953C13.4828 8.26921 15.2317 10.0678 15.2178 12.248V12.249C15.2028 14.5018 13.4346 16.2136 11.3154 16.2109C9.33824 16.2084 7.72304 14.6794 7.48438 12.7373H7.45312V12.2373C7.45409 10.0591 9.18332 8.2702 11.3379 8.26953Z" stroke="#0E0E0E" style="stroke:#0E0E0E;stroke:color(display-p3 0.0549 0.0549 0.0549);stroke-opacity:1;" stroke-miterlimit="10"/>
</svg>
