<svg width="16" height="20" viewBox="0 0 16 20" fill="none" xmlns="http://www.w3.org/2000/svg">
<path d="M7.99013 16.096C7.15813 16.096 6.35813 15.9627 5.59013 15.696C4.83279 15.4187 4.24613 15.0667 3.83013 14.64L4.29413 13.728C4.68879 14.112 5.21679 14.4373 5.87813 14.704C6.55013 14.96 7.25413 15.088 7.99013 15.088C8.69413 15.088 9.26479 15.0027 9.70213 14.832C10.1501 14.6507 10.4755 14.4107 10.6781 14.112C10.8915 13.8133 10.9981 13.4827 10.9981 13.12C10.9981 12.6827 10.8701 12.3307 10.6141 12.064C10.3688 11.7973 10.0435 11.5893 9.63813 11.44C9.23279 11.28 8.78479 11.1413 8.29413 11.024C7.80346 10.9067 7.31279 10.784 6.82213 10.656C6.33146 10.5173 5.87813 10.336 5.46213 10.112C5.05679 9.888 4.72613 9.59467 4.47013 9.232C4.22479 8.85867 4.10213 8.37333 4.10213 7.776C4.10213 7.22133 4.24613 6.71467 4.53413 6.256C4.83279 5.78667 5.28613 5.41333 5.89413 5.136C6.50213 4.848 7.28079 4.704 8.23013 4.704C8.85946 4.704 9.48346 4.79467 10.1021 4.976C10.7208 5.14667 11.2541 5.38667 11.7021 5.696L11.3021 6.64C10.8221 6.32 10.3101 6.08533 9.76613 5.936C9.23279 5.78667 8.71546 5.712 8.21413 5.712C7.54213 5.712 6.98746 5.80267 6.55013 5.984C6.11279 6.16533 5.78746 6.41067 5.57413 6.72C5.37146 7.01867 5.27013 7.36 5.27013 7.744C5.27013 8.18133 5.39279 8.53333 5.63813 8.8C5.89413 9.06667 6.22479 9.27467 6.63013 9.424C7.04613 9.57333 7.49946 9.70667 7.99013 9.824C8.48079 9.94133 8.96613 10.0693 9.44613 10.208C9.93679 10.3467 10.3848 10.528 10.7901 10.752C11.2061 10.9653 11.5368 11.2533 11.7821 11.616C12.0381 11.9787 12.1661 12.4533 12.1661 13.04C12.1661 13.584 12.0168 14.0907 11.7181 14.56C11.4195 15.0187 10.9608 15.392 10.3421 15.68C9.73413 15.9573 8.95013 16.096 7.99013 16.096ZM7.65413 17.92V2.88H8.45413V17.92H7.65413Z" fill="#0E0E0E" style="fill:#0E0E0E;fill:color(display-p3 0.0549 0.0549 0.0549);fill-opacity:1;"/>
</svg>
