<svg width="33" height="33" viewBox="0 0 33 33" fill="none" xmlns="http://www.w3.org/2000/svg">
<rect width="33" height="33" rx="4" fill="#367BE0" style="fill:#367BE0;fill:color(display-p3 0.2118 0.4824 0.8784);fill-opacity:1;"/>
<path d="M12.65 10C11.7391 10 11 10.7279 11 11.625V21.375C11 22.2721 11.7391 23 12.65 23H13.75C14.6609 23 15.4 22.2721 15.4 21.375V11.625C15.4 10.7279 14.6609 10 13.75 10H12.65ZM19.25 10C18.3391 10 17.6 10.7279 17.6 11.625V21.375C17.6 22.2721 18.3391 23 19.25 23H20.35C21.2609 23 22 22.2721 22 21.375V11.625C22 10.7279 21.2609 10 20.35 10H19.25Z" fill="white" style="fill:white;fill-opacity:1;"/>
</svg>
