<svg width="16" height="13" viewBox="0 0 16 13" fill="none" xmlns="http://www.w3.org/2000/svg">
<path d="M1.75 0.375C0.784766 0.375 0 1.15977 0 2.125V3H15.75V2.125C15.75 1.15977 14.9652 0.375 14 0.375H1.75ZM15.75 5.625H0V10.875C0 11.8402 0.784766 12.625 1.75 12.625H14C14.9652 12.625 15.75 11.8402 15.75 10.875V5.625ZM3.0625 9.125H4.8125C5.05312 9.125 5.25 9.32187 5.25 9.5625C5.25 9.80313 5.05312 10 4.8125 10H3.0625C2.82188 10 2.625 9.80313 2.625 9.5625C2.625 9.32187 2.82188 9.125 3.0625 9.125ZM6.125 9.5625C6.125 9.32187 6.32188 9.125 6.5625 9.125H10.0625C10.3031 9.125 10.5 9.32187 10.5 9.5625C10.5 9.80313 10.3031 10 10.0625 10H6.5625C6.32188 10 6.125 9.80313 6.125 9.5625Z" fill="white" style="fill:white;fill-opacity:1;"/>
</svg>
