<svg width="17" height="16" viewBox="0 0 17 16" fill="none" xmlns="http://www.w3.org/2000/svg">
<g clip-path="url(#clip0_1755_2305)">
<path d="M16.066 0.175119C16.3816 0.393869 16.5472 0.771994 16.4878 1.15012L14.4878 14.1501C14.441 14.4532 14.2566 14.7189 13.9878 14.8689C13.7191 15.0189 13.3972 15.0376 13.1128 14.9189L9.37533 13.3657L7.2347 15.6814C6.95658 15.9845 6.51908 16.0845 6.1347 15.9345C5.75033 15.7845 5.50033 15.4126 5.50033 15.0001V12.3876C5.50033 12.2626 5.5472 12.1439 5.63158 12.0532L10.8691 6.33762C11.0503 6.14074 11.0441 5.83762 10.8566 5.65012C10.6691 5.46262 10.3659 5.45012 10.1691 5.62824L3.81283 11.2751L1.05345 9.89387C0.722201 9.72824 0.5097 9.39699 0.500325 9.02824C0.49095 8.65949 0.684701 8.31574 1.00345 8.13137L15.0035 0.131369C15.3378 -0.0592555 15.7503 -0.0405055 16.066 0.175119Z" fill="white" style="fill:white;fill-opacity:1;"/>
</g>
<defs>
<clipPath id="clip0_1755_2305">
<path d="M0.5 0H16.5V16H0.5V0Z" fill="white" style="fill:white;fill-opacity:1;"/>
</clipPath>
</defs>
</svg>
