<svg width="64" height="64" viewBox="0 0 64 64" fill="none" xmlns="http://www.w3.org/2000/svg">
<path d="M32 0C49.6731 0 64 14.3269 64 32C64 49.6731 49.6731 64 32 64C14.3269 64 0 49.6731 0 32C0 14.3269 14.3269 0 32 0Z" fill="#367BE0" fill-opacity="0.2" style="fill:#367BE0;fill:color(display-p3 0.2118 0.4824 0.8784);fill-opacity:0.2;"/>
<path d="M32 0C49.6731 0 64 14.3269 64 32C64 49.6731 49.6731 64 32 64C14.3269 64 0 49.6731 0 32C0 14.3269 14.3269 0 32 0Z" stroke="#E5E7EB" style="stroke:#E5E7EB;stroke:color(display-p3 0.8980 0.9059 0.9216);stroke-opacity:1;"/>
<path d="M15.9076 32.0464C15.7551 23.257 23.1981 15.8907 32.067 16.0012C40.7611 16.1118 47.951 23.2483 47.9051 32.0231C47.8592 40.68 41.0676 48.042 31.7916 47.9998C22.443 47.9591 15.7906 40.2479 15.9076 32.0464ZM27.785 31.9794C27.785 33.8927 27.7821 35.8074 27.785 37.7206C27.7895 39.3022 27.637 39.1698 29.2523 39.1727C30.2651 39.1741 30.268 39.1698 30.268 38.1513C30.268 34.2506 30.2739 30.3513 30.2665 26.4506C30.2636 24.7745 30.4842 24.9535 28.6556 24.9113C27.9657 24.8953 27.7613 25.1499 27.7717 25.8017C27.8028 27.8605 27.7836 29.9192 27.7836 31.9794H27.785ZM33.7178 32.0551C33.7178 33.9436 33.7134 35.8336 33.7178 37.7221C33.7223 39.3007 33.5565 39.1552 35.1925 39.1596C36.1993 39.1625 36.2023 39.1567 36.2023 38.1338C36.2023 34.2593 36.2082 30.3848 36.1993 26.5088C36.1949 24.7775 36.4288 24.9419 34.5766 24.9011C33.8718 24.8851 33.6971 25.1703 33.706 25.8076C33.7341 27.8896 33.7164 29.9731 33.7164 32.0551H33.7178Z" fill="#367BE0" style="fill:#367BE0;fill:color(display-p3 0.2118 0.4824 0.8784);fill-opacity:1;"/>
</svg>
