<svg width="33" height="33" viewBox="0 0 33 33" fill="none" xmlns="http://www.w3.org/2000/svg">
<rect width="33" height="33" rx="4" fill="#367BE0" style="fill:#367BE0;fill:color(display-p3 0.2118 0.4824 0.8784);fill-opacity:1;"/>
<path d="M22.501 9.15039C22.9712 9.1505 23.3506 9.53076 23.3506 10.001V14.001C23.3505 14.4711 22.9711 14.8505 22.501 14.8506H18.501C18.0308 14.8506 17.6505 14.4712 17.6504 14.001C17.6504 13.5307 18.0307 13.1504 18.501 13.1504H20.4346L19.6416 12.3574C17.6299 10.3457 14.3691 10.3457 12.3574 12.3574C10.3457 14.3691 10.3457 17.6299 12.3574 19.6416C14.3691 21.653 17.63 21.6532 19.6416 19.6416C19.9736 19.3096 20.5127 19.3096 20.8447 19.6416C21.1766 19.9737 21.1767 20.5127 20.8447 20.8447C18.169 23.5205 13.833 23.5203 11.1572 20.8447C8.48143 18.1689 8.48143 13.833 11.1572 11.1572C13.833 8.48143 18.1689 8.48143 20.8447 11.1572L21.6504 11.9629V10.001C21.6504 9.53069 22.0307 9.15039 22.501 9.15039Z" fill="white" stroke="#367BE0" style="fill:white;fill-opacity:1;stroke:#367BE0;stroke:color(display-p3 0.2118 0.4824 0.8784);stroke-opacity:1;" stroke-width="0.3"/>
</svg>
