<svg width="64" height="64" viewBox="0 0 64 64" fill="none" xmlns="http://www.w3.org/2000/svg">
<path d="M32 0C49.6731 0 64 14.3269 64 32C64 49.6731 49.6731 64 32 64C14.3269 64 0 49.6731 0 32C0 14.3269 14.3269 0 32 0Z" fill="#367BE0" fill-opacity="0.2" style="fill:#367BE0;fill:color(display-p3 0.2118 0.4824 0.8784);fill-opacity:0.2;"/>
<path d="M32 0C49.6731 0 64 14.3269 64 32C64 49.6731 49.6731 64 32 64C14.3269 64 0 49.6731 0 32C0 14.3269 14.3269 0 32 0Z" stroke="#E5E7EB" style="stroke:#E5E7EB;stroke:color(display-p3 0.8980 0.9059 0.9216);stroke-opacity:1;"/>
<path d="M23.5459 23.6221C28.2016 18.9933 35.7467 18.9933 40.4023 23.6221L41.3506 24.5645L41.6064 24.8184V21.7158C41.6064 20.8514 42.3091 20.1514 43.1807 20.1514C44.0521 20.1516 44.7539 20.8515 44.7539 21.7158V28.5723C44.7537 29.4364 44.0519 30.1355 43.1807 30.1357H36.2842C35.4127 30.1357 34.7102 29.4365 34.71 28.5723C34.71 27.7078 35.4126 27.0078 36.2842 27.0078H39.3574L39.0996 26.751L38.1729 25.8301C34.7471 22.4242 29.1953 22.4241 25.7695 25.8301C22.3433 29.2366 22.3433 34.7586 25.7695 38.165C29.1952 41.5707 34.7471 41.5706 38.1729 38.165C38.7878 37.5536 39.7874 37.5536 40.4023 38.165C41.0164 38.7759 41.0164 39.7671 40.4023 40.3779C35.7467 45.0067 28.2016 45.0067 23.5459 40.3779C18.8909 35.7496 18.8909 28.2504 23.5459 23.6221Z" fill="#367BE0" stroke="#367BE0" style="fill:#367BE0;fill:color(display-p3 0.2118 0.4824 0.8784);fill-opacity:1;stroke:#367BE0;stroke:color(display-p3 0.2118 0.4824 0.8784);stroke-opacity:1;" stroke-width="0.3"/>
</svg>
