<svg width="44" height="44" viewBox="0 0 44 44" fill="none" xmlns="http://www.w3.org/2000/svg">
<path d="M36 0C40.4183 0 44 3.58172 44 8V36C44 40.4183 40.4183 44 36 44H8C3.58172 44 0 40.4183 0 36V8C0 3.58172 3.58172 0 8 0H36Z" fill="#FB8C00" fill-opacity="0.2" style="fill:#FB8C00;fill:color(display-p3 0.9843 0.5490 0.0000);fill-opacity:0.2;"/>
<path d="M36 0C40.4183 0 44 3.58172 44 8V36C44 40.4183 40.4183 44 36 44H8C3.58172 44 0 40.4183 0 36V8C0 3.58172 3.58172 0 8 0H36Z" stroke="#E5E7EB" style="stroke:#E5E7EB;stroke:color(display-p3 0.8980 0.9059 0.9216);stroke-opacity:1;"/>
<path d="M12 16.8296V27.721C12 28.3538 12.3551 28.9514 12.9492 29.1729C16.0078 30.3155 19.0664 29.535 22.125 28.7546C24.9305 28.0409 27.7359 27.3237 30.5379 28.0901C31.3465 28.3116 32.25 27.7561 32.25 26.9159V16.028C32.25 15.3952 31.8949 14.7975 31.3008 14.5761C28.2422 13.4335 25.1836 14.2139 22.125 14.9944C19.3195 15.7081 16.5141 16.4218 13.7121 15.6554C12.9 15.4339 12 15.9893 12 16.8296ZM22.125 25.2495C20.5711 25.2495 19.3125 23.7378 19.3125 21.8745C19.3125 20.0112 20.5711 18.4995 22.125 18.4995C23.6789 18.4995 24.9375 20.0112 24.9375 21.8745C24.9375 23.7378 23.6789 25.2495 22.125 25.2495ZM14.25 25.2495C15.491 25.2495 16.5 26.2585 16.5 27.4995H14.25V25.2495ZM16.5 17.937C16.5 19.178 15.491 20.187 14.25 20.187V17.937H16.5ZM30 23.562V25.812H27.75C27.75 24.571 28.759 23.562 30 23.562ZM27.75 16.2495H30V18.4995C28.759 18.4995 27.75 17.4905 27.75 16.2495Z" fill="#FB8C00" style="fill:#FB8C00;fill:color(display-p3 0.9843 0.5490 0.0000);fill-opacity:1;"/>
</svg>
