<svg width="44" height="44" viewBox="0 0 44 44" fill="none" xmlns="http://www.w3.org/2000/svg">
<path d="M36 0C40.4183 0 44 3.58172 44 8V36C44 40.4183 40.4183 44 36 44H8C3.58172 44 0 40.4183 0 36V8C0 3.58172 3.58172 0 8 0H36Z" fill="#367BE0" fill-opacity="0.2" style="fill:#367BE0;fill:color(display-p3 0.2118 0.4824 0.8784);fill-opacity:0.2;"/>
<path d="M36 0C40.4183 0 44 3.58172 44 8V36C44 40.4183 40.4183 44 36 44H8C3.58172 44 0 40.4183 0 36V8C0 3.58172 3.58172 0 8 0H36Z" stroke="#E5E7EB" style="stroke:#E5E7EB;stroke:color(display-p3 0.8980 0.9059 0.9216);stroke-opacity:1;"/>
<path d="M15.25 15.125C15.25 14.5027 14.7473 14 14.125 14C13.5027 14 13 14.5027 13 15.125V26.9375C13 28.4914 14.2586 29.75 15.8125 29.75H29.875C30.4973 29.75 31 29.2473 31 28.625C31 28.0027 30.4973 27.5 29.875 27.5H15.8125C15.5031 27.5 15.25 27.2469 15.25 26.9375V15.125ZM29.5445 18.1695C29.984 17.7301 29.984 17.0164 29.5445 16.577C29.1051 16.1375 28.3914 16.1375 27.952 16.577L24.25 20.2824L22.232 18.2645C21.7926 17.825 21.0789 17.825 20.6395 18.2645L16.702 22.202C16.2625 22.6414 16.2625 23.3551 16.702 23.7945C17.1414 24.234 17.8551 24.234 18.2945 23.7945L21.4375 20.6551L23.4555 22.673C23.8949 23.1125 24.6086 23.1125 25.048 22.673L29.548 18.173L29.5445 18.1695Z" fill="#367BE0" style="fill:#367BE0;fill:color(display-p3 0.2118 0.4824 0.8784);fill-opacity:1;"/>
</svg>
