<svg width="44" height="44" viewBox="0 0 44 44" fill="none" xmlns="http://www.w3.org/2000/svg">
<path d="M36 0C40.4183 0 44 3.58172 44 8V36C44 40.4183 40.4183 44 36 44H8C3.58172 44 0 40.4183 0 36V8C0 3.58172 3.58172 0 8 0H36Z" fill="#33B647" fill-opacity="0.2" style="fill:#33B647;fill:color(display-p3 0.2000 0.7137 0.2784);fill-opacity:0.2;"/>
<path d="M36 0C40.4183 0 44 3.58172 44 8V36C44 40.4183 40.4183 44 36 44H8C3.58172 44 0 40.4183 0 36V8C0 3.58172 3.58172 0 8 0H36Z" stroke="#E5E7EB" style="stroke:#E5E7EB;stroke:color(display-p3 0.8980 0.9059 0.9216);stroke-opacity:1;"/>
<path d="M16.0625 13C16.8084 13 17.5238 13.2963 18.0512 13.8238C18.5787 14.3512 18.875 15.0666 18.875 15.8125C18.875 16.5584 18.5787 17.2738 18.0512 17.8012C17.5238 18.3287 16.8084 18.625 16.0625 18.625C15.3166 18.625 14.6012 18.3287 14.0738 17.8012C13.5463 17.2738 13.25 16.5584 13.25 15.8125C13.25 15.0666 13.5463 14.3512 14.0738 13.8238C14.6012 13.2963 15.3166 13 16.0625 13ZM29 13C29.7459 13 30.4613 13.2963 30.9887 13.8238C31.5162 14.3512 31.8125 15.0666 31.8125 15.8125C31.8125 16.5584 31.5162 17.2738 30.9887 17.8012C30.4613 18.3287 29.7459 18.625 29 18.625C28.2541 18.625 27.5387 18.3287 27.0113 17.8012C26.4838 17.2738 26.1875 16.5584 26.1875 15.8125C26.1875 15.0666 26.4838 14.3512 27.0113 13.8238C27.5387 13.2963 28.2541 13 29 13ZM11 23.5012C11 21.4305 12.6805 19.75 14.7512 19.75H16.2523C16.8113 19.75 17.3422 19.873 17.8203 20.091C17.7746 20.3441 17.7535 20.6078 17.7535 20.875C17.7535 22.218 18.3441 23.4238 19.2758 24.25C19.2688 24.25 19.2617 24.25 19.2512 24.25H11.7488C11.3375 24.25 11 23.9125 11 23.5012ZM25.2488 24.25C25.2418 24.25 25.2348 24.25 25.2242 24.25C26.1594 23.4238 26.7465 22.218 26.7465 20.875C26.7465 20.6078 26.7219 20.3477 26.6797 20.091C27.1578 19.8695 27.6887 19.75 28.2477 19.75H29.7488C31.8195 19.75 33.5 21.4305 33.5 23.5012C33.5 23.916 33.1625 24.25 32.7512 24.25H25.2488ZM18.875 20.875C18.875 19.9799 19.2306 19.1214 19.8635 18.4885C20.4965 17.8556 21.3549 17.5 22.25 17.5C23.1451 17.5 24.0036 17.8556 24.6365 18.4885C25.2694 19.1214 25.625 19.9799 25.625 20.875C25.625 21.7701 25.2694 22.6286 24.6365 23.2615C24.0036 23.8944 23.1451 24.25 22.25 24.25C21.3549 24.25 20.4965 23.8944 19.8635 23.2615C19.2306 22.6286 18.875 21.7701 18.875 20.875ZM15.5 30.0613C15.5 27.4738 17.5988 25.375 20.1863 25.375H24.3137C26.9012 25.375 29 27.4738 29 30.0613C29 30.5781 28.5816 31 28.0613 31H16.4387C15.9219 31 15.5 30.5816 15.5 30.0613Z" fill="#33B647" style="fill:#33B647;fill:color(display-p3 0.2000 0.7137 0.2784);fill-opacity:1;"/>
</svg>
