<svg width="44" height="44" viewBox="0 0 44 44" fill="none" xmlns="http://www.w3.org/2000/svg">
<path d="M36 0C40.4183 0 44 3.58172 44 8V36C44 40.4183 40.4183 44 36 44H8C3.58172 44 0 40.4183 0 36V8C0 3.58172 3.58172 0 8 0H36Z" fill="#0D9488" fill-opacity="0.2" style="fill:#0D9488;fill:color(display-p3 0.0510 0.5804 0.5333);fill-opacity:0.2;"/>
<path d="M36 0C40.4183 0 44 3.58172 44 8V36C44 40.4183 40.4183 44 36 44H8C3.58172 44 0 40.4183 0 36V8C0 3.58172 3.58172 0 8 0H36Z" stroke="#E5E7EB" style="stroke:#E5E7EB;stroke:color(display-p3 0.8980 0.9059 0.9216);stroke-opacity:1;"/>
<path d="M29 34H14V10H29V34Z" stroke="#E5E7EB" style="stroke:#E5E7EB;stroke:color(display-p3 0.8980 0.9059 0.9216);stroke-opacity:1;"/>
<g clip-path="url(#clip0_4946_4478)">
<path d="M15.875 11.5C14.8398 11.5 14 12.3398 14 13.375V29.625C14 30.6602 14.8398 31.5 15.875 31.5H19.625V28.375C19.625 27.3398 20.4648 26.5 21.5 26.5C22.5352 26.5 23.375 27.3398 23.375 28.375V31.5H27.125C28.1602 31.5 29 30.6602 29 29.625V13.375C29 12.3398 28.1602 11.5 27.125 11.5H15.875ZM16.5 20.875C16.5 20.5312 16.7812 20.25 17.125 20.25H18.375C18.7188 20.25 19 20.5312 19 20.875V22.125C19 22.4688 18.7188 22.75 18.375 22.75H17.125C16.7812 22.75 16.5 22.4688 16.5 22.125V20.875ZM20.875 20.25H22.125C22.4688 20.25 22.75 20.5312 22.75 20.875V22.125C22.75 22.4688 22.4688 22.75 22.125 22.75H20.875C20.5312 22.75 20.25 22.4688 20.25 22.125V20.875C20.25 20.5312 20.5312 20.25 20.875 20.25ZM24 20.875C24 20.5312 24.2812 20.25 24.625 20.25H25.875C26.2188 20.25 26.5 20.5312 26.5 20.875V22.125C26.5 22.4688 26.2188 22.75 25.875 22.75H24.625C24.2812 22.75 24 22.4688 24 22.125V20.875ZM17.125 15.25H18.375C18.7188 15.25 19 15.5312 19 15.875V17.125C19 17.4688 18.7188 17.75 18.375 17.75H17.125C16.7812 17.75 16.5 17.4688 16.5 17.125V15.875C16.5 15.5312 16.7812 15.25 17.125 15.25ZM20.25 15.875C20.25 15.5312 20.5312 15.25 20.875 15.25H22.125C22.4688 15.25 22.75 15.5312 22.75 15.875V17.125C22.75 17.4688 22.4688 17.75 22.125 17.75H20.875C20.5312 17.75 20.25 17.4688 20.25 17.125V15.875ZM24.625 15.25H25.875C26.2188 15.25 26.5 15.5312 26.5 15.875V17.125C26.5 17.4688 26.2188 17.75 25.875 17.75H24.625C24.2812 17.75 24 17.4688 24 17.125V15.875C24 15.5312 24.2812 15.25 24.625 15.25Z" fill="#0D9488" style="fill:#0D9488;fill:color(display-p3 0.0510 0.5804 0.5333);fill-opacity:1;"/>
</g>
<defs>
<clipPath id="clip0_4946_4478">
<path d="M14 11.5H29V31.5H14V11.5Z" fill="white" style="fill:white;fill-opacity:1;"/>
</clipPath>
</defs>
</svg>
