<svg width="44" height="44" viewBox="0 0 44 44" fill="none" xmlns="http://www.w3.org/2000/svg">
<path d="M36 0C40.4183 0 44 3.58172 44 8V36C44 40.4183 40.4183 44 36 44H8C3.58172 44 0 40.4183 0 36V8C0 3.58172 3.58172 0 8 0H36Z" fill="#EA580C" fill-opacity="0.2" style="fill:#EA580C;fill:color(display-p3 0.9176 0.3451 0.0471);fill-opacity:0.2;"/>
<path d="M36 0C40.4183 0 44 3.58172 44 8V36C44 40.4183 40.4183 44 36 44H8C3.58172 44 0 40.4183 0 36V8C0 3.58172 3.58172 0 8 0H36Z" stroke="#E5E7EB" style="stroke:#E5E7EB;stroke:color(display-p3 0.8980 0.9059 0.9216);stroke-opacity:1;"/>
<path d="M22 13C24.3869 13 26.6761 13.9482 28.364 15.636C30.0518 17.3239 31 19.6131 31 22C31 24.3869 30.0518 26.6761 28.364 28.364C26.6761 30.0518 24.3869 31 22 31C19.6131 31 17.3239 30.0518 15.636 28.364C13.9482 26.6761 13 24.3869 13 22C13 19.6131 13.9482 17.3239 15.636 15.636C17.3239 13.9482 19.6131 13 22 13ZM21.1562 17.2188V22C21.1562 22.2812 21.2969 22.5449 21.5324 22.7031L24.9074 24.9531C25.2941 25.2133 25.818 25.1078 26.0781 24.7176C26.3383 24.3273 26.2328 23.807 25.8426 23.5469L22.8438 21.55V17.2188C22.8438 16.7512 22.4676 16.375 22 16.375C21.5324 16.375 21.1562 16.7512 21.1562 17.2188Z" fill="#EA580C" style="fill:#EA580C;fill:color(display-p3 0.9176 0.3451 0.0471);fill-opacity:1;"/>
</svg>
