<svg width="44" height="44" viewBox="0 0 44 44" fill="none" xmlns="http://www.w3.org/2000/svg">
<path d="M36 0C40.4183 0 44 3.58172 44 8V36C44 40.4183 40.4183 44 36 44H8C3.58172 44 0 40.4183 0 36V8C0 3.58172 3.58172 0 8 0H36Z" fill="#FB8C00" fill-opacity="0.1" style="fill:#FB8C00;fill:color(display-p3 0.9843 0.5490 0.0000);fill-opacity:0.1;"/>
<path d="M36 0C40.4183 0 44 3.58172 44 8V36C44 40.4183 40.4183 44 36 44H8C3.58172 44 0 40.4183 0 36V8C0 3.58172 3.58172 0 8 0H36Z" stroke="#E5E7EB" style="stroke:#E5E7EB;stroke:color(display-p3 0.8980 0.9059 0.9216);stroke-opacity:1;"/>
<path d="M21.9991 12C21.288 12 20.7134 12.5586 20.7134 13.25V14C17.7804 14.5781 15.5706 17.1016 15.5706 20.125V20.8594C15.5706 22.6953 14.8755 24.4688 13.622 25.8438L13.3247 26.168C12.9872 26.5352 12.9068 27.0625 13.1117 27.5117C13.3166 27.9609 13.7787 28.25 14.2849 28.25H29.7133C30.2195 28.25 30.6776 27.9609 30.8865 27.5117C31.0954 27.0625 31.011 26.5352 30.6736 26.168L30.3762 25.8438C29.1227 24.4688 28.4276 22.6992 28.4276 20.8594V20.125C28.4276 17.1016 26.2178 14.5781 23.2848 14V13.25C23.2848 12.5586 22.7103 12 21.9991 12ZM23.8192 31.2695C24.3013 30.8008 24.5705 30.1641 24.5705 29.5H21.9991H19.4277C19.4277 30.1641 19.6969 30.8008 20.179 31.2695C20.6612 31.7383 21.3161 32 21.9991 32C22.6821 32 23.337 31.7383 23.8192 31.2695Z" fill="#FB8C00" style="fill:#FB8C00;fill:color(display-p3 0.9843 0.5490 0.0000);fill-opacity:1;"/>
</svg>
