<svg width="44" height="44" viewBox="0 0 44 44" fill="none" xmlns="http://www.w3.org/2000/svg">
<path d="M36 0C40.4183 0 44 3.58172 44 8V36C44 40.4183 40.4183 44 36 44H8C3.58172 44 0 40.4183 0 36V8C0 3.58172 3.58172 0 8 0H36Z" fill="#367BE0" fill-opacity="0.2" style="fill:#367BE0;fill:color(display-p3 0.2118 0.4824 0.8784);fill-opacity:0.2;"/>
<path d="M36 0C40.4183 0 44 3.58172 44 8V36C44 40.4183 40.4183 44 36 44H8C3.58172 44 0 40.4183 0 36V8C0 3.58172 3.58172 0 8 0H36Z" stroke="#E5E7EB" style="stroke:#E5E7EB;stroke:color(display-p3 0.8980 0.9059 0.9216);stroke-opacity:1;"/>
<path d="M22.0332 12C22.7668 12 23.3595 12.5586 23.3595 13.25V14.6445C23.4258 14.6523 23.488 14.6602 23.5543 14.6719C23.5709 14.6758 23.5833 14.6758 23.5999 14.6797L25.5893 15.0234C26.3105 15.1484 26.7871 15.8008 26.6545 16.4766C26.5219 17.1523 25.8297 17.6055 25.1127 17.4805L23.144 17.1406C21.8467 16.9609 20.7027 17.082 19.8987 17.3828C19.0946 17.6836 18.7713 18.0977 18.6967 18.4805C18.6138 18.8984 18.676 19.1328 18.7464 19.2773C18.821 19.4297 18.9744 19.6016 19.277 19.793C19.9525 20.2109 20.9887 20.4844 22.3316 20.8203L22.4518 20.8516C23.6372 21.1484 25.0878 21.5078 26.1654 22.1719C26.754 22.5352 27.3094 23.0273 27.6534 23.7148C28.0057 24.4141 28.0803 25.1953 27.9186 26.0273C27.6327 27.5117 26.5467 28.5039 25.1997 29.0234C24.6319 29.2422 24.0143 29.3828 23.3595 29.4531V30.75C23.3595 31.4414 22.7668 32 22.0332 32C21.2996 32 20.7069 31.4414 20.7069 30.75V29.3867C20.6903 29.3828 20.6696 29.3828 20.653 29.3789H20.6447C19.6334 29.2305 17.9714 28.8203 16.8523 28.3516C16.185 28.0703 15.8825 27.332 16.1809 26.7031C16.4793 26.0742 17.2626 25.7891 17.9299 26.0703C18.7962 26.4336 20.2219 26.793 21.0467 26.9141C22.3689 27.0977 23.459 26.9922 24.1967 26.707C24.8972 26.4375 25.2163 26.0469 25.3075 25.5781C25.3862 25.1641 25.3241 24.9258 25.2536 24.7812C25.1749 24.625 25.0215 24.4531 24.7148 24.2617C24.0351 23.8438 22.9947 23.5703 21.6477 23.2344L21.5317 23.207C20.3504 22.9102 18.8998 22.5469 17.8222 21.8828C17.2336 21.5195 16.6824 21.0234 16.3384 20.3359C15.9902 19.6367 15.9198 18.8555 16.0855 18.0234C16.384 16.5312 17.5693 15.5625 18.9164 15.0586C19.4676 14.8516 20.0727 14.7109 20.7069 14.6289V13.25C20.7069 12.5586 21.2996 12 22.0332 12Z" fill="#367BE0" style="fill:#367BE0;fill:color(display-p3 0.2118 0.4824 0.8784);fill-opacity:1;"/>
</svg>
