<svg width="44" height="44" viewBox="0 0 44 44" fill="none" xmlns="http://www.w3.org/2000/svg">
<path d="M36 0C40.4183 0 44 3.58172 44 8V36C44 40.4183 40.4183 44 36 44H8C3.58172 44 0 40.4183 0 36V8C0 3.58172 3.58172 0 8 0H36Z" fill="#6B7280" fill-opacity="0.2" style="fill:#6B7280;fill:color(display-p3 0.4196 0.4471 0.5020);fill-opacity:0.2;"/>
<path d="M36 0C40.4183 0 44 3.58172 44 8V36C44 40.4183 40.4183 44 36 44H8C3.58172 44 0 40.4183 0 36V8C0 3.58172 3.58172 0 8 0H36Z" stroke="#E5E7EB" style="stroke:#E5E7EB;stroke:color(display-p3 0.8980 0.9059 0.9216);stroke-opacity:1;"/>
<path d="M30.7569 22.6785C32.7433 20.6922 32.7433 17.4754 30.7569 15.489C28.9991 13.7312 26.2288 13.5027 24.2073 14.9476L24.1511 14.9863C23.6448 15.3484 23.5288 16.0515 23.8909 16.5543C24.253 17.057 24.9562 17.1765 25.4589 16.8144L25.5151 16.7758C26.6437 15.9707 28.187 16.0973 29.1644 17.0781C30.2718 18.1855 30.2718 19.9785 29.1644 21.0859L25.2198 25.0375C24.1124 26.1449 22.3194 26.1449 21.212 25.0375C20.2312 24.0566 20.1046 22.5133 20.9097 21.3883L20.9483 21.332C21.3104 20.8258 21.1909 20.1226 20.6882 19.764C20.1854 19.4055 19.4788 19.5215 19.1202 20.0242L19.0815 20.0805C17.6331 22.0984 17.8616 24.8687 19.6194 26.6265C21.6058 28.6129 24.8226 28.6129 26.8089 26.6265L30.7569 22.6785ZM12.4897 21.8558C10.5034 23.8422 10.5034 27.059 12.4897 29.0453C14.2476 30.8031 17.0179 31.0316 19.0394 29.5867L19.0956 29.548C19.6019 29.1859 19.7179 28.4828 19.3558 27.9801C18.9937 27.4773 18.2905 27.3578 17.7878 27.7199L17.7315 27.7586C16.603 28.5637 15.0597 28.4371 14.0823 27.4562C12.9749 26.3453 12.9749 24.5523 14.0823 23.4449L18.0269 19.4969C19.1343 18.3894 20.9272 18.3894 22.0347 19.4969C23.0155 20.4777 23.1421 22.0211 22.337 23.1496L22.2983 23.2058C21.9362 23.7121 22.0558 24.4152 22.5585 24.7738C23.0612 25.1324 23.7679 25.0164 24.1265 24.5137L24.1651 24.4574C25.6136 22.4359 25.3851 19.6656 23.6272 17.9078C21.6409 15.9215 18.4241 15.9215 16.4378 17.9078L12.4897 21.8558Z" fill="#6B7280" style="fill:#6B7280;fill:color(display-p3 0.4196 0.4471 0.5020);fill-opacity:1;"/>
</svg>
