<svg width="44" height="44" viewBox="0 0 44 44" fill="none" xmlns="http://www.w3.org/2000/svg">
<path d="M36 0C40.4183 0 44 3.58172 44 8V36C44 40.4183 40.4183 44 36 44H8C3.58172 44 0 40.4183 0 36V8C0 3.58172 3.58172 0 8 0H36Z" fill="#F59E0B" fill-opacity="0.2" style="fill:#F59E0B;fill:color(display-p3 0.9608 0.6196 0.0431);fill-opacity:0.2;"/>
<path d="M36 0C40.4183 0 44 3.58172 44 8V36C44 40.4183 40.4183 44 36 44H8C3.58172 44 0 40.4183 0 36V8C0 3.58172 3.58172 0 8 0H36Z" stroke="#E5E7EB" style="stroke:#E5E7EB;stroke:color(display-p3 0.8980 0.9059 0.9216);stroke-opacity:1;"/>
<path d="M26.0625 13H18.1875C17.2559 13 16.4965 13.7664 16.5316 14.6945C16.5387 14.8809 16.5457 15.0672 16.5563 15.25H12.8438C12.3762 15.25 12 15.6262 12 16.0938C12 19.3492 13.1777 21.6133 14.7598 23.1496C16.3172 24.6648 18.2156 25.4277 19.6148 25.8145C20.4375 26.043 21 26.7285 21 27.4176C21 28.1523 20.4023 28.75 19.6676 28.75H18.75C18.1277 28.75 17.625 29.2527 17.625 29.875C17.625 30.4973 18.1277 31 18.75 31H25.5C26.1223 31 26.625 30.4973 26.625 29.875C26.625 29.2527 26.1223 28.75 25.5 28.75H24.5824C23.8477 28.75 23.25 28.1523 23.25 27.4176C23.25 26.7285 23.809 26.0395 24.6352 25.8145C26.0379 25.4277 27.9363 24.6648 29.4937 23.1496C31.0723 21.6133 32.25 19.3492 32.25 16.0938C32.25 15.6262 31.8738 15.25 31.4062 15.25H27.6937C27.7043 15.0672 27.7113 14.8844 27.7184 14.6945C27.7535 13.7664 26.9941 13 26.0625 13ZM13.7191 16.9375H16.6863C17.0062 20.1051 17.7129 22.2215 18.5109 23.6383C17.6355 23.2516 16.725 22.7066 15.9375 21.9402C14.8125 20.8469 13.8984 19.2684 13.7227 16.9375H13.7191ZM28.316 21.9402C27.5285 22.7066 26.618 23.2516 25.7426 23.6383C26.5406 22.2215 27.2473 20.1051 27.5672 16.9375H30.5344C30.3551 19.2684 29.441 20.8469 28.3195 21.9402H28.316Z" fill="#F59E0B" style="fill:#F59E0B;fill:color(display-p3 0.9608 0.6196 0.0431);fill-opacity:1;"/>
</svg>
