<svg width="44" height="44" viewBox="0 0 44 44" fill="none" xmlns="http://www.w3.org/2000/svg">
<path d="M36 0C40.4183 0 44 3.58172 44 8V36C44 40.4183 40.4183 44 36 44H8C3.58172 44 0 40.4183 0 36V8C0 3.58172 3.58172 0 8 0H36Z" fill="#367BE0" fill-opacity="0.2" style="fill:#367BE0;fill:color(display-p3 0.2118 0.4824 0.8784);fill-opacity:0.2;"/>
<path d="M36 0C40.4183 0 44 3.58172 44 8V36C44 40.4183 40.4183 44 36 44H8C3.58172 44 0 40.4183 0 36V8C0 3.58172 3.58172 0 8 0H36Z" stroke="#E5E7EB" style="stroke:#E5E7EB;stroke:color(display-p3 0.8980 0.9059 0.9216);stroke-opacity:1;"/>
<path d="M21.5 22C20.2118 22 18.9764 21.4732 18.0655 20.5355C17.1546 19.5979 16.6429 18.3261 16.6429 17C16.6429 15.6739 17.1546 14.4021 18.0655 13.4645C18.9764 12.5268 20.2118 12 21.5 12C22.7882 12 24.0236 12.5268 24.9345 13.4645C25.8454 14.4021 26.3571 15.6739 26.3571 17C26.3571 18.3261 25.8454 19.5979 24.9345 20.5355C24.0236 21.4732 22.7882 22 21.5 22ZM20.9346 26.0312L20.2288 24.8203C19.9859 24.4023 20.2781 23.875 20.7487 23.875H21.5H22.2475C22.7181 23.875 23.0103 24.4062 22.7674 24.8203L22.0616 26.0312L23.329 30.8711L24.6951 25.1328C24.771 24.8164 25.067 24.6094 25.3743 24.6914C28.0344 25.3789 30 27.8555 30 30.8008C30 31.4648 29.4763 32 28.835 32H23.8337C23.754 32 23.6819 31.9844 23.6136 31.957L23.625 32H19.375L19.3864 31.957C19.3181 31.9844 19.2422 32 19.1663 32H14.165C13.5237 32 13 31.4609 13 30.8008C13 27.8516 14.9694 25.375 17.6257 24.6914C17.933 24.6133 18.229 24.8203 18.3049 25.1328L19.671 30.8711L20.9384 26.0312H20.9346Z" fill="#367BE0" style="fill:#367BE0;fill:color(display-p3 0.2118 0.4824 0.8784);fill-opacity:1;"/>
</svg>
