<svg width="40" height="44" viewBox="0 0 40 44" fill="none" xmlns="http://www.w3.org/2000/svg">
<path d="M32 0C36.4183 0 40 3.58172 40 8V36C40 40.4183 36.4183 44 32 44H8C3.58172 44 0 40.4183 0 36V8C0 3.58172 3.58172 0 8 0H32Z" fill="#A855F7" fill-opacity="0.1" style="fill:#A855F7;fill:color(display-p3 0.6588 0.3333 0.9686);fill-opacity:0.1;"/>
<path d="M32 0C36.4183 0 40 3.58172 40 8V36C40 40.4183 36.4183 44 32 44H8C3.58172 44 0 40.4183 0 36V8C0 3.58172 3.58172 0 8 0H32Z" stroke="#E5E7EB" style="stroke:#E5E7EB;stroke:color(display-p3 0.8980 0.9059 0.9216);stroke-opacity:1;"/>
<path d="M19.9991 12C19.288 12 18.7134 12.5586 18.7134 13.25V14C15.7804 14.5781 13.5706 17.1016 13.5706 20.125V20.8594C13.5706 22.6953 12.8755 24.4688 11.622 25.8438L11.3247 26.168C10.9872 26.5352 10.9068 27.0625 11.1117 27.5117C11.3166 27.9609 11.7787 28.25 12.2849 28.25H27.7133C28.2195 28.25 28.6776 27.9609 28.8865 27.5117C29.0954 27.0625 29.011 26.5352 28.6736 26.168L28.3762 25.8438C27.1227 24.4688 26.4276 22.6992 26.4276 20.8594V20.125C26.4276 17.1016 24.2178 14.5781 21.2848 14V13.25C21.2848 12.5586 20.7103 12 19.9991 12ZM21.8192 31.2695C22.3013 30.8008 22.5705 30.1641 22.5705 29.5H19.9991H17.4277C17.4277 30.1641 17.6969 30.8008 18.179 31.2695C18.6612 31.7383 19.3161 32 19.9991 32C20.6821 32 21.337 31.7383 21.8192 31.2695Z" fill="#A855F7" style="fill:#A855F7;fill:color(display-p3 0.6588 0.3333 0.9686);fill-opacity:1;"/>
</svg>
