<svg width="40" height="44" viewBox="0 0 40 44" fill="none" xmlns="http://www.w3.org/2000/svg">
<path d="M32 0C36.4183 0 40 3.58172 40 8V36C40 40.4183 36.4183 44 32 44H8C3.58172 44 0 40.4183 0 36V8C0 3.58172 3.58172 0 8 0H32Z" fill="#F97316" fill-opacity="0.1" style="fill:#F97316;fill:color(display-p3 0.9765 0.4510 0.0863);fill-opacity:0.1;"/>
<path d="M32 0C36.4183 0 40 3.58172 40 8V36C40 40.4183 36.4183 44 32 44H8C3.58172 44 0 40.4183 0 36V8C0 3.58172 3.58172 0 8 0H32Z" stroke="#E5E7EB" style="stroke:#E5E7EB;stroke:color(display-p3 0.8980 0.9059 0.9216);stroke-opacity:1;"/>
<path d="M19.9977 12C16.3508 12 13.4306 13.6429 11.3047 15.5982C9.19243 17.5357 7.77971 19.8571 7.11171 21.4509C6.96276 21.8036 6.96276 22.1964 7.11171 22.5491C7.77971 24.1429 9.19243 26.4643 11.3047 28.4018C13.4306 30.3571 16.3508 32 19.9977 32C23.6446 32 26.5649 30.3571 28.6907 28.4018C30.8031 26.4598 32.2158 24.1429 32.8883 22.5491C33.0372 22.1964 33.0372 21.8036 32.8883 21.4509C32.2158 19.8571 30.8031 17.5357 28.6907 15.5982C26.5649 13.6429 23.6446 12 19.9977 12ZM13.4983 22C13.4983 20.295 14.1831 18.6599 15.4019 17.4543C16.6208 16.2487 18.274 15.5714 19.9977 15.5714C21.7215 15.5714 23.3747 16.2487 24.5935 17.4543C25.8124 18.6599 26.4972 20.295 26.4972 22C26.4972 23.705 25.8124 25.3401 24.5935 26.5457C23.3747 27.7513 21.7215 28.4286 19.9977 28.4286C18.274 28.4286 16.6208 27.7513 15.4019 26.5457C14.1831 25.3401 13.4983 23.705 13.4983 22ZM19.9977 19.1429C19.9977 20.7188 18.7024 22 17.1091 22C16.7886 22 16.4817 21.9464 16.1929 21.8527C15.9446 21.7723 15.6558 21.9241 15.6648 22.183C15.6783 22.4911 15.7235 22.7991 15.8092 23.1071C16.4276 25.3929 18.8062 26.75 21.1171 26.1384C23.428 25.5268 24.8001 23.1741 24.1818 20.8884C23.6808 19.0357 22.0243 17.7902 20.1828 17.7143C19.921 17.7054 19.7676 17.9866 19.8488 18.2366C19.9436 18.5223 19.9977 18.8259 19.9977 19.1429Z" fill="#F97316" style="fill:#F97316;fill:color(display-p3 0.9765 0.4510 0.0863);fill-opacity:1;"/>
</svg>
