<svg width="40" height="44" viewBox="0 0 40 44" fill="none" xmlns="http://www.w3.org/2000/svg">
<path d="M32 0C36.4183 0 40 3.58172 40 8V36C40 40.4183 36.4183 44 32 44H8C3.58172 44 0 40.4183 0 36V8C0 3.58172 3.58172 0 8 0H32Z" fill="#22C55E" fill-opacity="0.1" style="fill:#22C55E;fill:color(display-p3 0.1333 0.7725 0.3686);fill-opacity:0.1;"/>
<path d="M32 0C36.4183 0 40 3.58172 40 8V36C40 40.4183 36.4183 44 32 44H8C3.58172 44 0 40.4183 0 36V8C0 3.58172 3.58172 0 8 0H32Z" stroke="#E5E7EB" style="stroke:#E5E7EB;stroke:color(display-p3 0.8980 0.9059 0.9216);stroke-opacity:1;"/>
<path d="M30 36H9V7H30V36Z" stroke="#E5E7EB" style="stroke:#E5E7EB;stroke:color(display-p3 0.8980 0.9059 0.9216);stroke-opacity:1;"/>
<path d="M30 33H9V9H30V33Z" stroke="#E5E7EB" style="stroke:#E5E7EB;stroke:color(display-p3 0.8980 0.9059 0.9216);stroke-opacity:1;"/>
<path d="M24.7143 19.5714C27.0804 19.5714 29 17.6518 29 15.2857C29 12.9196 27.0804 11 24.7143 11C22.3482 11 20.4286 12.9196 20.4286 15.2857C20.4286 15.4643 20.4375 15.6429 20.4598 15.817L16.2589 17.9152C15.4911 17.1696 14.442 16.7143 13.2857 16.7143C10.9196 16.7143 9 18.6339 9 21C9 23.3661 10.9196 25.2857 13.2857 25.2857C14.442 25.2857 15.4911 24.8304 16.2589 24.0848L20.4598 26.183C20.4375 26.3571 20.4286 26.5312 20.4286 26.7143C20.4286 29.0804 22.3482 31 24.7143 31C27.0804 31 29 29.0804 29 26.7143C29 24.3482 27.0804 22.4286 24.7143 22.4286C23.558 22.4286 22.5089 22.8839 21.7411 23.6295L17.5402 21.5312C17.5625 21.3571 17.5714 21.183 17.5714 21C17.5714 20.817 17.5625 20.6429 17.5402 20.4688L21.7411 18.3705C22.5089 19.1161 23.558 19.5714 24.7143 19.5714Z" fill="#22C55E" style="fill:#22C55E;fill:color(display-p3 0.1333 0.7725 0.3686);fill-opacity:1;"/>
</svg>
