<svg width="40" height="44" viewBox="0 0 40 44" fill="none" xmlns="http://www.w3.org/2000/svg">
<path d="M32 0C36.4183 0 40 3.58172 40 8V36C40 40.4183 36.4183 44 32 44H8C3.58172 44 0 40.4183 0 36V8C0 3.58172 3.58172 0 8 0H32Z" fill="#367BE0" fill-opacity="0.1" style="fill:#367BE0;fill:color(display-p3 0.2118 0.4824 0.8784);fill-opacity:0.1;"/>
<path d="M32 0C36.4183 0 40 3.58172 40 8V36C40 40.4183 36.4183 44 32 44H8C3.58172 44 0 40.4183 0 36V8C0 3.58172 3.58172 0 8 0H32Z" stroke="#E5E7EB" style="stroke:#E5E7EB;stroke:color(display-p3 0.8980 0.9059 0.9216);stroke-opacity:1;"/>
<g clip-path="url(#clip0_2161_2785)">
<path d="M12.625 12C13.4538 12 14.2487 12.3292 14.8347 12.9153C15.4208 13.5013 15.75 14.2962 15.75 15.125C15.75 15.9538 15.4208 16.7487 14.8347 17.3347C14.2487 17.9208 13.4538 18.25 12.625 18.25C11.7962 18.25 11.0013 17.9208 10.4153 17.3347C9.82924 16.7487 9.5 15.9538 9.5 15.125C9.5 14.2962 9.82924 13.5013 10.4153 12.9153C11.0013 12.3292 11.7962 12 12.625 12ZM27 12C27.8288 12 28.6237 12.3292 29.2097 12.9153C29.7958 13.5013 30.125 14.2962 30.125 15.125C30.125 15.9538 29.7958 16.7487 29.2097 17.3347C28.6237 17.9208 27.8288 18.25 27 18.25C26.1712 18.25 25.3763 17.9208 24.7903 17.3347C24.2042 16.7487 23.875 15.9538 23.875 15.125C23.875 14.2962 24.2042 13.5013 24.7903 12.9153C25.3763 12.3292 26.1712 12 27 12ZM7 23.668C7 21.3672 8.86719 19.5 11.168 19.5H12.8359C13.457 19.5 14.0469 19.6367 14.5781 19.8789C14.5273 20.1602 14.5039 20.4531 14.5039 20.75C14.5039 22.2422 15.1602 23.582 16.1953 24.5C16.1875 24.5 16.1797 24.5 16.168 24.5H7.83203C7.375 24.5 7 24.125 7 23.668ZM22.832 24.5C22.8242 24.5 22.8164 24.5 22.8047 24.5C23.8438 23.582 24.4961 22.2422 24.4961 20.75C24.4961 20.4531 24.4688 20.1641 24.4219 19.8789C24.9531 19.6328 25.543 19.5 26.1641 19.5H27.832C30.1328 19.5 32 21.3672 32 23.668C32 24.1289 31.625 24.5 31.168 24.5H22.832ZM15.75 20.75C15.75 19.7554 16.1451 18.8016 16.8483 18.0983C17.5516 17.3951 18.5054 17 19.5 17C20.4946 17 21.4484 17.3951 22.1517 18.0983C22.8549 18.8016 23.25 19.7554 23.25 20.75C23.25 21.7446 22.8549 22.6984 22.1517 23.4017C21.4484 24.1049 20.4946 24.5 19.5 24.5C18.5054 24.5 17.5516 24.1049 16.8483 23.4017C16.1451 22.6984 15.75 21.7446 15.75 20.75ZM12 30.957C12 28.082 14.332 25.75 17.207 25.75H21.793C24.668 25.75 27 28.082 27 30.957C27 31.5312 26.5352 32 25.957 32H13.043C12.4688 32 12 31.5352 12 30.957Z" fill="#367BE0" style="fill:#367BE0;fill:color(display-p3 0.2118 0.4824 0.8784);fill-opacity:1;"/>
</g>
<defs>
<clipPath id="clip0_2161_2785">
<path d="M7 12H32V32H7V12Z" fill="white" style="fill:white;fill-opacity:1;"/>
</clipPath>
</defs>
</svg>
