<svg width="16" height="16" viewBox="0 0 16 16" fill="none" xmlns="http://www.w3.org/2000/svg">
<path d="M9.59375 1.08813C9.23438 1.2475 9 1.60688 9 2.00063V4.00063H5.5C2.4625 4.00063 0 6.46313 0 9.50063C0 13.0413 2.54688 14.6225 3.13125 14.9413C3.20937 14.985 3.29688 15.0006 3.38438 15.0006C3.725 15.0006 4 14.7225 4 14.385C4 14.1506 3.86562 13.935 3.69375 13.7756C3.4 13.4975 3 12.9506 3 12.0006C3 10.3444 4.34375 9.00063 6 9.00063H9V11.0006C9 11.3944 9.23125 11.7538 9.59375 11.9131C9.95625 12.0725 10.375 12.0069 10.6687 11.7444L15.6687 7.24438C15.8781 7.05375 16 6.785 16 6.50063C16 6.21625 15.8812 5.9475 15.6687 5.75688L10.6687 1.25688C10.375 0.991255 9.95312 0.92563 9.59375 1.08813Z" fill="#22C55E" style="fill:#22C55E;fill:color(display-p3 0.1333 0.7725 0.3686);fill-opacity:1;"/>
</svg>
