<svg width="48" height="48" viewBox="0 0 48 48" fill="none" xmlns="http://www.w3.org/2000/svg">
<path d="M40 0C44.4183 0 48 3.58172 48 8V40C48 44.4183 44.4183 48 40 48H8C3.58172 48 0 44.4183 0 40V8C5.15405e-07 3.58172 3.58172 0 8 0H40Z" fill="#06B6D4" fill-opacity="0.1" style="fill:#06B6D4;fill:color(display-p3 0.0235 0.7137 0.8314);fill-opacity:0.1;"/>
<path d="M40 0C44.4183 0 48 3.58172 48 8V40C48 44.4183 44.4183 48 40 48H8C3.58172 48 0 44.4183 0 40V8C5.15405e-07 3.58172 3.58172 0 8 0H40Z" stroke="#E5E7EB" style="stroke:#E5E7EB;stroke:color(display-p3 0.8980 0.9059 0.9216);stroke-opacity:1;"/>
<path d="M34 38H14V10H34V38Z" stroke="#E5E7EB" style="stroke:#E5E7EB;stroke:color(display-p3 0.8980 0.9059 0.9216);stroke-opacity:1;"/>
<path d="M34 33.5H14V13.5H34V33.5Z" stroke="#E5E7EB" style="stroke:#E5E7EB;stroke:color(display-p3 0.8980 0.9059 0.9216);stroke-opacity:1;"/>
<path d="M18.1055 21.415C18.4062 20.5635 18.8945 19.7627 19.582 19.0791C22.0234 16.6377 25.9805 16.6377 28.4219 19.0791L29.0898 19.751H27.125C26.4336 19.751 25.875 20.3096 25.875 21.001C25.875 21.6924 26.4336 22.251 27.125 22.251H32.1055H32.1211C32.8125 22.251 33.3711 21.6924 33.3711 21.001V16.001C33.3711 15.3096 32.8125 14.751 32.1211 14.751C31.4297 14.751 30.8711 15.3096 30.8711 16.001V18.001L30.1875 17.3135C26.7695 13.8955 21.2305 13.8955 17.8125 17.3135C16.8594 18.2666 16.1719 19.3877 15.75 20.5869C15.5195 21.2393 15.8633 21.9502 16.5117 22.1807C17.1602 22.4111 17.875 22.0674 18.1055 21.4189V21.415ZM15.5234 24.8018C15.3281 24.8604 15.1406 24.9658 14.9883 25.1221C14.832 25.2783 14.7266 25.4658 14.6719 25.6689C14.6602 25.7158 14.6484 25.7666 14.6406 25.8174C14.6289 25.8838 14.625 25.9502 14.625 26.0166V31.001C14.625 31.6924 15.1836 32.251 15.875 32.251C16.5664 32.251 17.125 31.6924 17.125 31.001V29.0049L17.8125 29.6885C21.2305 33.1025 26.7695 33.1025 30.1836 29.6885C31.1367 28.7354 31.8281 27.6143 32.25 26.4189C32.4805 25.7666 32.1367 25.0557 31.4883 24.8252C30.8398 24.5947 30.125 24.9385 29.8945 25.5869C29.5938 26.4385 29.1055 27.2393 28.418 27.9229C25.9766 30.3643 22.0195 30.3643 19.5781 27.9229L19.5742 27.9189L18.9062 27.251H20.875C21.5664 27.251 22.125 26.6924 22.125 26.001C22.125 25.3096 21.5664 24.751 20.875 24.751H15.8906C15.8281 24.751 15.7656 24.7549 15.7031 24.7627C15.6406 24.7705 15.582 24.7822 15.5234 24.8018Z" fill="#06B6D4" style="fill:#06B6D4;fill:color(display-p3 0.0235 0.7137 0.8314);fill-opacity:1;"/>
</svg>
