<svg width="48" height="48" viewBox="0 0 48 48" fill="none" xmlns="http://www.w3.org/2000/svg">
<path d="M40 0C44.4183 0 48 3.58172 48 8V40C48 44.4183 44.4183 48 40 48H8C3.58172 48 0 44.4183 0 40V8C5.15405e-07 3.58172 3.58172 0 8 0H40Z" fill="#367BE0" fill-opacity="0.2" style="fill:#367BE0;fill:color(display-p3 0.2118 0.4824 0.8784);fill-opacity:0.2;"/>
<path d="M40 0C44.4183 0 48 3.58172 48 8V40C48 44.4183 44.4183 48 40 48H8C3.58172 48 0 44.4183 0 40V8C5.15405e-07 3.58172 3.58172 0 8 0H40Z" stroke="#E5E7EB" style="stroke:#E5E7EB;stroke:color(display-p3 0.8980 0.9059 0.9216);stroke-opacity:1;"/>
<g clip-path="url(#clip0_5745_2255)">
<path d="M6.67639 35.0013C6.33082 35.0013 6.05613 34.7907 6.00888 34.4931C5.95867 34.1786 6.1536 33.9118 6.53461 33.822C7.78398 33.5244 9.02744 33.2183 10.2591 32.8589C18.7447 30.3683 26.2823 26.294 32.8629 20.6192C33.1169 20.4002 33.1228 20.2766 32.8658 20.0913C32.7329 19.993 32.6177 19.8723 32.5114 19.7487C32.089 19.2658 32.2367 18.8277 32.8747 18.6649C33.8051 18.429 34.7355 18.2016 35.6658 17.9713C37.1485 17.6035 38.6312 17.23 40.1169 16.865C40.7608 16.7078 41.1388 17.0672 40.9587 17.6793C40.2912 19.9649 39.6207 22.2506 38.9414 24.5334C38.7494 25.1736 38.2443 25.2831 37.7452 24.817C37.4409 24.5334 37.1958 24.0252 36.8325 24.0111C36.5017 23.9999 36.1561 24.4183 35.8194 24.6485C29.6848 28.8408 22.9536 31.8059 15.6287 33.5581C12.7106 34.2572 9.75107 34.7177 6.75613 35.0013C6.72955 35.0013 6.70297 35.0041 6.67934 35.0069L6.67639 35.0013Z" fill="#367BE0" style="fill:#367BE0;fill:color(display-p3 0.2118 0.4824 0.8784);fill-opacity:1;"/>
<path d="M22.8827 26.1635C22.8827 26.0119 22.8827 25.8911 22.8827 25.7704C22.8827 21.7944 22.8827 17.8212 22.8827 13.8452C22.8827 13.1601 23.0511 13 23.7836 13C25.2958 13 26.8051 13 28.3173 13C28.9346 13 29.1355 13.1909 29.1355 13.775C29.1355 16.4369 29.1355 19.0988 29.1355 21.7635C29.1355 21.9432 29.1236 22.0892 28.9494 22.2156C27.0473 23.6251 25.0802 24.9392 23.0156 26.1242C22.995 26.1354 22.9684 26.1382 22.8798 26.1607L22.8827 26.1635Z" fill="#367BE0" style="fill:#367BE0;fill:color(display-p3 0.2118 0.4824 0.8784);fill-opacity:1;"/>
<path d="M15.3777 29.7869C15.3777 29.4949 15.3777 29.2225 15.3777 28.953C15.3777 25.4992 15.3777 22.0455 15.3777 18.5946C15.3777 17.9291 15.552 17.7606 16.249 17.7578C17.7731 17.7578 19.2942 17.7578 20.8182 17.7578C21.4296 17.7578 21.6305 17.9544 21.6305 18.5412C21.6305 21.2284 21.6305 23.9128 21.6305 26.5999C21.6305 26.7796 21.6216 26.92 21.4207 27.0295C19.498 28.046 17.5309 28.9726 15.5018 29.7785C15.4811 29.7869 15.4515 29.7841 15.3748 29.7925L15.3777 29.7869Z" fill="#367BE0" style="fill:#367BE0;fill:color(display-p3 0.2118 0.4824 0.8784);fill-opacity:1;"/>
<path d="M14.1253 26.6229C14.1253 27.7489 14.1194 28.8777 14.1312 30.0036C14.1312 30.2339 14.0662 30.349 13.827 30.4332C11.978 31.0987 10.0996 31.6828 8.1945 32.1882C7.94345 32.2556 7.8637 32.2303 7.86666 31.9607C7.87552 29.0377 7.86961 26.1147 7.87552 23.1916C7.87552 22.7283 8.10294 22.5177 8.59915 22.5177C10.2029 22.5149 11.8038 22.5149 13.4076 22.5177C13.8949 22.5177 14.1224 22.7367 14.1253 23.2029C14.1312 24.3429 14.1253 25.4829 14.1253 26.6229Z" fill="#367BE0" style="fill:#367BE0;fill:color(display-p3 0.2118 0.4824 0.8784);fill-opacity:1;"/>
</g>
<defs>
<clipPath id="clip0_5745_2255">
<rect width="35" height="22" fill="white" style="fill:white;fill-opacity:1;" transform="translate(6 13)"/>
</clipPath>
</defs>
</svg>
