<svg width="27" height="24" viewBox="0 0 27 24" fill="none" xmlns="http://www.w3.org/2000/svg">
<path d="M21.4375 5.60742H21.4082C22.1897 5.80972 22.816 6.43116 22.9961 7.24023L23.0312 7.44238V7.44336L23.3633 10.1211L23.4248 10.5215C23.5919 11.4512 23.9288 12.344 24.4199 13.1562V13.1572C25.2899 14.5998 25.7499 16.2514 25.75 17.9326V20.5713C25.75 21.7801 24.7674 22.75 23.5625 22.75H17.8125C16.6076 22.75 15.625 21.7801 15.625 20.5713V14.1787H11.375V20.5713C11.375 21.7801 10.3924 22.75 9.1875 22.75H3.4375C2.23258 22.75 1.25 21.7801 1.25 20.5713V17.9326C1.25008 16.2514 1.71013 14.5998 2.58008 13.1572V13.1562C3.14129 12.228 3.50163 11.1946 3.63672 10.1211L3.97363 7.44238C4.08746 6.53742 4.74655 5.82665 5.59375 5.60742H5.5625V3.42871C5.5625 2.21992 6.54508 1.25 7.75 1.25H9.1875C10.3924 1.25 11.375 2.21992 11.375 3.42871V5.53613H15.625V3.42871C15.625 2.21992 16.6076 1.25 17.8125 1.25H19.25C20.4549 1.25 21.4375 2.21992 21.4375 3.42871V5.60742Z" stroke="white" style="stroke:white;stroke-opacity:1;" stroke-width="1.5"/>
</svg>
