<svg width="49" height="48" viewBox="0 0 49 48" fill="none" xmlns="http://www.w3.org/2000/svg">
<path d="M24.3203 0C37.5751 0 48.3203 10.7452 48.3203 24C48.3203 37.2548 37.5751 48 24.3203 48C11.0655 48 0.320312 37.2548 0.320312 24C0.320312 10.7452 11.0655 0 24.3203 0Z" fill="#E8F3FF" style="fill:#E8F3FF;fill:color(display-p3 0.9098 0.9529 1.0000);fill-opacity:1;"/>
<path d="M24.3203 0C37.5751 0 48.3203 10.7452 48.3203 24C48.3203 37.2548 37.5751 48 24.3203 48C11.0655 48 0.320312 37.2548 0.320312 24C0.320312 10.7452 11.0655 0 24.3203 0Z" stroke="#E5E7EB" style="stroke:#E5E7EB;stroke:color(display-p3 0.8980 0.9059 0.9216);stroke-opacity:1;"/>
<path d="M15 18.5H33C33 17.3969 32.1031 16.5 31 16.5H17C15.8969 16.5 15 17.3969 15 18.5ZM15 19.5V28.5C15 29.6031 15.8969 30.5 17 30.5H31C32.1031 30.5 33 29.6031 33 28.5V19.5H15ZM17 28.1656C17 27.2437 17.7469 26.5 18.6656 26.5H22.3344C23.2563 26.5 24 27.2469 24 28.1656C24 28.35 23.85 28.5 23.6656 28.5H17.3344C17.15 28.5 17 28.35 17 28.1656ZM20.5 21.5C21.0304 21.5 21.5391 21.7107 21.9142 22.0858C22.2893 22.4609 22.5 22.9696 22.5 23.5C22.5 24.0304 22.2893 24.5391 21.9142 24.9142C21.5391 25.2893 21.0304 25.5 20.5 25.5C19.9696 25.5 19.4609 25.2893 19.0858 24.9142C18.7107 24.5391 18.5 24.0304 18.5 23.5C18.5 22.9696 18.7107 22.4609 19.0858 22.0858C19.4609 21.7107 19.9696 21.5 20.5 21.5ZM26 22C26 21.725 26.225 21.5 26.5 21.5H30.5C30.775 21.5 31 21.725 31 22C31 22.275 30.775 22.5 30.5 22.5H26.5C26.225 22.5 26 22.275 26 22ZM26 24C26 23.725 26.225 23.5 26.5 23.5H30.5C30.775 23.5 31 23.725 31 24C31 24.275 30.775 24.5 30.5 24.5H26.5C26.225 24.5 26 24.275 26 24ZM26 26C26 25.725 26.225 25.5 26.5 25.5H30.5C30.775 25.5 31 25.725 31 26C31 26.275 30.775 26.5 30.5 26.5H26.5C26.225 26.5 26 26.275 26 26Z" fill="#367BE0" style="fill:#367BE0;fill:color(display-p3 0.2118 0.4824 0.8784);fill-opacity:1;"/>
</svg>
