<svg width="49" height="48" viewBox="0 0 49 48" fill="none" xmlns="http://www.w3.org/2000/svg">
<path d="M24.3203 0C37.5751 0 48.3203 10.7452 48.3203 24C48.3203 37.2548 37.5751 48 24.3203 48C11.0655 48 0.320312 37.2548 0.320312 24C0.320312 10.7452 11.0655 0 24.3203 0Z" fill="#E8F3FF" style="fill:#E8F3FF;fill:color(display-p3 0.9098 0.9529 1.0000);fill-opacity:1;"/>
<path d="M24.3203 0C37.5751 0 48.3203 10.7452 48.3203 24C48.3203 37.2548 37.5751 48 24.3203 48C11.0655 48 0.320312 37.2548 0.320312 24C0.320312 10.7452 11.0655 0 24.3203 0Z" stroke="#E5E7EB" style="stroke:#E5E7EB;stroke:color(display-p3 0.8980 0.9059 0.9216);stroke-opacity:1;"/>
<g clip-path="url(#clip0_878_4331)">
<path d="M9.03006 23.1357C9.16177 22.8316 9.463 22.8148 9.7222 22.7349C11.3559 22.2292 13.0358 21.9587 14.7297 21.7794C15.136 21.736 15.4905 21.6295 15.8407 21.4179C19.4368 19.2378 23.3487 18.1109 27.5762 18.0371C31.1924 17.9769 34.81 17.9292 38.408 18.4084C38.7947 18.4602 39.4098 18.2977 39.2809 19.0823C39.2683 19.1608 39.4616 19.2799 39.5653 19.3709C40.2868 20 41.0042 20.6305 41.7328 21.2512C42.3184 21.75 42.5328 22.3595 42.3829 23.1188C42.2778 23.6471 42.2792 24.1556 42.5846 24.6628C43.0133 25.3746 43.0428 26.176 42.8522 26.9704C42.6252 27.9204 41.0056 28.7106 40.0949 28.3323C39.7558 28.1908 39.9492 27.8881 39.938 27.664C39.8805 26.4646 39.3397 25.5581 38.2805 25.0117C37.2437 24.4779 36.1957 24.548 35.2261 25.2009C34.307 25.8215 33.8545 26.7182 33.9091 27.8279C33.9301 28.2552 33.8306 28.3813 33.3879 28.3827C27.6939 28.3995 21.9999 28.4304 16.3073 28.4794C15.8393 28.4836 15.7959 28.3337 15.8169 27.919C15.9066 26.1298 14.6134 24.7917 12.876 24.831C11.2116 24.8688 9.96038 26.3119 10.1327 28.0381C10.1649 28.3631 10.1579 28.5004 9.78385 28.4962C8.75685 28.4822 7.72986 28.5102 6.70427 28.4976C6.1004 28.4906 5.96029 28.2328 6.22229 27.6976C6.45767 27.217 6.71687 26.7505 6.0976 26.3245C5.92246 26.204 6.02054 25.9238 6.05136 25.7235C6.22229 24.6236 6.93264 23.9637 7.88678 23.5097C7.75788 23.804 7.43143 23.9021 7.24929 24.1416C7.15121 24.2691 7.0125 24.391 7.06995 24.5704C7.1344 24.7721 7.33615 24.7301 7.48747 24.7455C8.5551 24.8562 9.53586 24.6769 10.3022 23.846C10.5208 23.6092 10.9075 23.336 10.7954 23.06C10.6609 22.7293 10.2154 22.9423 9.91135 22.9591C9.61432 22.9759 9.32149 23.0726 9.02586 23.1343L9.03006 23.1357ZM31.5217 21.3815C31.5217 21.3815 31.5217 21.3801 31.5217 21.3787C32.6145 21.3227 33.7074 21.2624 34.8016 21.2148C35.2177 21.1966 35.5204 21.0607 35.6268 20.6193C35.9463 19.2939 35.6773 18.8553 34.3462 18.6634C32.473 18.393 30.5829 18.4336 28.6985 18.3958C28.316 18.3888 28.2277 18.5751 28.1899 18.8904C28.1072 19.5839 28.033 20.2803 27.9055 20.9654C27.8116 21.4656 28.0021 21.558 28.4519 21.5286C29.4747 21.4586 30.4989 21.4277 31.5231 21.3815H31.5217ZM17.6355 22.0975C19.6587 21.9742 21.6833 21.8761 23.7022 21.7122C24.5078 21.6477 25.539 21.9475 26.0616 21.4221C26.5674 20.9135 26.545 19.9062 26.835 19.1482C27.097 18.4616 26.8238 18.4168 26.2298 18.3874C22.7719 18.2179 20.1981 20.1191 17.6355 22.0961V22.0975Z" fill="#367BE0" style="fill:#367BE0;fill:color(display-p3 0.2118 0.4824 0.8784);fill-opacity:1;"/>
<path d="M34.1545 27.7494C34.1713 26.1858 35.4112 24.9668 36.9777 24.9766C38.5567 24.9864 39.8064 26.267 39.784 27.853C39.7616 29.376 38.4586 30.6216 36.9118 30.5964C35.3594 30.5711 34.1377 29.3102 34.1545 27.7508V27.7494Z" fill="#367BE0" style="fill:#367BE0;fill:color(display-p3 0.2118 0.4824 0.8784);fill-opacity:1;"/>
<path d="M15.5563 27.6333C15.5661 29.068 14.4396 30.2225 13.0063 30.2477C11.5884 30.2715 10.4017 29.124 10.3793 27.7061C10.3554 26.2476 11.5268 25.0483 12.9699 25.0567C14.4088 25.0651 15.5479 26.2 15.5577 27.6347L15.5563 27.6333Z" fill="#367BE0" style="fill:#367BE0;fill:color(display-p3 0.2118 0.4824 0.8784);fill-opacity:1;"/>
</g>
<defs>
<clipPath id="clip0_878_4331">
<rect width="36.9676" height="12.5957" fill="white" style="fill:white;fill-opacity:1;" transform="translate(6 18)"/>
</clipPath>
</defs>
</svg>
