<svg width="49" height="48" viewBox="0 0 49 48" fill="none" xmlns="http://www.w3.org/2000/svg">
<path d="M24.3203 0C37.5751 0 48.3203 10.7452 48.3203 24C48.3203 37.2548 37.5751 48 24.3203 48C11.0655 48 0.320312 37.2548 0.320312 24C0.320312 10.7452 11.0655 0 24.3203 0Z" fill="#E8F3FF" style="fill:#E8F3FF;fill:color(display-p3 0.9098 0.9529 1.0000);fill-opacity:1;"/>
<path d="M24.3203 0C37.5751 0 48.3203 10.7452 48.3203 24C48.3203 37.2548 37.5751 48 24.3203 48C11.0655 48 0.320312 37.2548 0.320312 24C0.320312 10.7452 11.0655 0 24.3203 0Z" stroke="#E5E7EB" style="stroke:#E5E7EB;stroke:color(display-p3 0.8980 0.9059 0.9216);stroke-opacity:1;"/>
<path d="M14.4448 21.4763C13.9395 21.2303 13.4868 21.0224 13.0463 20.791C12.7669 20.6446 12.493 20.4802 12.2448 20.288C12.1286 20.1985 12.0794 20.0219 12 19.8855C12.1386 19.8106 12.2761 19.6743 12.4158 19.672C13.195 19.662 13.9764 19.6631 14.7533 19.7134C14.9377 19.7257 15.1099 19.9392 15.3268 20.0879C15.3916 20.0029 15.4833 19.8978 15.557 19.7827C16.0277 19.0449 16.5441 18.3306 16.9488 17.5581C17.4462 16.6079 18.1818 16.2592 19.2337 16.182C22.622 15.9339 26.0024 15.9383 29.3895 16.2022C30.2637 16.2704 30.8908 16.5711 31.3312 17.3625C31.8555 18.3026 32.4737 19.1913 33.0416 20.0879C34.0365 19.4004 35.1219 19.5714 36.1828 19.7078C36.5483 19.7547 36.4689 20.0778 36.2342 20.2354C35.7882 20.535 35.3131 20.7921 34.8413 21.0503C34.5831 21.1923 34.307 21.3019 33.9593 21.464C34.468 22.138 34.9788 22.7663 35.4293 23.4359C35.6127 23.7075 35.7546 24.0675 35.7591 24.3894C35.787 26.643 35.777 28.8978 35.7736 31.1525C35.7736 31.9495 35.7233 31.9931 34.9095 31.9942C33.9783 31.9942 33.0472 31.9942 32.116 31.9942C31.4482 31.9942 31.0812 31.6548 31.0149 30.9759H17.3926C17.3792 31.1357 17.3613 31.2788 17.3579 31.423C17.3479 31.8433 17.1422 32.0054 16.7196 31.9987C15.5649 31.9819 14.4101 31.9819 13.2554 31.9998C12.7903 32.0077 12.6204 31.7941 12.6215 31.3604C12.626 28.957 12.6193 26.5536 12.6372 24.1502C12.6383 23.9501 12.7568 23.7265 12.8798 23.5577C13.3783 22.8702 13.8993 22.1984 14.4448 21.4785V21.4763ZM17.4496 20.0834H30.959C30.7198 19.4037 30.4615 18.7867 30.286 18.1461C30.0535 17.2966 29.4979 16.9299 28.6629 16.8874C27.6032 16.8326 26.5423 16.7141 25.4837 16.7242C23.5297 16.7432 21.5756 16.8326 19.6227 16.9019C19.0705 16.921 18.5552 17.1166 18.3294 17.6375C17.9918 18.4155 17.7492 19.2349 17.4496 20.0834ZM33.8576 29.6423C33.5144 29.014 33.2115 28.5031 32.9533 27.9722C32.8102 27.6793 32.6235 27.5753 32.3027 27.5731C31.13 27.5653 29.9585 27.5049 28.787 27.5094C24.5827 27.5228 20.3773 27.5507 16.173 27.5854C15.9751 27.5865 15.6845 27.6446 15.5984 27.7799C15.2329 28.3522 14.9277 28.9648 14.5532 29.6478C15.2977 29.6478 15.9438 29.6244 16.5877 29.6557C17.0941 29.6803 17.5256 29.5707 17.9392 29.2667C18.4456 28.8933 18.9721 28.6295 19.6686 28.6384C22.7572 28.6809 25.847 28.6462 28.9357 28.6708C29.3001 28.6742 29.679 28.834 30.0233 28.985C30.4425 29.1694 30.8159 29.5606 31.2396 29.6132C32.0623 29.7149 32.9074 29.6434 33.8576 29.6434V29.6423ZM21.3431 22.9541C21.608 23.6371 21.8406 24.2787 22.1144 24.9014C22.1592 25.0031 22.385 25.0758 22.5281 25.0769C23.6437 25.0903 24.7604 25.0903 25.8761 25.0758C26.0214 25.0735 26.2528 25.0065 26.2964 24.9047C26.5669 24.281 26.7961 23.6382 27.0576 22.953H21.3431V22.9541ZM34.2343 22.9351C32.3396 22.8345 30.618 22.7439 28.8965 22.6522C28.8865 22.6958 28.8764 22.7394 28.8663 22.783C29.7472 23.5477 30.627 24.3112 31.5257 25.0914C32.4089 24.3883 33.2573 23.7131 34.2343 22.9351ZM19.5467 22.7763C19.5322 22.7338 19.5176 22.6925 19.502 22.65C17.7794 22.7428 16.0567 22.8345 14.1687 22.9362C15.1569 23.7187 16.0098 24.3928 16.8873 25.087C17.7928 24.3 18.6692 23.5376 19.5467 22.7763Z" fill="#367BE0" style="fill:#367BE0;fill:color(display-p3 0.2118 0.4824 0.8784);fill-opacity:1;"/>
</svg>
