<svg width="49" height="48" viewBox="0 0 49 48" fill="none" xmlns="http://www.w3.org/2000/svg">
<path d="M24.3203 0C37.5751 0 48.3203 10.7452 48.3203 24C48.3203 37.2548 37.5751 48 24.3203 48C11.0655 48 0.320312 37.2548 0.320312 24C0.320312 10.7452 11.0655 0 24.3203 0Z" fill="#E8F3FF" style="fill:#E8F3FF;fill:color(display-p3 0.9098 0.9529 1.0000);fill-opacity:1;"/>
<path d="M24.3203 0C37.5751 0 48.3203 10.7452 48.3203 24C48.3203 37.2548 37.5751 48 24.3203 48C11.0655 48 0.320312 37.2548 0.320312 24C0.320312 10.7452 11.0655 0 24.3203 0Z" stroke="#E5E7EB" style="stroke:#E5E7EB;stroke:color(display-p3 0.8980 0.9059 0.9216);stroke-opacity:1;"/>
<g clip-path="url(#clip0_878_4276)">
<path d="M33.701 21.0692C34.0505 20.7275 34.3074 20.2541 34.6267 20.2072C35.4442 20.0866 36.2917 20.1178 37.1214 20.1658C37.5056 20.1882 37.5167 20.5031 37.2208 20.694C36.677 21.0447 36.1019 21.3484 35.5324 21.6611C35.3236 21.7761 35.0969 21.8587 34.8635 21.9626C34.9171 22.0977 34.9383 22.2127 35.0008 22.2987C35.787 23.3808 35.8886 24.6036 35.8462 25.8945C35.7881 27.66 35.8328 29.4288 35.8305 31.1965C35.8305 31.9123 35.7546 31.9849 35.0232 31.986C33.9813 31.9883 32.9394 31.9604 31.8987 31.9972C31.3236 32.0173 31.0556 31.8264 31.1058 31.2379C31.1136 31.153 31.0678 31.0625 31.0433 30.9587H17.4531C17.4397 31.0949 17.4095 31.22 17.4185 31.3417C17.4531 31.8297 17.2219 32.0006 16.7507 31.9927C15.6351 31.9749 14.5184 31.9648 13.4028 31.9927C12.8545 32.0073 12.7004 31.7828 12.7049 31.2647C12.7239 29.0324 12.6937 26.799 12.7284 24.5667C12.7351 24.1078 12.9048 23.6376 13.0667 23.1988C13.2197 22.7867 13.462 22.407 13.6686 22.0061C12.782 21.4623 11.7267 21.2602 11.002 20.3322C11.2677 20.2407 11.4464 20.1268 11.6262 20.1245C12.3498 20.1156 13.0757 20.1145 13.7948 20.1737C13.9891 20.1893 14.1801 20.4104 14.3442 20.5678C14.5006 20.7175 14.62 20.9073 14.7875 21.1195C15.6418 19.7705 16.4793 18.4785 17.2811 17.163C17.634 16.5824 18.122 16.2976 18.7764 16.2395C22.4168 15.919 26.0561 15.9179 29.6965 16.234C30.4001 16.2954 30.907 16.5924 31.2789 17.2077C32.065 18.5075 32.8914 19.7828 33.701 21.067V21.0692ZM33.0857 21.5751C32.208 20.1491 31.3928 18.7789 30.5184 17.4489C30.3599 17.2077 29.9735 17.057 29.6653 16.9888C29.1784 16.8828 28.6703 16.8738 28.1689 16.8392C25.1371 16.6304 22.1075 16.6739 19.0801 16.9308C18.4793 16.9821 18.0382 17.2691 17.7323 17.794C17.2733 18.5812 16.792 19.3562 16.3208 20.1357C16.0449 20.5913 15.7702 21.0458 15.4509 21.574H33.0857V21.5751ZM24.2716 26.0251V26.0229C23.0455 26.0229 21.8205 26.0229 20.5944 26.0229C19.9188 26.0229 19.8696 26.0888 20.0695 26.7175C20.1923 27.1061 20.3264 27.4925 20.4458 27.8822C20.6234 28.4606 21.0131 28.7108 21.6128 28.7074C23.3772 28.6985 25.1415 28.6963 26.9059 28.7074C27.5067 28.7119 27.8931 28.4651 28.0706 27.8855C28.2013 27.4601 28.3342 27.0335 28.4961 26.6192C28.6736 26.167 28.5296 26.0128 28.0606 26.0184C26.7976 26.0341 25.5346 26.024 24.2716 26.024V26.0251ZM19.4911 25.545C17.7669 24.3032 15.8786 24.0229 13.9299 23.9179C13.7647 24.9598 14.0449 25.4378 14.9372 25.6924C15.2398 25.7783 15.548 25.8543 15.8585 25.9045C17.0623 26.1011 18.2471 26.0754 19.4922 25.5438L19.4911 25.545ZM29.0243 25.5517C29.3626 25.67 29.5793 25.7605 29.8049 25.8208C31.0444 26.1513 32.2661 26.0162 33.4966 25.727C34.4548 25.5014 34.7306 25.0815 34.5687 23.9135C32.6379 24.0374 30.7574 24.3021 29.0243 25.5517ZM15.663 29.7862C16.0952 29.7728 16.4324 29.4188 16.4179 28.9933C16.4023 28.5567 16.0628 28.2395 15.6195 28.2496C15.1918 28.2585 14.8434 28.6192 14.859 29.0357C14.8746 29.4567 15.242 29.7996 15.663 29.7862ZM32.8043 29.785C33.2331 29.8297 33.6262 29.5103 33.6429 29.0815C33.6608 28.6315 33.4598 28.3289 32.9919 28.2619C32.5318 28.196 32.1801 28.4729 32.1298 28.923C32.0796 29.3708 32.3688 29.7404 32.8054 29.7862L32.8043 29.785Z" fill="#367BE0" style="fill:#367BE0;fill:color(display-p3 0.2118 0.4824 0.8784);fill-opacity:1;"/>
</g>
<defs>
<clipPath id="clip0_878_4276">
<rect width="26.4277" height="16" fill="white" style="fill:white;fill-opacity:1;" transform="translate(11 16)"/>
</clipPath>
</defs>
</svg>
