<svg width="49" height="48" viewBox="0 0 49 48" fill="none" xmlns="http://www.w3.org/2000/svg">
<path d="M24.3203 0C37.5751 0 48.3203 10.7452 48.3203 24C48.3203 37.2548 37.5751 48 24.3203 48C11.0655 48 0.320312 37.2548 0.320312 24C0.320312 10.7452 11.0655 0 24.3203 0Z" fill="#E8F3FF" style="fill:#E8F3FF;fill:color(display-p3 0.9098 0.9529 1.0000);fill-opacity:1;"/>
<path d="M24.3203 0C37.5751 0 48.3203 10.7452 48.3203 24C48.3203 37.2548 37.5751 48 24.3203 48C11.0655 48 0.320312 37.2548 0.320312 24C0.320312 10.7452 11.0655 0 24.3203 0Z" stroke="#E5E7EB" style="stroke:#E5E7EB;stroke:color(display-p3 0.8980 0.9059 0.9216);stroke-opacity:1;"/>
<g clip-path="url(#clip0_878_4310)">
<path d="M40.3037 23.2799C41.1694 23.6471 41.7686 24.2476 41.9462 25.1968C42.0019 25.495 42.1252 25.7668 41.7182 26.0399C41.4478 26.2215 41.5777 26.7279 41.7473 27.0805C42.0735 27.7539 41.9595 27.9329 41.1985 27.9342C40.3369 27.9355 39.4752 27.913 38.6149 27.9355C38.1959 27.9461 38.0634 27.8573 38.1058 27.392C38.2357 25.9736 37.3011 24.7646 35.9384 24.4955C34.6498 24.2396 33.3494 24.9926 32.8761 26.2586C32.7489 26.598 32.6826 26.9546 32.7436 27.2992C32.8377 27.8308 32.619 27.9143 32.1431 27.9104C28.2112 27.8719 24.2793 27.8573 20.3475 27.8348C18.9343 27.8268 17.5199 27.8096 16.1067 27.8202C15.7196 27.8229 15.6017 27.7553 15.6215 27.3151C15.6971 25.6634 14.4391 24.3457 12.8377 24.3245C11.1714 24.3033 9.93055 25.5401 9.95971 27.2634C9.96767 27.734 9.81124 27.8043 9.40294 27.8017C7.3641 27.791 6.43217 26.2666 7.3694 24.3868C7.64249 23.8393 7.68756 23.321 7.58548 22.7377C7.47148 22.0855 7.68358 21.5234 8.20324 21.0846C8.87799 20.5146 9.54876 19.9393 10.205 19.3493C10.3773 19.1942 10.6239 19.1107 10.5536 18.7263C10.4886 18.3723 10.9341 18.4466 11.1568 18.4121C12.9464 18.1364 14.7585 18.0621 16.5681 18.0237C19.8371 17.9534 23.1048 18.0476 26.3712 18.1987C27.0592 18.2305 27.6597 18.4744 28.2602 18.7515C29.7861 19.4567 31.2297 20.3131 32.6574 21.1933C33.006 21.4081 33.36 21.5234 33.7656 21.5738C35.6255 21.8071 37.4934 22.0152 39.2392 22.7708C38.6427 22.8093 38.0501 22.5203 37.3833 22.7244C38.0011 23.8552 38.8879 24.4213 40.1208 24.4107C40.4137 24.408 40.8393 24.5194 40.9639 24.2264C41.1177 23.8632 40.6908 23.6935 40.4601 23.4747C40.4005 23.4177 40.3554 23.3448 40.3037 23.2786V23.2799ZM17.8897 21.1946C17.8897 21.1946 17.8897 21.1973 17.8897 21.1986C18.8813 21.2437 19.8742 21.2768 20.8645 21.3391C21.2396 21.363 21.3801 21.2848 21.3019 20.8699C21.176 20.1991 21.1004 19.5177 21.0235 18.839C20.9891 18.5327 20.9016 18.3737 20.5423 18.379C18.7779 18.4015 17.0108 18.3816 15.2583 18.6216C13.9764 18.7979 13.9327 18.8854 13.9618 20.1606C13.9751 20.7665 14.2429 21.0342 14.85 21.0501C15.8641 21.0767 16.8769 21.1456 17.891 21.1973L17.8897 21.1946ZM31.0123 21.88C30.0949 21.0276 29.0914 20.4019 28.0866 19.7749C26.6469 18.8761 25.0906 18.4121 23.3964 18.3869C22.1132 18.3684 22.1079 18.3644 22.4672 19.6012C22.6329 20.1699 22.67 20.8791 23.0385 21.2583C23.423 21.652 24.1706 21.3975 24.7539 21.4744C24.8189 21.4836 24.8851 21.4889 24.9514 21.4929C26.9717 21.6215 28.992 21.7514 31.011 21.88H31.0123Z" fill="#367BE0" style="fill:#367BE0;fill:color(display-p3 0.2118 0.4824 0.8784);fill-opacity:1;"/>
<path d="M10.082 27.2543C10.086 25.7669 11.2407 24.603 12.7174 24.5977C14.2247 24.5924 15.3979 25.7735 15.3886 27.2887C15.3793 28.7522 14.1823 29.9294 12.7161 29.9148C11.2314 29.9003 10.0781 28.735 10.082 27.2543Z" fill="#367BE0" style="fill:#367BE0;fill:color(display-p3 0.2118 0.4824 0.8784);fill-opacity:1;"/>
<path d="M32.9883 27.1309C32.9923 25.7642 34.0541 24.6931 35.4182 24.6798C36.7823 24.6652 37.9223 25.8093 37.8985 27.1654C37.8746 28.5003 36.7452 29.6046 35.4169 29.5927C34.0687 29.5807 32.9843 28.4818 32.9883 27.1309Z" fill="#367BE0" style="fill:#367BE0;fill:color(display-p3 0.2118 0.4824 0.8784);fill-opacity:1;"/>
</g>
<defs>
<clipPath id="clip0_878_4310">
<rect width="35.0076" height="11.9149" fill="white" style="fill:white;fill-opacity:1;" transform="translate(7 18)"/>
</clipPath>
</defs>
</svg>
