<svg width="18" height="17" viewBox="0 0 18 17" fill="none" xmlns="http://www.w3.org/2000/svg">
<g clip-path="url(#clip0_1640_479)">
<path d="M8.99922 1.12109C6.47422 1.12109 4.45234 2.27109 2.98047 3.63984C1.51797 4.99609 0.539844 6.62109 0.0773437 7.73672C-0.0257813 7.98359 -0.0257813 8.25859 0.0773437 8.50547C0.539844 9.62109 1.51797 11.2461 2.98047 12.6023C4.45234 13.9711 6.47422 15.1211 8.99922 15.1211C11.5242 15.1211 13.5461 13.9711 15.018 12.6023C16.4805 11.243 17.4586 9.62109 17.9242 8.50547C18.0273 8.25859 18.0273 7.98359 17.9242 7.73672C17.4586 6.62109 16.4805 4.99609 15.018 3.63984C13.5461 2.27109 11.5242 1.12109 8.99922 1.12109ZM4.49922 8.12109C4.49922 6.92762 4.97332 5.78303 5.81724 4.93911C6.66115 4.0952 7.80574 3.62109 8.99922 3.62109C10.1927 3.62109 11.3373 4.0952 12.1812 4.93911C13.0251 5.78303 13.4992 6.92762 13.4992 8.12109C13.4992 9.31457 13.0251 10.4592 12.1812 11.3031C11.3373 12.147 10.1927 12.6211 8.99922 12.6211C7.80574 12.6211 6.66115 12.147 5.81724 11.3031C4.97332 10.4592 4.49922 9.31457 4.49922 8.12109ZM8.99922 6.12109C8.99922 7.22422 8.10234 8.12109 6.99922 8.12109C6.77734 8.12109 6.56484 8.08359 6.36484 8.01797C6.19297 7.96172 5.99297 8.06797 5.99922 8.24922C6.00859 8.46484 6.03984 8.68047 6.09922 8.89609C6.52734 10.4961 8.17422 11.4461 9.77422 11.018C11.3742 10.5898 12.3242 8.94297 11.8961 7.34297C11.5492 6.04609 10.4023 5.17422 9.12734 5.12109C8.94609 5.11484 8.83984 5.31172 8.89609 5.48672C8.96172 5.68672 8.99922 5.89922 8.99922 6.12109Z" fill="#EF4444" style="fill:#EF4444;fill:color(display-p3 0.9373 0.2667 0.2667);fill-opacity:1;"/>
</g>
<defs>
<clipPath id="clip0_1640_479">
<path d="M0 0.121094H18V16.1211H0V0.121094Z" fill="white" style="fill:white;fill-opacity:1;"/>
</clipPath>
</defs>
</svg>
