<svg width="18" height="17" viewBox="0 0 18 17" fill="none" xmlns="http://www.w3.org/2000/svg">
<g clip-path="url(#clip0_1640_531)">
<path d="M8.99902 1.12109C11.5238 1.12109 13.5457 2.27102 15.0176 3.63965C16.4799 4.99571 17.4581 6.62072 17.9238 7.73633C18.027 7.9832 18.027 8.25898 17.9238 8.50586C17.4581 9.62147 16.4799 11.2434 15.0176 12.6025C13.5457 13.9712 11.5238 15.1211 8.99902 15.1211C6.47417 15.121 4.4523 13.9712 2.98047 12.6025C1.51808 11.2464 0.539693 9.62148 0.0771484 8.50586C-0.0259766 8.25898 -0.0259766 7.9832 0.0771484 7.73633C0.539693 6.62071 1.51808 4.99579 2.98047 3.63965C4.4523 2.27097 6.47417 1.12115 8.99902 1.12109ZM8.99902 3.62109C7.80562 3.62115 6.66125 4.09559 5.81738 4.93945C4.97353 5.78336 4.49902 6.92767 4.49902 8.12109C4.49902 9.31452 4.97353 10.4588 5.81738 11.3027C6.66125 12.1466 7.80562 12.621 8.99902 12.6211C10.1925 12.6211 11.3377 12.1466 12.1816 11.3027C13.0253 10.4589 13.499 9.31438 13.499 8.12109C13.499 6.9278 13.0253 5.78333 12.1816 4.93945C11.3377 4.09554 10.1925 3.62109 8.99902 3.62109ZM9.12695 5.12109C10.4019 5.17422 11.5496 6.04595 11.8965 7.34277C12.3246 8.94268 11.3742 10.5893 9.77441 11.0176C8.17457 11.4457 6.52793 10.4962 6.09961 8.89648C6.04023 8.68086 6.0084 8.46465 5.99902 8.24902C5.99293 8.0679 6.19342 7.96135 6.36523 8.01758C6.56511 8.08314 6.77731 8.12107 6.99902 8.12109C8.10215 8.12109 8.99902 7.22422 8.99902 6.12109C8.99902 5.89922 8.96211 5.68633 8.89648 5.48633C8.84045 5.31151 8.94602 5.11514 9.12695 5.12109Z" fill="#9CA3AF" style="fill:#9CA3AF;fill:color(display-p3 0.6118 0.6392 0.6863);fill-opacity:1;"/>
<path d="M8.99902 1.12109C11.5238 1.12109 13.5457 2.27102 15.0176 3.63965C16.4799 4.99571 17.4581 6.62072 17.9238 7.73633C18.027 7.9832 18.027 8.25898 17.9238 8.50586C17.4581 9.62147 16.4799 11.2434 15.0176 12.6025C13.5457 13.9712 11.5238 15.1211 8.99902 15.1211C6.47417 15.121 4.4523 13.9712 2.98047 12.6025C1.51808 11.2464 0.539693 9.62148 0.0771484 8.50586C-0.0259766 8.25898 -0.0259766 7.9832 0.0771484 7.73633C0.539693 6.62071 1.51808 4.99579 2.98047 3.63965C4.4523 2.27097 6.47417 1.12115 8.99902 1.12109ZM8.99902 3.62109C7.80562 3.62115 6.66125 4.09559 5.81738 4.93945C4.97353 5.78336 4.49902 6.92767 4.49902 8.12109C4.49902 9.31452 4.97353 10.4588 5.81738 11.3027C6.66125 12.1466 7.80562 12.621 8.99902 12.6211C10.1925 12.6211 11.3377 12.1466 12.1816 11.3027C13.0253 10.4589 13.499 9.31438 13.499 8.12109C13.499 6.9278 13.0253 5.78333 12.1816 4.93945C11.3377 4.09554 10.1925 3.62109 8.99902 3.62109ZM9.12695 5.12109C10.4019 5.17422 11.5496 6.04595 11.8965 7.34277C12.3246 8.94268 11.3742 10.5893 9.77441 11.0176C8.17457 11.4457 6.52793 10.4962 6.09961 8.89648C6.04023 8.68086 6.0084 8.46465 5.99902 8.24902C5.99293 8.0679 6.19342 7.96135 6.36523 8.01758C6.56511 8.08314 6.77731 8.12107 6.99902 8.12109C8.10215 8.12109 8.99902 7.22422 8.99902 6.12109C8.99902 5.89922 8.96211 5.68633 8.89648 5.48633C8.84045 5.31151 8.94602 5.11514 9.12695 5.12109Z" stroke="#E5E7EB" style="stroke:#E5E7EB;stroke:color(display-p3 0.8980 0.9059 0.9216);stroke-opacity:1;"/>
</g>
<defs>
<clipPath id="clip0_1640_531">
<path d="M0 0.121094H18V16.1211H0V0.121094Z" fill="white" style="fill:white;fill-opacity:1;"/>
</clipPath>
</defs>
</svg>
