<svg width="33" height="33" viewBox="0 0 33 33" fill="none" xmlns="http://www.w3.org/2000/svg">
<rect width="33" height="33" rx="4" fill="#367BE0" style="fill:#367BE0;fill:color(display-p3 0.2118 0.4824 0.8784);fill-opacity:1;"/>
<path d="M15.9993 9C16.4986 9 16.9592 9.26786 17.2123 9.70714L24.8066 22.85C25.0633 23.2929 25.0633 23.8393 24.8137 24.2821C24.564 24.725 24.0964 25 23.5936 25H8.40505C7.90228 25 7.43467 24.725 7.18504 24.2821C6.93542 23.8393 6.93893 23.2893 7.19208 22.85L14.7864 9.70714C15.0395 9.26786 15.5001 9 15.9993 9ZM15.9993 13.5714C15.5317 13.5714 15.1555 13.9536 15.1555 14.4286V18.4286C15.1555 18.9036 15.5317 19.2857 15.9993 19.2857C16.467 19.2857 16.8432 18.9036 16.8432 18.4286V14.4286C16.8432 13.9536 16.467 13.5714 15.9993 13.5714ZM17.1244 21.5714C17.1244 21.2683 17.0059 20.9776 16.7949 20.7633C16.5839 20.549 16.2977 20.4286 15.9993 20.4286C15.701 20.4286 15.4148 20.549 15.2038 20.7633C14.9928 20.9776 14.8743 21.2683 14.8743 21.5714C14.8743 21.8745 14.9928 22.1652 15.2038 22.3796C15.4148 22.5939 15.701 22.7143 15.9993 22.7143C16.2977 22.7143 16.5839 22.5939 16.7949 22.3796C17.0059 22.1652 17.1244 21.8745 17.1244 21.5714Z" fill="white" style="fill:white;fill-opacity:1;"/>
</svg>
