<svg width="24" height="21" viewBox="0 0 24 21" fill="none" xmlns="http://www.w3.org/2000/svg">
<path d="M11.999 0.75C12.8403 0.75 13.6243 1.18569 14.0576 1.91016L22.918 16.6953H22.917C23.3589 17.4308 23.3578 18.3389 22.9297 19.0713C22.5011 19.8041 21.7066 20.25 20.8594 20.25H3.13965C2.29232 20.25 1.49695 19.8043 1.06836 19.0713C0.638737 18.3363 0.644884 17.4245 1.08008 16.6963L1.08105 16.6953L9.94043 1.91016C10.3737 1.18564 11.1578 0.750074 11.999 0.75ZM11.999 15.1074C11.8449 15.1075 11.7 15.1673 11.5957 15.2695C11.492 15.3712 11.4366 15.5057 11.4365 15.6426C11.4365 15.7796 11.4919 15.9149 11.5957 16.0166C11.7 16.1187 11.845 16.1787 11.999 16.1787C12.153 16.1787 12.298 16.1187 12.4023 16.0166C12.5062 15.9149 12.5615 15.7796 12.5615 15.6426C12.5614 15.5057 12.5061 15.3712 12.4023 15.2695C12.298 15.1674 12.1531 15.1074 11.999 15.1074ZM11.999 7.39258C11.8531 7.39268 11.7646 7.50186 11.7646 7.60742V12.1074C11.7648 12.2129 11.8532 12.3212 11.999 12.3213C12.1449 12.3213 12.2332 12.2129 12.2334 12.1074V7.60742C12.2334 7.50181 12.1451 7.39258 11.999 7.39258Z" stroke="#9CA3AF" style="stroke:#9CA3AF;stroke:color(display-p3 0.6118 0.6392 0.6863);stroke-opacity:1;" stroke-width="1.5"/>
</svg>
