<svg width="24" height="24" viewBox="0 0 24 24" fill="none" xmlns="http://www.w3.org/2000/svg">
<g clip-path="url(#clip0_7227_2719)">
<path d="M0.0350518 16.8476C0.0350518 16.0288 0.0100066 15.2101 0.0400609 14.3932C0.086812 13.156 0.571019 12.5483 1.68804 12.4009C2.12549 12.3427 2.30916 12.1607 2.41936 11.7204C2.77166 10.3195 3.17739 8.93308 3.52636 7.5303C3.92708 5.91648 4.807 4.86485 6.35146 4.58102C6.90078 4.48095 7.0594 4.15891 7.08278 3.58398C7.1312 2.34495 7.23305 2.26308 8.37845 2.26126C10.4355 2.25762 12.4942 2.2558 14.5513 2.26126C15.5798 2.2649 15.7484 2.41045 15.7451 3.49846C15.7434 4.16255 15.9287 4.48095 16.5616 4.5792C18.0042 4.80299 18.8974 5.75273 19.3082 7.25739C19.6889 8.65107 20.0796 10.0411 20.4269 11.4439C20.5671 12.0079 20.8092 12.3045 21.3652 12.4082C22.3503 12.5938 22.8162 13.1032 22.8529 14.1694C22.9147 15.9542 22.8896 17.7427 22.8629 19.5294C22.8529 20.2717 22.549 20.8885 21.8845 21.1905C21.5456 21.3434 21.4788 21.6108 21.4153 21.962C21.1849 23.2537 20.4502 23.9797 19.4117 23.9961C18.3231 24.0143 17.6385 23.3465 17.338 21.9729C17.2077 21.3743 16.2694 21.1196 15.7918 21.6472C15.3828 22.1002 14.9436 22.153 14.4361 22.153C12.4057 22.1494 10.3754 22.1494 8.34673 22.153C7.86753 22.153 7.46179 22.0857 7.07276 21.6618C6.51842 21.0595 5.75705 21.3925 5.57505 22.2331C5.33796 23.3247 4.54152 24.0106 3.53136 23.9961C2.52789 23.9815 1.69638 23.2701 1.55112 22.1603C1.47933 21.6126 1.29399 21.3197 0.851526 21.0759C0.247101 20.7429 0.0584274 20.0861 0.0417306 19.3893C0.0200247 18.5414 0.0367215 17.6918 0.0367215 16.8439L0.0350518 16.8476ZM11.5675 12.3354C13.9852 12.3354 16.4046 12.319 18.8223 12.3481C19.3783 12.3554 19.587 12.2699 19.3867 11.5985C18.9909 10.2758 18.6754 8.92398 18.2997 7.59398C17.9374 6.31493 17.2027 5.67631 15.9705 5.66358C12.9684 5.63447 9.96632 5.63265 6.96423 5.66358C5.69694 5.67631 4.97564 6.3404 4.60664 7.6795C4.27103 8.89669 3.98218 10.1321 3.60817 11.3347C3.35772 12.1407 3.59314 12.35 4.31445 12.3427C6.73214 12.3154 9.15151 12.3318 11.5692 12.3354H11.5675ZM1.3925 19.8332C1.49268 20.2171 1.66967 20.239 1.82996 20.239C3.38777 20.2481 4.94558 20.2426 6.50173 20.2517C6.95087 20.2535 7.06107 19.9533 7.08946 19.5512C7.13454 18.9071 7.49185 18.6743 8.04618 18.6761C10.2986 18.6815 12.551 18.6797 14.8051 18.6797C15.3527 18.6797 15.7417 18.9017 15.7468 19.5585C15.7518 20.1316 16.0273 20.2663 16.4931 20.2608C17.9674 20.2444 19.4418 20.2572 20.9144 20.2499C21.1465 20.2499 21.4086 20.2826 21.5806 19.8332C21.215 19.8332 20.9194 19.8332 20.6256 19.8332C19.4017 19.8314 18.1778 19.8332 16.9539 19.8241C16.5966 19.8205 16.2443 19.7168 16.2477 19.2456C16.251 18.7798 16.6083 18.687 16.9606 18.6652C17.1827 18.6506 17.4047 18.6542 17.6285 18.6542C18.7405 18.6542 19.8542 18.6342 20.9662 18.6597C21.5339 18.6724 21.7793 18.4323 21.766 17.8082C21.7459 16.8694 21.766 15.9288 21.7609 14.9899C21.7559 13.6636 21.6875 13.5835 20.497 13.5799C18.0492 13.5762 15.6015 13.5799 13.1537 13.5799C9.51049 13.5799 5.86725 13.5762 2.224 13.5835C1.23555 13.5853 1.10866 13.7273 1.10031 14.7807C1.09196 15.7505 1.13537 16.722 1.08695 17.69C1.04688 18.465 1.33239 18.6888 2.00695 18.667C3.28592 18.6251 4.5649 18.6524 5.84387 18.6597C6.2446 18.6615 6.70376 18.7016 6.68706 19.2783C6.67371 19.7877 6.24961 19.8296 5.87059 19.8314C5.09252 19.8351 4.31278 19.8332 3.5347 19.8351C2.83177 19.8351 2.1305 19.8351 1.38916 19.8351L1.3925 19.8332ZM11.3505 20.9886C12.2655 20.9886 13.1821 20.9849 14.0971 20.9904C14.4561 20.9922 14.6782 20.8703 14.6798 20.4245C14.6798 19.9897 14.4845 19.8387 14.1121 19.8405C12.364 19.846 10.6158 19.8442 8.86767 19.8405C8.4803 19.8405 8.21315 19.9606 8.22985 20.4537C8.24488 20.9012 8.50869 20.9922 8.85097 20.9922C9.68414 20.9886 10.5156 20.9922 11.3488 20.9922L11.3505 20.9886ZM11.3538 4.48823V4.48459C12.2705 4.48459 13.1871 4.48823 14.1038 4.48277C14.406 4.48277 14.6565 4.39544 14.6698 3.98425C14.6815 3.58398 14.4728 3.45298 14.1472 3.45298C12.3423 3.45298 10.5373 3.45298 8.73242 3.45662C8.39181 3.45662 8.23152 3.65857 8.21482 4.02064C8.19479 4.47367 8.48364 4.48641 8.77249 4.48641C9.63405 4.49005 10.4939 4.48641 11.3555 4.48641L11.3538 4.48823Z" fill="#9CA3AF" style="fill:#9CA3AF;fill:color(display-p3 0.6118 0.6392 0.6863);fill-opacity:1;"/>
<path d="M20.6056 0.024417C21.9797 0.197262 23.788 2.13677 23.9817 3.69055C24.0251 4.04534 24.0117 4.38557 23.6344 4.49474C23.3088 4.58753 23.1017 4.3601 23.0133 4.04534C22.5858 2.50429 21.6608 1.52908 20.2516 1.07058C19.9544 0.974155 19.7841 0.723075 19.8859 0.371927C19.9878 0.0207781 20.2499 -0.0465405 20.6039 0.0262364L20.6056 0.024417Z" fill="#9CA3AF" style="fill:#9CA3AF;fill:color(display-p3 0.6118 0.6392 0.6863);fill-opacity:1;"/>
<path d="M22.6977 4.44214C22.7044 4.96068 22.6075 5.19902 22.317 5.26634C21.9848 5.34276 21.7961 5.1317 21.6942 4.81876C21.3419 3.74348 20.7542 2.91747 19.714 2.55904C19.6105 2.52265 19.5019 2.4808 19.4118 2.41712C19.2131 2.27703 19.0845 2.08235 19.1596 1.81126C19.2415 1.51469 19.4418 1.39097 19.7257 1.39461C20.8778 1.40916 22.6994 3.40507 22.6994 4.44396L22.6977 4.44214Z" fill="#9CA3AF" style="fill:#9CA3AF;fill:color(display-p3 0.6118 0.6392 0.6863);fill-opacity:1;"/>
<path d="M1.83661 8.87124C2.16721 8.90763 2.63639 8.90217 2.63806 9.48075C2.63973 10.0211 2.2006 10.0047 1.83494 10.0248C1.52438 10.0411 1.19045 10.052 1.12867 10.4851C1.07858 10.8289 1.32402 10.9381 1.57447 11.0345C1.88337 11.1546 2.15719 11.3566 2.01694 11.7641C1.85665 12.2299 1.47763 12.2263 1.10529 12.1189C0.394009 11.9151 -0.0935375 11.0982 0.0149917 10.3122C0.133539 9.448 0.853172 8.86033 1.83661 8.87124Z" fill="#9CA3AF" style="fill:#9CA3AF;fill:color(display-p3 0.6118 0.6392 0.6863);fill-opacity:1;"/>
<path d="M21.2633 8.87462C22.1499 8.91101 22.8228 9.49868 22.9297 10.3283C23.0232 11.0652 22.5657 11.8385 21.8861 12.0859C21.5188 12.2187 21.1331 12.2551 20.9461 11.8166C20.7624 11.3818 21.0463 11.1489 21.4002 11.0252C21.6574 10.9342 21.8845 10.805 21.8143 10.463C21.7509 10.1573 21.5121 10.0536 21.245 10.03C21.2166 10.0281 21.1899 10.0263 21.1615 10.0245C20.7791 9.9972 20.33 10.0591 20.2882 9.45501C20.2615 9.07294 20.6639 8.84915 21.2633 8.8728V8.87462Z" fill="#9CA3AF" style="fill:#9CA3AF;fill:color(display-p3 0.6118 0.6392 0.6863);fill-opacity:1;"/>
<path d="M21.4487 5.27828C21.4654 5.57848 21.3819 5.82592 21.1014 5.92235C20.8109 6.02242 20.5922 5.86049 20.507 5.5803C20.2198 4.64694 19.6471 4.06472 18.7989 3.75178C18.5351 3.65535 18.4366 3.3788 18.5285 3.07678C18.6236 2.76929 18.8557 2.70198 19.1279 2.72199C20.0813 2.79113 21.4237 4.26668 21.4471 5.27646L21.4487 5.27828Z" fill="#9CA3AF" style="fill:#9CA3AF;fill:color(display-p3 0.6118 0.6392 0.6863);fill-opacity:1;"/>
<path d="M11.5341 15.1042C10.0364 15.1042 8.53874 15.1078 7.04103 15.1024C6.67871 15.1024 6.24459 15.1151 6.22456 14.5747C6.20452 14.0453 6.63029 13.967 6.99428 13.9652C10.0448 13.9543 13.097 13.9543 16.1475 13.9652C16.5215 13.9652 16.9239 14.0908 16.8838 14.6148C16.8471 15.0823 16.4564 15.1024 16.1124 15.1024C14.5863 15.1042 13.0619 15.1024 11.5358 15.1024L11.5341 15.1042Z" fill="#9CA3AF" style="fill:#9CA3AF;fill:color(display-p3 0.6118 0.6392 0.6863);fill-opacity:1;"/>
<path d="M11.4757 16.7558C10.0064 16.7558 8.53706 16.7595 7.06774 16.7522C6.71043 16.7522 6.25961 16.7868 6.22622 16.2537C6.18949 15.6587 6.67203 15.6187 7.05271 15.6169C10.0465 15.6023 13.0419 15.6023 16.0356 15.6132C16.428 15.6132 16.8972 15.6697 16.8788 16.2428C16.8621 16.7722 16.4129 16.7522 16.0506 16.754C14.5262 16.7577 13.0001 16.754 11.4757 16.754V16.7558Z" fill="#9CA3AF" style="fill:#9CA3AF;fill:color(display-p3 0.6118 0.6392 0.6863);fill-opacity:1;"/>
<path d="M19.4501 16.7559C19.2564 16.7559 19.0627 16.7559 18.869 16.7559C17.4932 16.7559 17.3613 16.583 17.4181 15.0929C17.4465 14.3197 17.722 13.9121 18.4717 13.943C19.1629 13.9703 19.8558 13.9212 20.5454 13.9612C21.3385 14.0067 21.457 14.2833 21.4487 15.6115C21.4437 16.3101 21.3001 16.8068 20.5287 16.7577C20.1697 16.734 19.8091 16.7541 19.4501 16.7541V16.7559Z" fill="#9CA3AF" style="fill:#9CA3AF;fill:color(display-p3 0.6118 0.6392 0.6863);fill-opacity:1;"/>
<path d="M3.63492 16.7547C3.41285 16.7547 3.19079 16.7547 2.97039 16.7547C1.71145 16.7492 1.65969 16.6928 1.6647 15.3264C1.66971 14.1183 1.80328 13.9637 2.89859 13.9491C3.50803 13.94 4.11746 13.9491 4.72689 13.9564C5.33633 13.9637 5.6519 14.2784 5.61015 14.9716C5.59513 15.2118 5.59346 15.4556 5.61015 15.6958C5.66525 16.4727 5.34801 16.8165 4.63339 16.7601C4.30279 16.7347 3.96886 16.7565 3.63659 16.7565L3.63492 16.7547Z" fill="#9CA3AF" style="fill:#9CA3AF;fill:color(display-p3 0.6118 0.6392 0.6863);fill-opacity:1;"/>
</g>
<defs>
<clipPath id="clip0_7227_2719">
<rect width="24" height="24" fill="white" style="fill:white;fill-opacity:1;"/>
</clipPath>
</defs>
</svg>
