<svg width="21" height="24" viewBox="0 0 21 24" fill="none" xmlns="http://www.w3.org/2000/svg">
<path d="M1.5 0.75C1.91547 0.75 2.25 1.08453 2.25 1.5V3.21094L3.18262 2.97754L6.41602 2.16602C8.0288 1.76397 9.73444 1.95104 11.2188 2.69531C13.6001 3.88854 16.4027 3.88809 18.7842 2.69531L18.7852 2.69629L19.2354 2.4707C19.7013 2.23773 20.25 2.57693 20.25 3.09863V14.7051C20.2498 15.0186 20.0563 15.297 19.7617 15.4082L18.1357 16.0176L18.1338 16.0186C16.1643 16.7602 13.9773 16.6449 12.0918 15.7021H12.0908C10.1549 14.7368 7.93269 14.4912 5.83203 15.0176L2.81738 15.7725L2.25 15.915V22.5C2.25 22.9155 1.91547 23.25 1.5 23.25C1.08453 23.25 0.75 22.9155 0.75 22.5V1.5C0.75 1.08453 1.08453 0.75 1.5 0.75Z" stroke="#9CA3AF" style="stroke:#9CA3AF;stroke:color(display-p3 0.6118 0.6392 0.6863);stroke-opacity:1;" stroke-width="1.5"/>
</svg>
