<svg width="17" height="24" viewBox="0 0 17 24" fill="none" xmlns="http://www.w3.org/2000/svg">
<g clip-path="url(#clip0_7227_3267)">
<mask id="path-1-inside-1_7227_3267" fill="white">
<path d="M0 23.9982C0 23.8962 0 23.8081 0 23.7178C0 22.0306 0 20.3435 0 18.6563C0.00235522 15.8638 1.95955 13.6691 4.77168 13.3052C5.02605 13.2728 5.28748 13.2728 5.5442 13.2844C5.6384 13.289 5.74203 13.3562 5.8174 13.4234C6.61347 14.1326 7.40482 14.8464 8.19618 15.5579C8.44347 15.7803 8.55653 15.7757 8.81089 15.5463C9.60931 14.8278 10.4054 14.1071 11.2085 13.3956C11.2815 13.3331 11.3969 13.2867 11.4935 13.2844C14.52 13.2172 16.9835 15.5741 16.9953 18.5497C17.0024 20.2856 16.9953 22.0237 16.9953 23.7595C16.9953 23.8313 16.9882 23.9055 16.9835 23.9982H0ZM8.0478 21.2149C8.0478 21.289 8.04073 21.3632 8.0478 21.435C8.07606 21.6668 8.28332 21.8383 8.51413 21.829C8.73788 21.8197 8.94043 21.6529 8.94514 21.4258C8.95691 20.7073 9.27251 20.1511 9.79066 19.6598C10.37 19.1106 10.4548 18.2346 10.0521 17.5532C9.64228 16.8649 8.81796 16.5289 8.03367 16.7328C7.26586 16.9321 6.68648 17.6575 6.69825 18.4084C6.70297 18.6865 6.87254 18.8788 7.12691 18.8904C7.38598 18.9043 7.57204 18.7398 7.60973 18.464C7.61915 18.3991 7.62386 18.3342 7.63799 18.2693C7.711 17.9101 7.98421 17.6529 8.36575 17.5857C8.69548 17.5277 9.05819 17.6923 9.2419 17.9843C9.47977 18.3597 9.41854 18.7792 9.05819 19.1152C8.44347 19.6876 8.09961 20.3806 8.0478 21.2125V21.2149ZM8.48822 22.2392C8.48822 22.2392 8.48822 22.2392 8.48822 22.2369C8.41286 22.2369 8.33749 22.2322 8.26448 22.2369C8.00776 22.2554 7.82405 22.4431 7.82405 22.6818C7.82405 22.9205 8.00305 23.1129 8.25977 23.1268C8.42463 23.1361 8.59185 23.1384 8.75672 23.1268C8.98753 23.1083 9.15004 22.9252 9.15711 22.7004C9.16417 22.464 9.00166 22.2716 8.76379 22.2415C8.67429 22.2299 8.58243 22.2415 8.49058 22.2415L8.48822 22.2392Z"/>
</mask>
<path d="M0 23.9982C0 23.8962 0 23.8081 0 23.7178C0 22.0306 0 20.3435 0 18.6563C0.00235522 15.8638 1.95955 13.6691 4.77168 13.3052C5.02605 13.2728 5.28748 13.2728 5.5442 13.2844C5.6384 13.289 5.74203 13.3562 5.8174 13.4234C6.61347 14.1326 7.40482 14.8464 8.19618 15.5579C8.44347 15.7803 8.55653 15.7757 8.81089 15.5463C9.60931 14.8278 10.4054 14.1071 11.2085 13.3956C11.2815 13.3331 11.3969 13.2867 11.4935 13.2844C14.52 13.2172 16.9835 15.5741 16.9953 18.5497C17.0024 20.2856 16.9953 22.0237 16.9953 23.7595C16.9953 23.8313 16.9882 23.9055 16.9835 23.9982H0ZM8.0478 21.2149C8.0478 21.289 8.04073 21.3632 8.0478 21.435C8.07606 21.6668 8.28332 21.8383 8.51413 21.829C8.73788 21.8197 8.94043 21.6529 8.94514 21.4258C8.95691 20.7073 9.27251 20.1511 9.79066 19.6598C10.37 19.1106 10.4548 18.2346 10.0521 17.5532C9.64228 16.8649 8.81796 16.5289 8.03367 16.7328C7.26586 16.9321 6.68648 17.6575 6.69825 18.4084C6.70297 18.6865 6.87254 18.8788 7.12691 18.8904C7.38598 18.9043 7.57204 18.7398 7.60973 18.464C7.61915 18.3991 7.62386 18.3342 7.63799 18.2693C7.711 17.9101 7.98421 17.6529 8.36575 17.5857C8.69548 17.5277 9.05819 17.6923 9.2419 17.9843C9.47977 18.3597 9.41854 18.7792 9.05819 19.1152C8.44347 19.6876 8.09961 20.3806 8.0478 21.2125V21.2149ZM8.48822 22.2392C8.48822 22.2392 8.48822 22.2392 8.48822 22.2369C8.41286 22.2369 8.33749 22.2322 8.26448 22.2369C8.00776 22.2554 7.82405 22.4431 7.82405 22.6818C7.82405 22.9205 8.00305 23.1129 8.25977 23.1268C8.42463 23.1361 8.59185 23.1384 8.75672 23.1268C8.98753 23.1083 9.15004 22.9252 9.15711 22.7004C9.16417 22.464 9.00166 22.2716 8.76379 22.2415C8.67429 22.2299 8.58243 22.2415 8.49058 22.2415L8.48822 22.2392Z" stroke="#9CA3AF" style="stroke:#9CA3AF;stroke:color(display-p3 0.6118 0.6392 0.6863);stroke-opacity:1;" stroke-width="2" mask="url(#path-1-inside-1_7227_3267)"/>
<mask id="path-2-inside-2_7227_3267" fill="white">
<path d="M3.46484 5.22961C3.46484 4.19832 3.86523 3.31767 4.49879 2.52277C5.57983 1.16704 6.93644 0.246989 8.70522 0.0407316C9.93935 -0.102953 11.0981 0.107939 11.9554 1.08592C12.2498 1.42428 12.4241 1.86692 12.6361 2.27248C12.7538 2.49728 12.8009 2.75916 12.9328 2.97237C13.5099 3.88778 13.5664 4.8704 13.3427 5.88778C13.06 7.18558 12.5725 8.39531 11.6752 9.41037C10.8979 10.2887 9.95113 10.8843 8.74525 10.9654C7.53467 11.0465 6.50544 10.5853 5.65991 9.76495C4.5506 8.685 3.84403 7.37561 3.52843 5.86924C3.48604 5.66298 3.48604 5.44514 3.46484 5.23424V5.22961ZM8.52857 10.0639C9.42356 10.0477 10.1537 9.65371 10.766 9.03494C11.7317 8.06159 12.2192 6.85881 12.4524 5.54015C12.5419 5.03262 12.2875 4.62938 11.9601 4.29102C11.6846 4.00365 11.2913 4.00829 10.8814 4.26089C9.97704 4.81941 9.0373 4.8704 8.06224 4.49496C7.71367 4.36055 7.37216 4.20759 7.03772 4.04537C6.69857 3.88082 6.34999 3.80898 5.97316 3.84838C5.52802 3.89473 5.26423 4.12416 5.17238 4.50191C5.03107 5.09056 4.87327 5.67225 4.72724 6.25858C4.70369 6.34896 4.69192 6.45788 4.72018 6.54363C5.03342 7.50076 5.50918 8.3675 6.24872 9.07202C6.87992 9.67225 7.61239 10.0616 8.52622 10.0616L8.52857 10.0639Z"/>
</mask>
<path d="M3.46484 5.22961C3.46484 4.19832 3.86523 3.31767 4.49879 2.52277C5.57983 1.16704 6.93644 0.246989 8.70522 0.0407316C9.93935 -0.102953 11.0981 0.107939 11.9554 1.08592C12.2498 1.42428 12.4241 1.86692 12.6361 2.27248C12.7538 2.49728 12.8009 2.75916 12.9328 2.97237C13.5099 3.88778 13.5664 4.8704 13.3427 5.88778C13.06 7.18558 12.5725 8.39531 11.6752 9.41037C10.8979 10.2887 9.95113 10.8843 8.74525 10.9654C7.53467 11.0465 6.50544 10.5853 5.65991 9.76495C4.5506 8.685 3.84403 7.37561 3.52843 5.86924C3.48604 5.66298 3.48604 5.44514 3.46484 5.23424V5.22961ZM8.52857 10.0639C9.42356 10.0477 10.1537 9.65371 10.766 9.03494C11.7317 8.06159 12.2192 6.85881 12.4524 5.54015C12.5419 5.03262 12.2875 4.62938 11.9601 4.29102C11.6846 4.00365 11.2913 4.00829 10.8814 4.26089C9.97704 4.81941 9.0373 4.8704 8.06224 4.49496C7.71367 4.36055 7.37216 4.20759 7.03772 4.04537C6.69857 3.88082 6.34999 3.80898 5.97316 3.84838C5.52802 3.89473 5.26423 4.12416 5.17238 4.50191C5.03107 5.09056 4.87327 5.67225 4.72724 6.25858C4.70369 6.34896 4.69192 6.45788 4.72018 6.54363C5.03342 7.50076 5.50918 8.3675 6.24872 9.07202C6.87992 9.67225 7.61239 10.0616 8.52622 10.0616L8.52857 10.0639Z" stroke="#9CA3AF" style="stroke:#9CA3AF;stroke:color(display-p3 0.6118 0.6392 0.6863);stroke-opacity:1;" stroke-width="2" mask="url(#path-2-inside-2_7227_3267)"/>
<mask id="path-3-inside-3_7227_3267" fill="white">
<path d="M8.49981 15.0188C7.73436 14.3306 6.98069 13.6515 6.21289 12.9609C6.58737 12.4557 6.80876 11.9018 6.81818 11.2344C7.94869 11.677 9.05329 11.677 10.1767 11.2413C10.205 11.8879 10.4005 12.4441 10.7938 12.9563C10.0307 13.6423 9.27233 14.3259 8.50217 15.0188H8.49981Z"/>
</mask>
<path d="M8.49981 15.0188C7.73436 14.3306 6.98069 13.6515 6.21289 12.9609C6.58737 12.4557 6.80876 11.9018 6.81818 11.2344C7.94869 11.677 9.05329 11.677 10.1767 11.2413C10.205 11.8879 10.4005 12.4441 10.7938 12.9563C10.0307 13.6423 9.27233 14.3259 8.50217 15.0188H8.49981Z" stroke="#9CA3AF" style="stroke:#9CA3AF;stroke:color(display-p3 0.6118 0.6392 0.6863);stroke-opacity:1;" stroke-width="2" mask="url(#path-3-inside-3_7227_3267)"/>
</g>
<defs>
<clipPath id="clip0_7227_3267">
<rect width="17" height="24" fill="white" style="fill:white;fill-opacity:1;"/>
</clipPath>
</defs>
</svg>
