<svg width="25" height="21" viewBox="0 0 25 21" fill="none" xmlns="http://www.w3.org/2000/svg">
<mask id="path-1-outside-1_7227_3287" maskUnits="userSpaceOnUse" x="-0.499512" y="-0.5" width="26" height="22" fill="black">
<rect fill="white" x="-0.499512" y="-0.5" width="26" height="22"/>
<path d="M8.65111 13.875C12.6009 13.875 15.8013 11.1047 15.8013 7.6875C15.8013 4.27031 12.6009 1.5 8.65111 1.5C4.70129 1.5 1.50086 4.27031 1.50086 7.6875C1.50086 9.04453 2.00619 10.2996 2.86216 11.3227C2.74184 11.6531 2.56309 11.9449 2.37402 12.191C2.20901 12.409 2.04057 12.5777 1.91682 12.6937C1.85494 12.75 1.80337 12.7957 1.769 12.8238C1.75181 12.8379 1.73806 12.8484 1.73118 12.852L1.72431 12.859C1.53524 13.0031 1.45274 13.2562 1.52837 13.4848C1.60399 13.7133 1.81369 13.875 2.05088 13.875C2.80028 13.875 3.55656 13.6781 4.18564 13.4355C4.5019 13.3125 4.79754 13.1754 5.05536 13.0348C6.11071 13.5691 7.33794 13.875 8.65111 13.875ZM16.9014 7.6875C16.9014 11.6355 13.4947 14.6098 9.45895 14.9648C10.2943 17.5805 13.065 19.5 16.3514 19.5C17.6645 19.5 18.8918 19.1941 19.9506 18.6598C20.2084 18.8004 20.5006 18.9375 20.8168 19.0605C21.4459 19.3031 22.2022 19.5 22.9516 19.5C23.1888 19.5 23.4019 19.3418 23.4741 19.1098C23.5463 18.8777 23.4672 18.6246 23.2747 18.4805L23.2679 18.4734C23.261 18.4664 23.2472 18.4594 23.23 18.4453C23.1957 18.4172 23.1441 18.375 23.0822 18.3152C22.9585 18.1992 22.79 18.0305 22.625 17.8125C22.4359 17.5664 22.2572 17.2711 22.1369 16.9441C22.9928 15.9246 23.4982 14.6695 23.4982 13.309C23.4982 10.0465 20.5796 7.37109 16.8773 7.13906C16.8911 7.31836 16.8979 7.50117 16.8979 7.68398L16.9014 7.6875Z"/>
</mask>
<path d="M8.65111 13.875C12.6009 13.875 15.8013 11.1047 15.8013 7.6875C15.8013 4.27031 12.6009 1.5 8.65111 1.5C4.70129 1.5 1.50086 4.27031 1.50086 7.6875C1.50086 9.04453 2.00619 10.2996 2.86216 11.3227C2.74184 11.6531 2.56309 11.9449 2.37402 12.191C2.20901 12.409 2.04057 12.5777 1.91682 12.6937C1.85494 12.75 1.80337 12.7957 1.769 12.8238C1.75181 12.8379 1.73806 12.8484 1.73118 12.852L1.72431 12.859C1.53524 13.0031 1.45274 13.2562 1.52837 13.4848C1.60399 13.7133 1.81369 13.875 2.05088 13.875C2.80028 13.875 3.55656 13.6781 4.18564 13.4355C4.5019 13.3125 4.79754 13.1754 5.05536 13.0348C6.11071 13.5691 7.33794 13.875 8.65111 13.875ZM16.9014 7.6875C16.9014 11.6355 13.4947 14.6098 9.45895 14.9648C10.2943 17.5805 13.065 19.5 16.3514 19.5C17.6645 19.5 18.8918 19.1941 19.9506 18.6598C20.2084 18.8004 20.5006 18.9375 20.8168 19.0605C21.4459 19.3031 22.2022 19.5 22.9516 19.5C23.1888 19.5 23.4019 19.3418 23.4741 19.1098C23.5463 18.8777 23.4672 18.6246 23.2747 18.4805L23.2679 18.4734C23.261 18.4664 23.2472 18.4594 23.23 18.4453C23.1957 18.4172 23.1441 18.375 23.0822 18.3152C22.9585 18.1992 22.79 18.0305 22.625 17.8125C22.4359 17.5664 22.2572 17.2711 22.1369 16.9441C22.9928 15.9246 23.4982 14.6695 23.4982 13.309C23.4982 10.0465 20.5796 7.37109 16.8773 7.13906C16.8911 7.31836 16.8979 7.50117 16.8979 7.68398L16.9014 7.6875Z" stroke="#9CA3AF" style="stroke:#9CA3AF;stroke:color(display-p3 0.6118 0.6392 0.6863);stroke-opacity:1;" stroke-width="3" mask="url(#path-1-outside-1_7227_3287)"/>
</svg>
