<svg width="20" height="18" viewBox="0 0 20 18" fill="none" xmlns="http://www.w3.org/2000/svg">
<path d="M8.25 3.92871V15.8574C8.24985 16.7581 7.53071 17.5 6.625 17.5H2.125C1.21929 17.5 0.500148 16.7581 0.5 15.8574V13.7461C0.50006 12.4216 0.854038 11.1194 1.52539 9.98145H1.52637C1.97289 9.22654 2.25955 8.38514 2.36719 7.51074L2.63086 5.36719C2.73152 4.5505 3.41795 3.92871 4.24512 3.92871H8.25ZM15.7588 3.92871C16.5814 3.92881 17.2723 4.54957 17.373 5.36719V5.36816L17.6328 7.51074L17.6816 7.83691C17.8148 8.59403 18.0829 9.32089 18.4736 9.98145H18.4746C19.146 11.1194 19.4999 12.4216 19.5 13.7461V15.8574C19.4999 16.7581 18.7807 17.5 17.875 17.5H13.375C12.4693 17.5 11.7501 16.7581 11.75 15.8574V3.92871H15.7588ZM11.625 3.92871V10.6426H8.375V3.92871H11.625ZM6.625 0.5C7.53071 0.5 8.24985 1.24187 8.25 2.14258V3.78613H3.875V2.14258C3.87515 1.24187 4.59429 0.5 5.5 0.5H6.625ZM14.5 0.5C15.4057 0.5 16.1249 1.24187 16.125 2.14258V3.78613H11.75V2.14258C11.7501 1.24187 12.4693 0.5 13.375 0.5H14.5Z" stroke="#9CA3AF" style="stroke:#9CA3AF;stroke:color(display-p3 0.6118 0.6392 0.6863);stroke-opacity:1;"/>
</svg>
